<?xml version="1.0" encoding="utf-8"?>
<!-- Generator: Adobe Illustrator 19.2.1, SVG Export Plug-In . SVG Version: 6.00 Build 0)  -->
<svg version="1.1" xmlns="http://www.w3.org/2000/svg" xmlns:xlink="http://www.w3.org/1999/xlink" x="0px" y="0px"
	 viewBox="0 0 1116.7 942.7" style="enable-background:new 0 0 1116.7 942.7;" xml:space="preserve">
<style type="text/css">
	.st0{opacity:0.39;}
	.st1{fill:#EA9B23;}
	.st2{fill:none;stroke:#000000;stroke-width:0.5;stroke-linecap:round;stroke-linejoin:round;}
	.st3{fill:none;stroke:#000000;stroke-width:0.5;stroke-miterlimit:10;}
	.st4{fill:#FFFFFF;}
	.st5{fill:#EC1C24;stroke:#1B75BB;stroke-linecap:round;stroke-miterlimit:10;}
	.st6{font-family:'MyriadPro-Regular';}
	.st7{font-size:12px;}
	.st8{fill:#231F20;}
	.st9{font-size:36px;}
</style>
<g id="bitmap">
	
		<image style="overflow:visible;" width="2684" height="2266" xlink:href="../relief_map.jpg"  transform="matrix(0.4161 0 0 0.416 -1.812220e-03 -4.007587e-03)">
	</image>
</g>
<g id="borders">
	<g id="XMLID_2_" class="st0">
		<g>
			<path class="st1" d="M636.6,531.9L636.6,531.9c0.4,0.5,1.2,0.2,1.8-0.1c0.5-0.3,1.2-0.7,1.7-0.3c0.3,0.2,0.4,0.5,0.6,0.7
				c0.5,0.4,1.2,0,1.8,0.2c1.1,0.3,1.1,1.8,1.4,3c0.4,1.8,2.1,2.9,3.6,3.9c1.3,0.9,2.6,1.7,3.8,2.6c0.2-1.4,0.3-2.8,0-4.1
				c-0.3-1.3-1.2-2.6-2.4-3.1c-0.3-0.1-0.6-0.2-0.7-0.5c-0.3-0.6,0.5-1,1.2-1.1c1-0.2,2-0.3,3.1-0.5c0-1.2,1.4-2.2,2.6-1.8
				c0.7,0.2,1.5,0.8,1.9,0.3c0.2-0.2,0.2-0.5,0.4-0.7c0.5-0.7,1.6-0.4,2.4-0.7c0.7-0.2,1.1-0.9,1.5-1.6c0.8-1.5,1.4-3.1,1.8-4.8
				c0.1-0.4,0.2-0.9,0.4-1.2c0.1-0.1,0.2-0.2,0.3-0.3c0.6-0.5,1.5-0.3,2.1,0c0.7,0.3,1.3,0.8,2.1,0.9c0.7,0.1,1.7-0.3,1.7-1
				c1.6,0.5,3.5-1.2,3.2-2.8c-1.7,0.5-3.7-0.1-4.9-1.4c-0.2-0.3-0.4-0.5-0.7-0.7c-0.7-0.4-1.5,0-2.2,0.3c-0.7,0.3-1.6,0.5-2.1,0
				c-0.2-0.3-0.3-0.6-0.5-0.9c-0.6-1-2.1-1-3.3-0.8c0,0.6,0.6,1.2,1.2,1.2c-0.7,1.7,2,3.4,1.5,5.1c0,0.1-0.1,0.2-0.1,0.2
				c-0.1,0.2-0.3,0.5-0.5,0.7c-1.5,1.9-3.2,3.6-5.3,4.9c-3,1.8-6.6,2.5-10.1,3c0.2-0.8,0.3-1.7-0.3-2.2c-0.8-0.7-2.3,0.1-3.1-0.6
				c-0.3-0.3-0.4-0.8-0.7-1.2c-0.9-1.3-3.2,0-4.4-1c-0.3-0.2-0.6-0.7-0.9-0.8s-0.8-0.1-1.2-0.1c-3.6,0.4-7.3,0.2-11,0
				c-3.5-0.2-6.9-0.4-10.3-0.6c-0.3-0.3-0.9-0.1-1,0.3c-0.1,0.4,0.1,0.8,0.4,1.1c0.3,0.3,0.8,0.4,1.2,0.4c1,0.1,1.9,0,2.9,0
				c1,0,1.9,0.2,2.8,0.4c2.5,0.5,5,0.9,7.6,1.4c1.7,0.3,3.4,0.6,5.1,1.3C634.1,529.5,635.6,530.5,636.6,531.9z M969,290.1
				c-0.2-0.1-0.6,0-0.9,0.1c-0.5,0.2-1,0.5-1.5,0.9c-0.2,0.2-0.4,0.4-0.6,0.5c-0.8,0.5-1.8,0.1-2.6-0.3c-0.1-0.1-0.3-0.1-0.5-0.1
				c-0.6,0.1-0.5,1.3-1.1,1.3c-0.5,0-0.5-0.7-0.8-1c-0.2-0.3-0.7-0.3-1.1-0.3c-1.3,0-2.6,0.1-3.9,0.1c-0.2,0-0.5,0-0.7,0.2
				c-0.3,0.4,0.2,0.8,0.4,1.2c0.2,0.3,0.3,0.7,0.2,1.1c0.7,0,1.4,0.1,2,0.4c0.6,0.2,1.1,0.6,1.5,1c0.9,0.6,1.8,1.3,2.6,1.9
				c0.2,0.1,0.4,0.2,0.6,0.3c0.3,0,0.5-0.1,0.7-0.2c0.7-0.3,1.5-0.3,2.2,0c0.2,0.1,0.6,0.3,0.8,0.1c0.1-0.1,0.1-0.2,0.2-0.4
				c0.5-0.8,2.1,0.3,2.5-0.5c-0.2-0.4-0.2-0.9-0.1-1.4c0.7,0.4,1.6-0.1,1.8-0.9c0.2-0.7,0-1.5-0.3-2.3c-0.1-0.4-0.3-0.9-0.5-1.2
				C969.8,290.3,969.4,290,969,290.1L969,290.1z M895.4,445.4c-0.4-0.1-0.7-0.5-1.1-0.5c-0.1,0-0.3,0.1-0.4,0.1
				c-0.8,0.4-1.7,0.9-2.4,1.5c-0.2,0.2-0.5,0.3-0.8,0.5c-0.6,0.2-1.2,0.1-1.7,0.5c-0.2,0.2-0.3,0.4-0.5,0.6c-0.8,0.8-2.4,0-3.3,0.7
				c-0.2,0.1-0.3,0.3-0.5,0.4c-0.2,0.1-0.4,0.1-0.5,0.1c-0.9,0-1.8,0.1-2.4,0.7c-0.6,0.7-0.8,2-1.8,2.1c-0.7,0.1-2.2-0.5-2.6,0.5
				c-0.1,0.3,0,0.6,0.1,0.8c-1.6,0.7-3.4,0.8-5.1,0.5c-0.2,0-0.5-0.1-0.7,0c-0.1,0.1-0.2,0.2-0.3,0.4c-0.5,0.8-0.7,1.8-0.5,2.7
				c0,0.2,0.1,0.3,0.2,0.4c0.2,0.2,0.5,0.1,0.7,0.3c0.4,0.3,0,1,0.2,1.4c0.2,0.3,0.6,0.3,0.9,0.3c0.3,0,0.7,0,1-0.2
				c0.6-0.3,1.1-1.1,1.8-1c0.4,0,0.7,0.3,1,0.4c0.7,0.4,1.4,0.5,2.1,0.7c0.7,0.2,1.5,0.3,2.2,0.4c1.3,0.2,2.2,0.3,3.4-0.1
				c1.1-0.3,2,0.2,3,0.8c1,0.5,2.1,0.8,3.2,0.9c0.8,0.1,1.5,0,2.2,0.2c0.6,0.1,1.2,0.4,1.8,0.3c0.4,0,0.7-0.1,1.1-0.2
				c1.1-0.4,2.2-0.7,3.4-1.1c0.6-0.2,1.2-0.4,1.9-0.3c0.9,0.1,1.6,0.6,2.5,0.8c1,0.2,2-0.1,3-0.6c2-1,3.7-2.6,4.8-4.6
				c0.8-1.5,1.4-3.3,2.9-4.1c0.1-0.4-0.3-0.6-0.7-0.7c-0.4-0.1-0.8,0-1.1-0.3c-0.4-0.3-0.2-1,0.2-1.3c0.4-0.3,1-0.4,1.5-0.5
				c2.1-0.5,3.9-2,4.7-3.9c0.2-0.3,0.3-0.7,0.6-1c0.2-0.2,0.4-0.2,0.6-0.3c1.1-0.4,2.2-0.5,3.3-0.4c0.2-0.4-0.4-0.8-0.8-0.9
				c-0.8-0.1-1.6,0-2.4,0.3c-0.6,0.3-1.4,0.7-2,0.3c-0.5-0.4-0.3-1.1-0.1-1.7c0.1-0.2,0.2-0.5,0.4-0.6c0.2-0.1,0.5-0.1,0.7-0.2
				c0.6-0.2,0.7-1,1-1.6c0.3-0.5,0.9-0.8,1.4-0.8c-2.5-0.4-4.9,0.1-6.8,1.7c-1.1-0.1-2.1-0.1-3.2,0.1c0,0,0,0,0,0c0,0,0,0,0,0
				c0.1,0,0.1,0.2,0.1,0.3c-0.1,0.1-0.3,0.1-0.4,0.1c-0.5-0.1-1.1,0-1.6,0.2c-0.3,0.1-0.7,0.2-1,0.4c-0.4,0.2-0.8,0.4-1.3,0.6
				c-0.7,0.3-1.4,0.6-2,0.9c-0.1,0.1-0.3,0.1-0.4,0.2c-0.1,0.2-0.1,0.4-0.2,0.6c-0.3,0.8-1.3,0.9-2.1,0.8c-1-0.1-2-0.3-2.9-0.4
				c-1,0-2,0.2-2.7,0.9C896.4,444.9,895.9,445.5,895.4,445.4z M460.1,344.1c-0.6,0.5-1.6-0.1-2.4,0.1c-0.4,0.1-0.8,0.5-1.3,0.5
				c-0.4-0.1-0.6-0.5-0.6-0.9c0,0,0-0.1,0-0.1c0.1-0.4,0.3-0.8,0.6-1.2c0.2-0.4,0.4-0.8,0.4-1.3c-0.1-0.4-0.3-0.7-0.5-1
				c-0.2-0.4-0.2-0.8,0-1.1c0.1-0.1,0.3-0.2,0.4-0.4c0.2-0.2,0.2-0.5,0.2-0.8c-0.2-1.8-2.1-3.2-3.9-2.8c-0.7,0.1-1.4,0.5-2,0.1
				c-0.2-0.1-0.4-0.4-0.7-0.5c-0.4-0.1-0.9,0.3-0.9,0.8s0.2,0.9,0.4,1.3c0.3,0.6,0.7,1.1,1,1.7c0.2,0.3,0.3,0.5,0.6,0.8
				c0.2,0.2,0.5,0.3,0.7,0.5c0.8,0.6,1.1,1.6,1.4,2.6c0.1,0.5,0.3,1.1,0.4,1.7c0.1,0.6,0,1.2-0.2,1.8c-0.2,0.4-0.4,0.8-0.7,1.2
				c-0.5,0.8-0.8,1.8-1.2,2.7c-0.3,0.7-0.6,1.5-0.8,2.2c-0.1,0.2-0.1,0.3-0.1,0.5c0,0.6,0.8,1.3,0.4,1.8c-0.2,0.3-0.7,0.3-1,0.2
				c-0.4-0.1-0.7-0.3-1.1-0.4c-0.6,0-1.1,0.4-1.6,0.9c-0.4,0.4-1,0.8-1.4,1.2c-0.5-0.8-1.3-1.6-2.2-1.3c-0.3,0.9-0.5,1.7-0.8,2.6
				c-0.6-0.6-1.3-1.3-1.9-1.9c0,0,0,0,0-0.1c-0.2-0.1-0.3-0.3-0.4-0.5c-0.1-0.2-0.1-0.4-0.1-0.5c0-2.3,1-4.5,2.8-6
				c0.2-0.2,0.5-0.4,0.6-0.7c0.3-0.5,0-1.2-0.6-1.5c-0.5-0.3-1.2-0.2-1.7,0.2c-0.3,0.2-0.6,0.5-0.9,0.7c-0.4,0.2-0.9,0.2-1.4,0.1
				c-1.6-0.1-3.2-0.3-4.8-0.4c0.5,0.8-0.6,1.9-1.4,1.4c-0.3-0.2-0.4-0.4-0.7-0.5c-0.5-0.2-1.1,0.1-1.4,0.6c-0.4,0.4-0.6,1-1,1.3
				c-0.3,0.2-0.7,0.4-1,0.6c-0.7,0.4-1.1,1.1-1.4,1.8c-1,1.9-1.5,3.9-1.6,6c0,0.7-0.1,1.5-0.7,1.8c-0.2,0.1-0.5,0.1-0.8,0.2
				c-0.2,0.1-0.3,0.4-0.4,0.6c-0.4,1.4-0.6,2.9-0.7,4.4c0,0.3,0,0.5-0.2,0.8c-0.1,0.2-0.4,0.3-0.6,0.5c-1.5,0.8-2.7,2.3-3,4
				c-0.1,0.4-0.1,0.7-0.2,1.1c-0.1,0.3-0.3,0.6-0.4,0.9c-0.4,0.7-0.8,1.4-1.2,2.1c-1,1.7-1.9,3.4-2.7,5.2c-1.1,2.5-1.8,5.3-0.9,7.8
				c0.4,1.1,1,2,1.2,3.1c0.2,1.1-0.1,2.4-1.1,2.9c-0.3,0.1-0.7,0.2-0.9,0.5c-0.2,0.2-0.1,0.5-0.1,0.8c0.1,1.3,0.5,3.2,1.5,4.2
				c0.8,0.9,2.3,0,3.2-0.4c2.5-1.1,4.7-3,6.3-5.3c0.3-0.5,0.6-1,0.7-1.6c0-0.6-0.3-1.2-0.9-1.3c-0.3,0.3-0.8,0.4-1.2,0.2
				c0.5-0.8,0.2-2.2,1.1-2.4c0.5-0.1,1.1,0.3,1.5,0.7c0.4,0.4,1.1,0.7,1.5,0.3c-0.5-1.3-0.6-2.7-0.2-4c0.2-0.6,0.5-1.3,0.2-1.8
				c-0.1-0.2-0.3-0.4-0.3-0.6c-0.1-0.3,0.2-0.6,0.5-0.7s0.6,0,1,0c0.4-1,0.4-2.1,0.1-3c-0.7,0.1-1.3,0.6-1.9,1
				c-0.6,0.4-1.5,0.6-1.9,0.1c-0.5-1,0.3-2.1,1.1-2.8c1-1,2-1.9,3-2.9c0.2-0.2,0.4-0.4,0.4-0.6c0.1-0.5-0.6-0.8-1.1-1
				c-0.5-0.2-1.1-0.5-0.9-1c0-0.1,0.1-0.2,0.2-0.4c0.3-0.6,0-1.4-0.2-2.1c-0.5-2,0.7-4,1.8-5.7c0.5-0.8,1-1.6,1.7-2.2
				c1.2-1.1,3.1-1.6,3.7-3.1c0.5-1.3-0.1-2.8,0.3-4.2c0.7-0.2,1.1,0.9,1,1.7c-0.1,0.8,0.1,1.8,0.9,1.8c0.7-1.2,1.1-2.6,1.3-4
				c0.5-0.3,1.2,0.1,1.5,0.7c0.3,0.5,0.4,1.2,0.9,1.6c0.2,0.2,0.5,0.4,0.6,0.7c0.1,0.3,0,0.6,0.1,1c0.2,1,1.7,1.2,2,2.2
				c0.2,0.6,0,1.5,0.6,1.7c0.2,0.1,0.4,0,0.6,0.1c0.2,0.1,0.4,0.4,0.5,0.6c0.7,2.5-0.9,5.3,0,7.8c0.4,1,1.2,1.9,1.1,3
				c-0.1,0.5-0.3,1-0.5,1.4c-0.4,1.2,0,2.6-0.8,3.6c-0.4,0.5-1.1,0.9-1.3,1.5c-0.2,0.4-0.1,0.9-0.2,1.4c-0.4,1.3-2.2,1.9-2.2,3.2
				c0,0.4,0.1,0.8,0.1,1.2c-0.1,0.6-0.6,1.1-1,1.5c-1.9,2-2.7,5.1-1.6,7.5c0.2,0.5,0.6,0.7,1,1c0.3,0.2,0.5,0.6,0.8,0.9
				c0.4,0.4,1,0.7,1.5,1.1c1.6,1.3,2.2,3.6,3.8,5c0.6,0.5,1.3,0.9,1.8,1.3c0.6,0.5,1.1,1.2,1.1,1.9c0,0.7-0.5,1.4-1.2,1.6
				c-0.2,0.1-0.5,0.1-0.7,0.2c-0.3,0.2-0.5,0.5-0.6,0.8c-0.3,0.7-0.5,1.4-0.7,2.2c0,0.3-0.1,0.6,0.1,0.8c0.1,0.2,0.4,0.2,0.6,0.3
				c0.9,0.2,1.8,0.4,2.7,0.2c0.3-0.1,0.6-0.3,1-0.4c0.6-0.1,1.2,0.2,1.9,0.1c0.5,0,1-0.3,1.4-0.6c0.8-0.5,1.6-1,2.4-1.5
				c0.3-0.3,0-0.8-0.3-1c-0.3-0.2-0.7-0.4-0.9-0.8c-0.2-0.4-0.1-1,0.3-1.3c0.4-0.3,0.9-0.4,1.4-0.4c0.8,0,1.7,0.2,2.2-0.4
				c0.3-0.4,0.1-1,0.1-1.5c0-0.9,0.5-1.7,0.5-2.7c0-0.9-0.4-1.7-0.7-2.5c-0.3-0.9-0.6-1.8-0.7-2.8c0-0.3-0.1-0.7,0-1
				c0.1-0.3,0.3-0.6,0.5-0.8c0.5-0.6,1-1.1,1.6-1.6c0.1-0.1,0.3-0.2,0.4-0.4c0.1-0.2,0.1-0.4,0-0.6c-0.1-1.4-0.2-2.9-0.3-4.3
				c0-0.2,0-0.4,0.1-0.6c0.1-0.1,0.3-0.2,0.4-0.4c0.1-0.1,0.1-0.3,0.1-0.5c0-1.3,0-2.6,0-3.8c0-0.6-0.1-1.4-0.7-1.5
				c0.4-0.8,0.9-1.5,1.1-2.4c0.2-1,0.2-2.2,0.2-3.2c0.2-2.1,0.3-4.1,0.5-6.2c0.1-1.4,0.2-2.8-0.2-4c-0.4-1.3-1.5-2.5-2.8-2.6
				c-0.9-0.1-1.8,0.3-2.8,0.5c-0.9,0.1-2.1-0.2-2.3-1.1c-0.1-0.4,0-0.8,0.1-1.2c0.8-2.6,2-5.2,3.5-7.5c0.1-0.2,0.3-0.4,0.3-0.7
				c0-0.6-0.7-1.2-0.4-1.7c1.1-0.2,2.2,0.1,3.1,0.7c0.4,0.3,0.8,0.7,1.2,0.9c1,0.5,2.1,0.1,3.2,0.1c1.8,0,3.4,1,5,1.8
				c0.4,0.2,0.9,0.4,1.4,0.4c1.6-0.1,1.9-2.3,2.9-3.5c1.4-1.8,4.6-1.8,5.4-4c0.2-0.6,0.3-1.3,0.7-1.8c0.1-0.1,0.1-0.1,0.2-0.2
				c0.4-0.2,0.9-0.2,1.3-0.3c1.8-0.1,3.6-0.8,4.9-1.9c0.4-0.3,0.7-0.6,1.1-0.8c0.6-0.3,1.3-0.2,2-0.4c1.5-0.4,2.6-1.7,3-3.2
				c0.4-1.5,0.4-3.1,0.3-4.6c-1.6,0.1-3.2-0.2-4.8-0.5c-0.4-0.1-0.8-0.2-1.2-0.2c-1-0.2-2-0.4-2.9-0.9c-2-1.1-3-3.6-2.3-5.7
				c0,0,0,0,0-0.1c0.3-1.1,1-2.4,0.1-3.2c-0.3-0.3-0.8-0.4-1.3-0.5c-1.3-0.2-2.7-0.5-4-0.7c0.1,1.4,1.6,2.2,3,2.6
				c0.8,0.2,1.8,0.6,1.8,1.5c0,0.1,0,0.1,0,0.2c0,0.2-0.1,0.3-0.2,0.5c-0.7,1.2-2.1,2.1-3.5,2.2c-1.4,0.1-2.9-0.5-3.8-1.6
				c0.1,1.3-0.2,2.6-0.9,3.8c-0.7-1.6-1.3-3.2-1.8-4.9c-0.2-0.7-0.4-1.4-0.8-1.9c-0.4-0.5-1.3-0.8-1.8-0.3c-0.6,0.5-0.6,1.5-1.3,1.7
				c-0.3,0.1-0.6,0.1-1,0.1c-0.3,0.1-0.5,0.2-0.8,0.4c-1.2,0.8-2.4,1.6-3,2.9c-0.6,1.2-0.4,2.8,0.3,3.9c0.4,0.5,0.9,1,1.3,1.5
				c0.2,0.3,0.4,0.6,0.7,0.7c0.2,0.1,0.5,0.1,0.7,0.1c1.3,0,2.6-0.3,3.8-0.8c0.4-0.2,0.7-0.3,1.1-0.3c0.6,0,1.1,0.5,1.5,1
				c1,1.3,2.4,2.8,4,2.4c1.2-0.3,1.9-1.7,3.1-2c0.2-0.1,0.5-0.1,0.7,0.1c0.2,0.1,0.2,0.4,0.2,0.6c0.1,1.4,0.7,2.8,1.5,4
				c0.3,0.4,0.6,0.8,0.8,1.3c0.2,0.9-0.5,1.7-1.2,2.3c-0.4,0.4-0.8,0.8-1.2,1.2c-0.2,0.2-0.4,0.4-0.6,0.6c-0.4,0.4-0.8,0.8-1.3,0.9
				c-0.5,0.2-1.1,0.1-1.6,0c-3.3-0.6-6.2-1.5-9.5-1.5c-1,0-1.7-0.8-2.7-1.1c-1-0.3-2.2,0.1-2.8,0.9
				C460.4,343.8,460.3,344,460.1,344.1z M867,307.8c-0.1-0.2-0.1-0.4-0.2-0.6c-0.1-0.2-0.3-0.4-0.5-0.3c-0.4,1-0.1,2.3,0.7,3
				c-0.4,0-0.9-0.1-1.3-0.2c-0.8-0.2-1.6-0.6-2.4-0.4c0-0.7,0-1.4,0-2c-0.6-0.1-0.9,1-1.6,1c-0.6,0-1-1-1.6-0.9
				c0,0.9-1.4,1.1-1.7,1.9c0,0.1-0.1,0.3-0.2,0.4c-0.1,0.1-0.2,0.1-0.4,0c-0.9-0.1-1.9-0.3-2.8-0.4c0.2-1-0.3-1.9-1.1-2.5
				c-0.8-0.6-1.7-0.9-2.6-1.2c-1-0.3-2-0.6-3.1-0.7c-0.5,0-1,0-1.4,0.2c-0.3,0.2-0.5,0.6-0.7,0.9c-0.4,0.4-1,0.6-1.5,0.4
				c-0.5-0.2-0.8-0.9-0.5-1.3c-0.3-0.4-0.9-0.2-1.3,0.1c-0.3,0.3-0.6,0.8-1,1c-0.8,0.5-1.9-0.1-2.7,0.3c-0.3,0.1-0.6,0.4-0.9,0.6
				c-1.2,1-2.6,1.6-4,2.3c-0.6,0.3-1.2,0.6-1.9,0.6c-0.1,0-0.2,0-0.3,0c-0.5,0-1-0.1-1.5-0.1c-0.9,0-1.9,0.1-2.7,0.5
				c-1.8-0.6-3.2-1.8-4.2-3.4c-0.4,1.2-1.4,2.2-2.6,2.6c0.4-0.3,0.1-1.1-0.5-1.2c-0.5-0.1-1,0.3-1.4,0.7c-0.4,0.4-0.6,0.9-1.1,1.2
				c-0.9,0.6-2.1,0.3-3.2,0.3c-1.1,0-2.4,0.6-2.3,1.7c-0.4,0.1-0.8,0.2-1.3,0.3c0.1,1.7-0.1,3.4-0.5,5.1c-0.8-0.7-2,0.4-2.3,1.4
				c-0.3,1-0.5,2.3-1.5,2.7c-0.5,0.2-1.1,0.1-1.6,0.4c-0.4,0.3-0.6,0.8-1,1.1c-0.5,0.4-1.2,0.3-1.9,0.4c-1.9,0.3-3,2.3-3.8,4
				c-0.3,0.7-0.7,1.5-0.3,2.2c0.3,0.5,0.9,0.8,1.3,1.2c0.5,0.4,0.8,1.1,0.3,1.5c-0.6,0.6-1.8-0.4-2.6,0.1c-0.3,0.2-0.4,0.5-0.7,0.8
				c-0.4,0.4-1.1,0.3-1.6,0c-0.5-0.3-0.8-0.9-1.1-1.4c-0.3,0.9-1.7,0.9-2.2,1.7c-0.1,0.3-0.1,0.6-0.1,1c0,1.1,0,2.2,0,3.3
				c1.4,0.1,2.7,1.2,3.1,2.5c-0.9,0-1.7-0.1-2.5-0.4c-0.4,2.4-0.8,4.7-1.2,7.1c-0.3,0.5-1,0.2-1.4-0.1c-0.4-0.3-0.9-0.8-1.3-0.6
				c-0.6,0.2-0.4,1.2,0,1.6c0.5,0.4,1.1,0.7,1.5,1.2c0.5,0.6,0.3,1.5,0.2,2.2c-0.8-0.2-1.6,0.5-1.8,1.3c-0.2,0.8,0.1,1.6,0.4,2.4
				c0.1,0.3,0.2,0.5,0.5,0.7c0.3,0.2,0.7,0.2,1.1,0.2c2.5,0.2,4.1,2.7,5.2,4.9c0.3,0.5,0.6,1.1,1.1,1.4c0.4,0.2,0.8,0.2,1.2,0.4
				c1.2,0.6,1.5,2.4,2.6,3.2c0.7,0.5,1.7,0.6,2.5,0.9c0.8,0.3,1.6,1.2,1.2,2c-0.2,0.1-0.5,0.3-0.7,0.4c-0.1,0.8,0.6,1.7,1.4,1.7
				c0.1,0.7-0.3,1.5-1,1.8c0.4,1.4,2.3,2.2,3.6,1.6c-0.5-0.8-0.6-1.9-0.2-2.8c0.2-0.3,0.4-0.6,0.4-1c0.2-0.7-0.3-1.4-0.6-2.1
				c-0.8-1.7-0.7-3.7,0-5.3c-0.2-0.1-0.4-0.4-0.3-0.6c-0.4,0.2-0.9,0.3-1.1,0c-0.3-0.4,0.2-0.9,0.5-1.3c0.3-0.4,0.3-1.3-0.2-1.2
				c-0.2,0.4-1,0.3-1.2-0.1c-0.2-0.4-0.1-1,0-1.4c0.1-0.5,0.2-1,0-1.4c-0.2-0.3-0.5-0.5-0.7-0.9c-0.5-0.9,0.5-1.9,1.4-2.3
				c0.9-0.4,2-0.6,2.5-1.5c0.3-0.5,0.3-1.1,0.5-1.6s0.9-0.9,1.4-0.6c0.1-1.4-1.3-2.7-2.7-2.5c0-0.7,1-0.7,1.5-1.2
				c0.4-0.5,0.1-1.2-0.1-1.7c-0.6-1.3-1.2-2.6-1.8-3.9c-0.3-0.7-0.6-1.4-0.3-2.1c0.2-0.3,0.5-0.6,0.8-0.8c0.9-0.6,1.8-1.1,2.9-1.1
				c1,0,2.2,0.5,2.5,1.5c0.4-0.6,1-1.1,1.7-1.2c0.3-0.1,0.6-0.1,0.8-0.3c0.6-0.6-0.2-2,0.6-2.2c0.2,0,0.4,0,0.6,0
				c1.5,0.3,3-1.1,2.9-2.6c-0.1-0.8-0.5-1.6-0.4-2.4c0.1-1,1-1.6,1.2-2.5c0.4-1.3-0.4-2.8,0.1-4c0.1-0.2,0.2-0.3,0.4-0.4
				c0.8-0.4,1.4,1.1,2.2,1c0.3-1,0.9-1.9,1.5-2.7c0.2-0.2,0.4-0.5,0.7-0.4c0.3,0,0.5,0.4,0.7,0.6c0.5,0.6,1.6,0.7,2.3,0.2
				c0.7-0.5,1-1.4,1-2.2c0-0.5-0.2-1.2,0.1-1.6c0.4-0.6,1.4-0.4,1.9,0.1c0.5,0.5,0.5,1.3,0.6,2c1,0,1.7-1.1,1.6-2.1
				c0-1-0.6-1.9-1.1-2.7c-0.1-0.3-0.3-0.5-0.3-0.8c0-0.3,0.2-0.6,0.4-0.9c0.3-0.4,0.6-0.9,0.9-1.2c0.1-0.1,0.3-0.2,0.4-0.3
				c0.6-0.4,1.4-0.4,1.9,0c0.5,0.5,0.3,1.5-0.3,1.6c-0.3,0.1-0.7-0.1-0.9,0c-0.5,0.2-0.5,0.9-0.1,1.3c0.3,0.4,0.9,0.5,1.4,0.7
				c0.5,0.2,1,0.5,1.1,1.1c0.1,0.8-0.9,1.6-0.5,2.4c1.1-0.3,2.4-0.9,3.3-1.5c-0.3,0.1-0.5-0.5-0.2-0.8c0.6-0.8,2-0.3,2.7,0.4
				c0.3-0.6,0.7-1.2,1.2-1.6c0.5-0.4,1.3-0.5,1.9-0.3c0.4,0.2,0.7,0.5,1,0.8c0.3,0.3,0.7,0.5,1.1,0.5c0.4-0.1,0.8-0.6,0.5-0.9
				c-0.1-0.2-0.3-0.3-0.3-0.5c0-0.1,0.2-0.2,0.4-0.2c1.1-0.1,2.3,0,3.3,0.4c0.7-1.2,1.7-2.6,3.1-2.4c0.5,0.1,1,0.4,1.5,0.5
				c0.9,0.3,1.8,0.2,2.7,0.2c1.8-0.1,3.5-0.3,5.3-0.5c0.4-0.1,0.9-0.1,1.3-0.1c0.3,0,0.6,0,1,0.1c0.8,0.2,1.4,0.8,1.9,1.3
				c0.1,0.1,0.2,0.2,0.4,0.2c0.2,0,0.3-0.1,0.5-0.2c1-0.4,2.1,0.6,3.2,0.4c0.6-0.1,1-0.6,1.3-1c0.4-0.4,0.8-0.9,1.4-1
				c0,0,0.1,0,0.1,0c0.5,0,1.1,0.5,0.9,1c0.9,0,1.8-0.2,2.5-0.7c0.9-0.7,1.5-2,2.7-1.9c1.2,0.1,1.6,1.7,2.7,2.2
				c0.8,0.3,1.7-0.1,2.5-0.1c1,0,2,0.5,2.5,1.4c0.7-0.6,1.3-1.1,2.1-1.5s1.7-0.5,2.5-0.2c0.7,0.3,1.2,0.8,1.8,1.3
				c1.4,0.9,3.1,1.1,4.8,1c-0.3-0.3,0-0.8,0.3-1c0.4-0.2,0.8-0.1,1.2-0.1c0.4,0,0.8,0,1.2-0.3c0.1-0.1,0.2-0.3,0.4-0.4
				c0.2-0.1,0.3-0.1,0.5-0.1c0.5,0,1.1,0.1,1.6,0.3c0.5,0.2,0.9,0.8,0.8,1.3c0.4,0.3,1,0.2,1.3-0.2c0.2-0.4,0-1-0.4-1.2
				c-0.2-0.1-0.4-0.1-0.6-0.2c-0.5-0.3-0.5-1.1-0.2-1.6c0.7-1.1,2.4-1.5,3.5-0.8c0.5,0.3,1,0.7,1.5,0.5c0.2-0.1,0.3-0.2,0.4-0.3
				c0.2-0.1,0.5-0.2,0.8-0.2c1.3-0.1,2.6-0.1,4-0.2c0.3,0,0.7,0,1-0.2c0.3-0.1,0.5-0.4,0.6-0.6c0.5-0.6,1-1.2,1.5-1.8
				c0.5-0.5,0.9-1.1,1.1-1.8c0.2-0.8-0.1-1.6-0.3-2.3c-0.1-0.8-0.1-1.7,0.6-2.2c0.7-0.5,1.7-0.1,2.5-0.3c0.2-0.1,0.4-0.2,0.5-0.4
				c0.2-0.3,0.1-0.7-0.1-1.1c-0.3-0.8-0.6-1.5-0.9-2.3c-0.2-0.5-0.4-1.1-0.9-1.4c-0.5-0.4-0.9-0.6-1.4-1c-0.9-0.8-2.5-1.7-2.9,0
				c-0.1,0.5,0.3,1,0.3,1.6c0,0.6-0.6,1.2-1.2,0.6c-0.1-0.1-0.2-0.2-0.2-0.4c-0.2-0.3-0.4-0.5-0.6-0.7c-0.1-0.1-0.3-0.3-0.5-0.3
				c-0.2,0-0.4,0-0.5,0c-0.6,0.1-1.2,0.3-1.7,0.5c-0.2,0-0.3,0.1-0.5,0.2c-0.4,0.4-0.1,1.3-0.6,1.6c-1.2,0.6-2.5,1.3-3.7,0.5
				c-0.3,1.5-2.6,2.2-2.5,3.8c0,0.4,0.2,1-0.2,1.2c-0.3,0.2-0.7,0-1-0.2c-0.3-0.2-0.8-0.2-1,0.1c0-0.3,0-0.7-0.1-1
				c-0.1-0.3-0.5-0.5-0.8-0.4c-0.1,0.8-0.2,1.5-0.3,2.2c0,0.2-0.1,0.5,0.1,0.7c0.2,0.3,0.7,0.3,0.8,0.6c0.1,0.2,0.1,0.5,0,0.7
				c-0.1,0.6-0.2,1.1-0.3,1.7c-0.1,0.4-0.1,0.8-0.3,1.1c-0.2,0.3-0.6,0.5-1,0.4c-0.8-0.3-0.5-1.6-1.1-2.2c-0.5-0.4-1.3-0.2-1.7-0.7
				c-0.1-0.1-0.1-0.3-0.2-0.5c-0.5-1-1.9-1.3-2.8-0.6c-0.2,0.2-0.4,0.5-0.7,0.5c-0.2,0-0.4-0.1-0.6-0.1c-1.6-0.8-3.5-1.3-5.3-1
				c-0.7,0.1-1.4,0.3-2.1,0.2c-0.6-0.1-1.3-0.3-1.6,0.2c-0.1,0.2-0.1,0.6-0.3,0.7c-0.1,0.1-0.3,0.1-0.5,0.1c-1.1,0-2.2,0.1-3.3,0.1
				c-0.2,0-0.3,0-0.5,0.1c-0.1,0.1-0.1,0.3-0.2,0.5c-0.2,0.6-1,0.8-1.7,0.7s-1.4-0.2-1.9,0.2c-0.8,0.5-0.7,1.7-1.4,2.3
				c-0.3,0.2-0.6,0.3-0.9,0.3c-0.5,0-1-0.2-1.4-0.3c-0.2,0-0.3-0.2-0.3-0.5c-0.1-0.2-0.1-0.5-0.1-0.8c-0.2-0.7-0.9-1.2-1.6-1.2
				c-0.7-0.1-1.4,0.2-2,0.5c-0.4,0.2-0.7,0.4-1.1,0.5C867.7,308.2,867.2,308.1,867,307.8z M1091.4,627.1
				c-12.8,3.5-25.7,7.1-38.5,10.6c-10.9,3-21.8,6-33,7c-9.8,0.9-19.7,0.3-29.5-0.4c-25.7-1.7-50.5-6.7-76.4-5.1
				c-15.3,0.9-31.2,2.7-43,13.6c-7.2,6.6-11.3,15.7-16.8,23.7c-6.9,10.1-16,18.5-25.2,26.5c-4.2,3.6-7.7,6-10.9,10.8
				c-3,4.5-5.5,9.2-9.2,13.2c-3.5,3.8-7.7,6.6-11.9,9.5c-5.8,4-11.7,7.9-17.5,11.9c-4.3,2.9-8.6,5.8-11.8,9.8
				c-3.3,4.1-5.4,9-8.2,13.4c-9,13.8-26.3,23.1-41.1,29.1c-7,2.9-14.6,4.4-21.5,7.6c-4.9,2.3-9.4,5.3-14.4,7.5
				c-7.7,3.4-16.1,4.4-24.4,4.6c-7.4,0.2-15.1,0.7-22.5,0.3c-26.5-1.6-49.7-19-67-39.2c-5.4-6.2-10.5-13-13.1-20.7
				c-2.4-7-2.7-14.5-2.1-21.9c0.8-10.9,6-20.8,8.7-31c2.5-9.1,7-14.9,15.6-19.7c7.6-4.2,16.1-6.8,23.6-11.2c2.4-1.4,4.8-3.1,6.2-5.5
				c1.9-3.2,1.8-7.2,1.6-11c-0.7-16.9,1.2-38.4-10.5-52.2c-2.4-2.8-5.2-5.2-7.7-7.9c-2.1-2.3-4-4.9-6.3-7.1
				c-7.6-7.1-17.5-6.6-27.1-6.8c-4.8-0.1-10.3,0.3-14.9-0.9c-5-1.3-9.2-4.5-13.2-7.7c-5.9-4.6-11.9-9.4-15.2-16
				c-1.6-3.3-2.5-7-3.9-10.4c-1.9-4.6-4.7-8.7-7.5-12.7c-7.7-11-15.3-22.1-22.9-33.1c-2.6-3.8-5.3-7.6-8.5-11
				c-4.4-4.8-9.6-8.6-14.9-12.5c-8.3-6.1-17-12.3-27.1-14.1c-12.9-2.3-25.1,3-37.5,8.1c0-0.6,0-1.1-0.2-1.7
				c-0.3-0.7-0.8-1.2-1.6-1.4c-0.1-0.8-0.8-1.4-1.6-1.4c-0.5,0-1,0.1-1.3-0.1c-0.6-0.5-0.2-1.6-0.7-2.1c-0.2-0.2-0.5-0.2-0.7-0.2
				c-1.2-0.1-2.4,0.3-3.3,1l0.1,0.1c-0.3,0.2-0.5,0.7-0.6,1c-0.6,1.2-2.1,1.9-2.4,3.2c-0.1,0.3,0,0.6-0.2,0.9
				c-0.1,0.2-0.3,0.3-0.5,0.4c-1.2,0.9-0.6,2.9-1.5,4.1c-0.2,0.3-0.6,0.6-0.8,0.9c-0.2,0.4-0.3,0.8-0.4,1.2
				c-10.9,3.2-22.5,4.1-33,8.6c-9.4,4.1-17.1,10.8-27.3,13.3c-1.3,0.3-2.6,0.6-3.9,0.8c0-0.1,0-0.3-0.1-0.4c-0.7,0.2-1.4-1-2-0.6
				c-0.2,0.1-0.4,0.4-0.6,0.3c0.4-1.2-0.1-2.6-1.2-3.3c-0.8-0.5-1.2-0.8-1.8-1.5c-0.7-0.9-1.5-1.7-2.4-2.4c-1.9-1.7-4-3.5-5.8-5.3
				c-0.6-0.6-1.1-1.2-1.6-1.9c-0.6-0.7-1.1-1.5-1.2-2.5c0-0.3,0-0.5,0.1-0.8c0.1-0.2,0.2-0.3,0.3-0.4c0.1-0.2,0.1-0.4,0.1-0.7
				c0.1-1.9,0.1-3.9,0.1-5.8c0-0.3,0-0.7-0.2-1c-0.2-0.4-0.6-0.7-0.7-1.2c-0.1-0.4,0.1-0.9-0.1-1.2c-0.2-0.3-0.5-0.4-0.8-0.5
				c-0.3-0.1-0.6-0.5-0.5-0.8c0.1-0.2,0.2-0.2,0.3-0.4c0.3-0.5-0.4-1.2-0.1-1.8c0.1-0.2,0.2-0.3,0.3-0.4c0.6-0.8,0.1-1.9,0.5-2.7
				c0.1-0.1,0.1-0.2,0.1-0.4c0-0.1-0.1-0.2-0.1-0.3c-0.6-1-1.4-2.1-2.5-2.4c-0.8-0.2-1.5,0.1-2.2,0c-0.7-0.1-0.8-0.7-1.5-0.8
				c-0.5-0.1-1,0.1-1.4,0.3c-0.9,0.3-1.9,0.4-2.8,0.3c-0.4-0.1-0.9-0.2-1.3-0.2c-0.8,0-1.5,0.3-2.3,0.4c-1.2,0.3-2.6,0.1-3.7-0.5
				c-0.6-0.3-1.2-0.7-1.8-0.6c-0.4,0.1-0.7,0.3-0.9,0.5c-0.4,0.3-0.7,0.6-1.1,0.9c-0.6,0.5-1.3,1.1-2.1,1.2c-0.2,0-0.5,0.1-0.7,0.2
				c-0.2,0.2-0.2,0.7-0.4,1c-0.2,0.3-0.6,0.3-0.8,0.6c-0.2,0.2-0.2,0.6-0.3,0.9c-0.2,0.5-0.8,0.8-1.2,1.2c-0.5,0.5-0.6,1.3-0.8,1.9
				c-0.3,0.8-0.7,1.3-1.1,1.9c-0.3,0.4-2.4,2.8-1.4,3.2c0.4,0.1,0.8-0.1,0.9-0.5c0-0.2,0-0.4,0.1-0.5c0.1-0.1,0.2-0.1,0.3-0.1
				c0.8,0,1.5,0.4,1.9,1c0.2,0.3,0.3,0.7,0.1,1.1c-0.1,0.2-0.2,0.4-0.3,0.5c-0.5,0.9-0.3,2.1-0.7,3c-0.2,0.6-0.7,1-0.9,1.6
				c-0.1,0.3-0.2,0.7-0.3,1c-0.1,0.3-0.4,0.6-0.8,0.5c0.1,0.6-0.1,1.3-0.5,1.8c-0.2,0.3-0.6,0.6-0.6,0.9c0,0.5,0.6,0.8,0.8,1.3
				c0.1,0.5,0,1.1-0.1,1.6c0,1.3,0.1,2.5,0.5,3.8c0.2,0.7,0.5,1.4,0.5,2.1c0,0.8-0.6,1.6-1.3,2c-0.1,0.1-0.2,0.1-0.3,0.1
				c-0.1,0-0.3,0.1-0.4,0c-0.1-0.1-0.1-0.2-0.1-0.3c-0.2-0.8-0.3-1.6,0.2-2.2c0.1-0.1,0.2-0.2,0.2-0.3c0.3-0.5,0-1.1-0.3-1.5
				c-0.4-0.4-0.8-0.8-0.9-1.3c-0.1-0.5,0.1-1,0.1-1.5c0.2-1.4-0.3-2.7-0.7-4c-0.3-1.2-0.6-2.3-1.5-3.2c-0.2-0.2-0.4-0.4-0.6-0.6
				c-0.3-0.4-0.4-1-0.8-1.2c-0.2-0.2-0.6-0.2-0.8-0.3c-0.7-0.3-1-1.2-0.7-1.8c0.3-0.6,0.9-0.9,1.2-1.4c0.2-0.4,0.3-0.9,0.3-1.4
				c0-0.6,0.1-1.1,0.1-1.7c-0.3,0.3-0.8,0.1-1.1-0.2c-0.3-0.3-0.5-0.7-0.8-0.9c-0.2-0.2-0.5-0.2-0.8-0.4c-0.4-0.2-0.9-1.6-0.7-2
				c0.2-0.4,0.7-0.6,0.9-1c0.2-0.4,0.1-1,0.3-1.4c0.3-0.6,0.7-0.9,0.8-1.6c0.1-0.5,0-1.1,0.1-1.6c0.2-0.9,0.2-1-0.5-1.8
				c-0.2-0.3-0.4-0.6-0.2-0.9c0.2-0.3,0.6-0.4,0.5-0.8c0-0.2-0.2-0.2-0.3-0.3c-0.7-0.5-0.9-1.6-0.5-2.3c0.2-0.4,0.6-0.7,0.8-1.1
				c0.2-0.4,0-1.1-0.5-1.1c0-0.2,0.3-0.4,0.5-0.4c0.2,0,0.4,0,0.7,0c0.8,0,1.3-0.8,1.7-1.5c0.6-1,1.4-2,2.4-2.7
				c0.2-0.1,0.4-0.3,0.4-0.5c0.1-0.2,0.1-0.4,0.1-0.6c0-0.8,0-1.5,0.5-2.1c1-0.1,1.4-1.2,1.6-2.2c0-0.3,0.1-0.6,0.3-0.7
				c0.1-0.1,0.2-0.1,0.3-0.2c0.1-0.1,0.1-0.2,0.1-0.4c0.1-0.9,0.2-1.9,0.4-2.8c0.1-0.7,0.2-1.5,0-2.2c0.2,0,0.3,0,0.5,0
				c0.3,0.6,0.5,1.3,0.4,1.9c0.4-0.1,0.8-0.2,1.2-0.4c-0.1-1.5-0.3-3.2-1.5-4.1c-0.3-0.2-0.7-0.4-1-0.7c-0.3-0.2-0.5-0.5-0.7-0.7
				c-0.8-0.9-1.8-1.6-2.9-2c-0.5-0.2-1.1-0.3-1.6-0.4c-1-0.2-2.2-0.3-2.7,0.5c-0.1,0.1-0.1,0.2-0.2,0.3c-0.1,0-0.2,0.1-0.3,0.1
				c-0.8,0.1-1.7-0.3-1.4-1c0.3-0.7,0.3-1.6,0.1-2.4c0-0.1-0.1-0.3-0.2-0.4c-0.1-0.1-0.3-0.1-0.5-0.1c-0.9,0-1.9-0.1-2.8-0.1
				c-0.7,0-1.4,0-2,0.4c-0.3,0.2-0.5,0.7-0.9,0.8c-0.6,0.2-1.2-0.4-1.6-1c-0.4-0.6-0.7-1.2-1.1-1.8c-0.6-1-1.1-2-1.5-3.1
				c-0.1-0.4-0.2-0.8-0.3-1.1c0-0.3,0-0.5-0.1-0.8c-0.2-1-0.8-1.9-1.7-2.4c0.1-0.6,0.4-0.8,0.5-1.4c-0.2-0.3-0.1-0.7-0.1-1.1
				c0-0.4-0.3-0.8-0.7-0.7c-0.2,0-0.4,0.3-0.6,0.4c-0.6,0.2-1.1-0.6-1.7-0.5c-0.3,0-0.6,0.3-0.9,0.4c-0.7,0.2-1.3-0.3-2-0.4
				c-0.9-0.1-1.7,0.4-2.6,0.2c-0.6-0.1-1.1-0.6-1.5-1.1c-0.1-0.1-0.2-0.2-0.2-0.3c-0.1-0.5,0.6-0.7,0.9-1.1c0.2-0.2,0.2-0.5,0.2-0.7
				c0.4-2.3,2.2-4.4,1.8-6.7c-0.1-0.6-0.3-1.1-0.4-1.7c-0.2-1.2-0.1-2.7-1-3.5c-0.1-0.1-0.3-0.2-0.4-0.4c-0.1-0.2-0.2-0.4-0.3-0.6
				c-0.2-0.6-0.6-1.2-1-1.6c-0.3-0.3-0.6-0.6-0.8-1c-0.2-0.5-0.1-1.1-0.2-1.6c-0.1-0.9-0.4-1.8-1.2-2.2c-0.1-1.7-0.2-3.4-0.3-5.1
				c0-0.4-0.1-0.9-0.4-1.1c-0.1-0.1-0.4-0.2-0.5-0.4c-0.4-0.5,0.1-1.2,0-1.8c0-0.5-0.4-0.9-0.8-1.1c-0.4-0.2-0.9-0.2-1.4-0.2
				c-0.2-0.5,0-1,0.3-1.4c0.1-0.1,0.3-0.2,0.4-0.4c0.1-0.2,0-0.5-0.1-0.7c-0.1-0.6,0.4-1.2,0.6-1.8c0.3-0.9,0-2-0.8-2.6
				c-0.3-0.2-0.6-0.4-0.9-0.6c-0.4-0.3-0.7-0.6-0.9-1c-0.7,0-1.3,0-2,0.1c0.5-1.6-1.5-1.5-2.4-1.8c-0.6-0.2-1.1-0.8-1.7-1.1
				c-0.5-0.2-1.1-0.2-1.7-0.3c-1-0.2-1.9-0.7-2.7-1.3c-0.4-0.3-0.9-0.6-1.2-1c-0.4-0.7-0.3-1.5-0.2-2.3c0-0.2,0.1-0.4,0.2-0.5
				c0.1-0.1,0.2-0.2,0.3-0.3c0.4-0.4,0.5-1.1,0.4-1.6c0-0.9-0.1-1.9,0.6-2.5c0.3-0.3,0.7-0.4,0.9-0.7c0.4-0.4,0.4-1.1,0.9-1.3
				c0.2-0.1,0.3-0.1,0.5-0.1c0.5,0,1.1,0,1.6,0c0.5,0,1.1,0,1.3,0.4c0.1,0.1,0.1,0.3,0.3,0.4c0.1,0.1,0.3,0.2,0.4,0.2
				c1.2,0.2,2.5,0.3,3.7,0.2c0.2,0,0.4,0,0.5,0.1c0.1,0.1,0.1,0.2,0.2,0.4c0.2,0.4,0.9,0,1.2,0.2c0.2,0.1,0.4,0.4,0.5,0.6
				c0.1,0.2,0.4,0.5,0.7,0.4c0.1-0.1,0.2-0.2,0.3-0.3c0.4-0.5,1-0.8,1.6-0.7c0.5,0.1,0.9,0.4,1.3,0.8c0.9,0.7,1.8,1.5,2.3,2.5
				c0.4,0.8,0.6,1.7,1.3,2.2c0.5,0.4,1.1,0.4,1.7,0.6c0.6,0.2,1.2,0.6,1.2,1.2c0.6-0.2,1.2-0.6,1.7-1.1c0.3-0.3,0.6-0.7,0.9-0.9
				c0.3-0.2,0.7-0.3,1-0.4c0.5-0.1,1-0.1,1.4,0.1c0.4,0.2,0.7,0.8,0.4,1.2c0.6-0.2,1.3,0,1.9,0.4c0.6,0.3,1.1,0.8,1.8,0.8
				c0.7,0,1.3-0.7,1-1.3c-0.4-0.8-1.8-0.3-2.3-1c-0.2-0.3-0.1-0.7,0-1.1c-0.4-0.6-1.2-0.8-1.9-0.5c-0.3,0.1-0.6,0.3-0.9,0.4
				c-0.8,0.2-1.6-0.6-1.7-1.4c-0.2-0.8,0-1.7-0.2-2.5c-0.3-1.7-1.8-2.9-3.3-3.7c-0.2-0.1-0.4-0.2-0.5-0.4c-0.1-0.2-0.1-0.4-0.2-0.7
				c-0.2-0.7-1-1.2-1.8-1c-0.1-0.9-0.2-1.9,0.2-2.7c0.2-0.4,0.6-0.8,0.6-1.2c0-0.2-0.2-0.5-0.2-0.7c-0.1-0.7,0.7-1.2,1.4-1.2
				c0.7-0.1,1.4,0.1,2-0.2c0.5-0.2,0.8-0.6,1.3-1c0.4-0.3,1-0.6,1.5-0.4c0.6,0.2,0.8,0.9,0.9,1.5c0.3,0.2,0.7,0,0.8-0.4
				c0.1-0.3,0-0.7-0.1-1c-0.2-0.6-0.5-1.1-0.6-1.7c-0.1-0.6,0-1.2,0.4-1.7c0.4-0.5,1.1-0.7,1.3-1.2c0.1-0.2,0.1-0.5,0.3-0.7
				c0.1-0.2,0.4-0.3,0.6-0.4c0.2-0.2,0.3-0.4,0.5-0.6c0.9-1.2,2.1-2.2,3.5-2.8c0.1,0.5,0.4,0.9,0.8,1.2c0.5-0.4,1.2-0.4,1.8-0.1
				c0.2,0.1,0.5,0.3,0.8,0.3c0.2-0.1,0.4-0.3,0.5-0.5c0.7-0.8,2.1-0.7,2.7-1.6c0.3-0.5,0.3-1.1,0.8-1.4c0.4-0.3,1.1,0,1.4,0.4
				c0.3,0.4,0.4,1,0.4,1.5c0.7,0.1,1.4,0.4,1.9,1c0.4,0.5,1,1.5,1.6,1.2c0.4-0.2,0.4-1.1,0.9-1c0.1,0,0.2,0.1,0.3,0.2
				c0.5,0.5,1.2,0.7,1.9,0.6c0.3,0,0.6-0.1,0.9,0c0.2,0.1,0.4,0.2,0.6,0.3c0.5,0.2,1.1-0.1,1.7-0.3c2.1-0.7,4.4,0.7,6.6,0.5
				c0.4,0,1,0,1,0.4c1,0,1.9,0.3,2.7,0.9l0.6,0.4c-0.3,0.3-0.1,0.8,0.1,1.1c0,0.1,0.1,0.2,0.2,0.2c0.1,0.1,0.2,0,0.4,0
				c1.3-0.2,2.6,0.3,3.5,1.2c0.1,0.1,0.2,0.2,0.4,0.3c0.3,0.1,0.6-0.1,0.9-0.1c0.7-0.2,1.4,0.2,2,0.5c0.7,0.3,1.4,0.6,2.2,0.8
				c0.4,0.1,0.8,0.3,1.2,0.4c0.8,0.1,1.5-0.1,2.3-0.3c0.4-0.1,0.8-0.3,1-0.6c0.3-0.5,0-1.1-0.5-1.4c-0.5-0.3-1-0.3-1.6-0.3
				c-0.5,0-1.1,0-1.6-0.2c0.5-1.8-1.7-1.1-2.4-1.6c-0.6-0.4-1-1.3-1.5-1.8c-0.5-0.5-1.1-1-1.9-1.2c-0.3-0.1-0.6-0.2-0.9-0.4
				c-0.2-0.1-0.3-0.3-0.4-0.5c-0.3-0.5-0.7-1-1-1.5c-0.1-0.2-0.3-0.4-0.3-0.6c0-0.2,0-0.4,0.1-0.5c0.1-0.2,0.4-0.4,0.6-0.6
				c0.5-0.6-0.4-1.6-0.1-2.3c0.4-0.1,0.9-0.1,1.3-0.2c0.8-0.6,1.4-1.5,1.8-2.5c0.1-0.3,0.2-0.6,0.4-0.8c0.6-0.6,1.7-0.2,2.3-0.7
				c0.2-0.2,0.4-0.5,0.5-0.8c0.7-1.4,1.4-2.9,2-4.3c0.3,0.6,1.3,0.3,1.6-0.4c0.3-0.6,0.1-1.4,0.2-2.1c0.3-1.7,2.2-3.1,1.8-4.7
				c-0.1-0.2-0.2-0.5-0.2-0.8c0-0.2,0.2-0.5,0.4-0.6c0.9-1.1,1.2-2.5,1-3.9c0.2-0.1,0.5-0.1,0.7-0.1c-0.9-2-1.6-4.1-1.3-6.3
				c-0.6,0.3-1.4,0.4-2.1,0.4c0-1,0.5-1.9,1.3-2.5c0.1-0.1,0.2-0.1,0.4-0.1c0.2,0,0.2,0.4,0.4,0.6c0.2,0.2,0.6,0.1,0.8-0.1
				c0.2-0.2,0.3-0.6,0.4-0.9c0.4-0.8,1.3-1.1,2-1.6c0.7-0.5,1.2-1.6,0.6-2.2c-0.4-0.4-1-0.4-1.5-0.7c-0.8-0.5-0.8-1.7-0.7-2.6
				c0.2-1.4,0.2-3-1-3.7c-0.3-0.2-0.7-0.3-1.1-0.5c-0.7-0.4-1.1-1.1-1-1.9c-0.8-0.1-1.7-0.2-2.5-0.1c-1.6,0-3.4,0.1-4.8-0.7
				c-0.9-0.5-1.5-1.2-2.2-1.8c-0.3-0.3-0.7-0.6-1.1-0.5c-0.2,0.1-0.4,0.3-0.6,0.5c-0.6,0.9-1.1,1.8-1.7,2.6
				c-0.1,0.2-0.3,0.5-0.5,0.6c-0.3,0.2-0.7,0.2-1,0.1c-1.1-0.1-2.2-0.1-3.3-0.2c0.6,0.5,1,1.5,0.8,2.3c-1.2-0.4-2.3-0.7-3.5-1.1
				c-0.2-0.1-0.4-0.1-0.5-0.3c-0.1-0.1-0.1-0.3-0.1-0.4c-0.1-0.2-0.3-0.4-0.4-0.6c-0.7-0.9-0.7-2.1-0.6-3.3
				c-0.4,0.6-0.8,1.2-1.1,1.7c-0.3,0.4-1,1.2-1.4,0.8c0.2-0.3-0.3-0.5-0.6-0.8c-0.4-0.5,0.2-1.4-0.3-1.8c-0.2,0.3-0.6,0.5-0.9,0.4
				c-0.4,0-0.7-0.2-1-0.4c-0.3-0.2-0.6-0.4-0.8-0.7c-1.1-1.2-1-3.1-0.9-4.7c-0.6-0.1-1.3,0.4-1.4,1c-0.1,0.3,0,0.7,0,1
				c0,0.4-0.2,0.7-0.5,0.8c-0.4,0.1-0.8-0.3-0.9-0.8c-0.1-0.4-0.1-0.9-0.3-1.3c-0.3-0.6-0.9-0.9-1.5-1.1c0.2-0.5-0.2-1-0.7-1.2
				c-0.5-0.2-1-0.2-1.5-0.4c-0.3-0.1-0.5-0.4-0.8-0.5c-0.9-0.5-2.2-0.3-3-1.1c-0.1-0.2-0.3-0.4-0.5-0.4c-0.4-0.1-0.6,0.3-0.9,0.6
				c-0.2,0.3-0.5,0.7-0.8,0.5c-0.4,0.5-1.2,0.5-1.9,0.4c-0.7-0.1-1.4-0.3-2,0c-0.3,0.1-0.6,0.4-0.9,0.5c-0.5,0.2-1,0.1-1.5,0.2
				c-0.5,0.1-1,0.4-1,0.9c0,0.2,0.1,0.4,0.1,0.6c0,0.5-0.6,0.9-1.2,0.8c-0.5-0.1-1-0.4-1.4-0.8c0,0.6-0.6,1-1.2,1
				c-0.6,0-1.1-0.3-1.6-0.6c0,0.7-0.5,1.2-1.2,1.5c-0.6,0.2-1.3,0.1-2,0c-0.5-0.1-1.2-0.3-1.2-0.8c-0.7,0.4-1.4,0.8-2.2,1.2
				c0.1,0.4-0.2,0.8-0.6,1c-0.4,0.2-0.8,0.4-1.1,0.7c-0.2,0.2-0.4,0.5-0.6,0.7c-0.5,0.4-0.9,0-1.4,0c-0.4,0-0.9,0.1-1.3,0.2
				c-1,0.3-1.9,0.8-2.6,1.6c-0.4,0.5-0.8,1.2-1.4,1.5c-0.7,0.4-1.7,0.3-2.3,0.9c-0.2,0.2-0.3,0.5-0.6,0.6c-0.7,0.4-1.6-0.4-2.3-0.1
				c0,0.3-0.1,0.6-0.1,0.9c-0.8,0.1-1.6-0.1-2.2-0.7c-0.3-0.2-0.6-0.5-0.9-0.3c-0.1,0.1-0.2,0.2-0.3,0.3c-0.6,0.5-1.7-0.8-2.2-0.2
				c0.3,0.3-0.2,0.8-0.6,0.8c-0.4-0.1-0.7-0.4-1.1-0.7c-0.9-0.7-2.1-0.7-3.2-0.5c-0.6-0.4-1.6,0.1-1.6,0.9c-0.3-0.1-0.6-0.2-0.9-0.3
				c0.5,1,0.6,2.3,0.1,3.4c-0.5,0-1.1,0.1-1.5,0.5c0.1-0.4-0.3-0.7-0.6-0.8c-0.4-0.1-0.7,0.1-1.1,0.2c-0.1,1.2,0.3,2.5,1,3.5
				c0.1,0.2,0.3,0.4,0.3,0.6c0.1,0.3-0.1,0.7-0.4,0.8c-0.3,0.2-0.7,0.1-0.9-0.1c-0.1-0.1-0.2-0.3-0.4-0.4c-0.1,0-0.3,0-0.4,0
				c-0.5,0-0.9-0.4-1.1-0.8s-0.2-0.9-0.2-1.4c-0.5-0.2-0.9,0.4-1.1,0.8c-0.2,0.5-0.5,1-1,1.1c0,0.2,0,0.4,0,0.5
				c0.7-0.1,1.1,0.7,1.2,1.4c0.1,0.7-0.1,1.4-0.6,1.9c-0.5,0.4-1.5,0.3-1.7-0.4c-0.1-0.2,0-0.5-0.2-0.7c-0.3-0.4-0.9-0.1-1.3,0.1
				c-0.5,0.3-0.9,0.7-1.4,1c-0.8-0.1-1.5-0.2-2.3-0.2c-0.1,0.4-0.5,0.8-0.9,0.9c-0.4,0.1-0.9-0.1-1.2-0.5c-0.2-0.2-0.2-0.6-0.5-0.8
				c-0.4-0.3-1-0.1-1.5,0.2c-0.1,0.1-0.3,0.2-0.2,0.3c0,0.1,0.1,0.2,0.2,0.2c0.7,0.6,0.6,1.7,0.4,2.7c0,0.2-0.1,0.4-0.2,0.6
				c-0.3,0.4-1.2,0.3-1.3,0.8c0.6,0,1.4,0.1,1.6,0.6c0.3,0.7-0.4,1.5-0.1,2.2c-0.2,0.3,0.1,0.6,0.1,1c0.1,0.4-0.3,0.8-0.7,0.9
				c-0.4,0.1-0.8,0-1.2-0.1c0.2-0.7-0.2-1.5-0.6-2.1c-0.5-0.8-0.9-1.6-1.4-2.3c-0.2-0.3-0.7-0.7-1-0.5c-0.1,0.1-0.1,0.3-0.2,0.5
				c-0.2,0.4-0.7,0.4-1.1,0.4s-0.8-0.2-1.2-0.1c-0.8,0.2-0.9,1.3-1.7,1.6c-0.4,0.2-0.9,0.1-1.3,0.2c-0.8,0.1-1.6,0.8-1.8,1.6
				c0,0.2-0.1,0.4-0.2,0.5c-0.3,0.4-0.9,0.1-1.3-0.2c-0.2,0.4,0,1-0.2,1.4c-0.3,0.5-1.1,0.5-1.6,0.2c-0.5-0.3-1-0.8-1.6-0.9
				c-1-0.2-2.1,0.7-2.8,0.1c-0.2-0.1-0.3-0.4-0.5-0.4c-0.4,0-0.6,0.4-0.9,0.6c-0.6,0.2-1.2-0.6-1.8-0.5c-0.4,0.1-0.5,0.7-0.6,1.1
				c-0.1,0.9-0.4,1.7-0.8,2.4c-0.1,0.2-0.2,0.4-0.5,0.4c-0.3,0-0.4-0.4-0.4-0.6c0-1.1,0.2-2.3-0.4-3.1c-0.4-0.5-1.1-0.7-1.6-1.1
				c-0.4-0.4-0.7-0.9-1-1.3c-0.3-0.5-0.8-0.9-1.4-0.8c-0.4,0.4,0,1,0.2,1.6c0.2,0.4,0.2,0.8,0.2,1.2c0.1,1.1,0.1,2.2,0.2,3.3
				c0,0.3,0,0.6-0.1,0.9s-0.6,0.4-0.8,0.2c-0.1-0.1-0.1-0.3-0.1-0.4c-0.1-1-0.2-1.9-0.4-2.9c0-0.3-0.1-0.6-0.3-0.8
				c-0.5-0.4-1.3,0-1.8-0.3c-0.1,0.4,0.4,0.7,0.7,1c0.2,0.2,0.3,0.5,0.4,0.8c0.2,0.6,0.5,1.2,0.4,1.8c0,0.6-0.5,1.3-1.1,1.4
				c-0.1-0.5-0.3-0.9-0.5-1.4c-0.2,0.5,0.1,1,0.3,1.5c0.2,0.5,0.4,1.1,0,1.5c-0.3-0.2-0.8-0.3-1.1-0.1c-0.4,0.4,0.1,1.2-0.3,1.5
				c-0.2,0.1-0.4,0.1-0.6,0c-0.4-0.1-0.7-0.1-1.1,0c-0.3,0.1-0.6,0.4-0.6,0.8c0,0.3,0.3,0.6,0.3,1c0,0.5-0.4,0.8-0.8,1.1
				c-0.4,0.3-0.7,0.8-0.4,1.2c-0.4,0-0.6,0.5-0.7,0.9c-0.2,0.7-0.3,1.3-0.5,2c0,0.1-0.1,0.2-0.2,0.3c-0.4,0.3-0.9-0.5-1.3-0.3
				c-0.1,0.2-0.1,0.3-0.2,0.5c-0.2-0.2-0.3-0.4-0.5-0.2c-0.2,0.3-0.2,0.6-0.3,0.9c-0.3,1.2-0.9,2.3-1.6,3.4c-0.3,0.4-0.7,1-1.2,0.8
				c0.2,1.2-1,2.4-2.2,2c0.3,0.3,0.1,0.9-0.4,0.9c-0.4,0-0.7-0.3-0.7-0.7c-0.2,1.1-0.3,2.3-0.5,3.5c-0.1,0.5-0.2,1.1-0.6,1.3
				c-0.6,0.3-1.2-0.2-1.4-0.8c-0.2-0.6-0.1-1.2-0.1-1.9c0-0.6-0.2-1.3-0.7-1.6c0,0.9,0,1.8,0,2.8c0,0.3,0,0.6-0.1,0.8
				c-0.2,0.3-0.5,0.5-0.8,0.6c-1.5,0.7-3.1,1.4-4.7,1.9c-0.3,0.1-0.7,0.2-0.9,0.4c-0.2,0.2-0.3,0.5-0.5,0.7
				c-0.3,0.2-0.8,0.2-1.1,0.5c-0.2,0.3-0.1,0.9-0.4,1.2c-0.2,0.2-0.4,0.2-0.6,0.3c-0.3,0.3-0.1,0.8-0.1,1.2c0,0.7-0.5,1.2-0.8,1.8
				c-0.3,0.6-0.6,1.3-0.2,1.8c0.4-0.2,0.9,0.2,1.1,0.7c0.1,0.5,0,1,0,1.5c0,0.1,0,0.3,0.1,0.4c0.2,0.3,0.7,0.2,1.1,0.1
				c1.4-0.4,3,0.4,3.6,1.8c0.6,0,1.3,0,1.9-0.1c0.3,1.2,0,2.6,0.2,3.8c0.1,1.3,0.9,2.7,2.2,2.8c0.4,0,0.8-0.1,1.1,0.1
				c0.5,0.2,0.7,0.7,0.7,1.2c0,0.5-0.1,1-0.2,1.5c-0.2,2.3,1.7,4.5,1.5,6.8c-0.1,1.1,0.5,1.9,0.9,3c0.3,0.9,0.3,1.9,0.2,2.9
				c0,0.4,0,0.9-0.3,1.3c-0.2,0.4-0.7,0.6-1.1,0.4c0,0.6-0.1,1.2-0.1,1.7c0,0.2,0,0.3-0.1,0.5c-0.3,0.4-1,0.2-1.4,0.5
				c0,0.4,0,0.9-0.1,1.2c-0.2,0.4-0.6,0.7-1,0.6c0,1.1,0.3,2.2,0.6,3.3c0,0.1,0,0.1,0.1,0.2c0,0,0.1,0,0.1,0.1
				c0.5,0.1,1-0.3,1.1-0.8c0.2-0.5,0.2-1,0.3-1.5c0.2-0.7,0.8-1.4,0.4-2c0.6-0.4,0.9-1.2,0.9-1.9c0.4,0,0.8-0.5,0.8-0.9
				s0.1-0.9,0.3-1.3c0.5,0,0.8-0.6,1-1.1c0.4-1.1,1-2.1,1.6-3.1c0.3,0,0.7,0,0.7,0.3c0,0.1,0,0.2,0,0.3c0,0.4,0.5,0.5,0.9,0.5
				c0.4,0,0.8,0,1,0.3c0,0.1,0.1,0.3,0.1,0.4c0,0.7-0.9,1.2-1.6,1.4c-0.2,0-0.4,0.1-0.5,0.1c-0.5,0.2-0.6,0.9-0.5,1.5
				c-0.3-0.2-0.7,0.1-0.8,0.4c-0.1,0.3-0.1,0.7-0.2,1c-0.2,0.4-0.7,0.7-0.9,1.1c-0.2,0.4-0.1,0.8-0.2,1.2c-0.1,0.4-0.5,0.8-0.9,0.6
				c-0.2,0.5-0.4,1.1-0.7,1.6c0,0.1-0.1,0.2-0.1,0.2c-0.3,0.8-0.7,1.7-1.1,2.5c-0.1,0.3-0.2,0.6-0.4,0.8c-4-1.3-8.7,0.3-12.8-1.1
				c-5-1.8-7.2-7.4-8.9-12.5c-1.8-5.4-3.4-10.5-4.4-16.1c-2.9-16.8-5.5-35.2,3.2-49.8c9.2-15.5,27.2-20.9,43.6-25.1
				c13.8-3.5,27.2-2.7,41.4-5c15-2.4,29.7-6.6,44.6-9.8c25.4-5.5,53.4-7.9,75.9,5.1c7.3,4.2,13.7,9.9,20.1,15.5
				c17.4,14.9,36.2,29.3,58.5,34.9c5,1.2,10.2,2,15.3,1.2c6.4-1.1,12.1-4.8,17.6-8.3c7.8-5.1,15.4-11.7,24.7-13.6
				c10.2-2.1,20.8,1.1,31.2,1.2c12.4,0.2,24.3-3.9,36.6-5.4c11.8-1.4,23.7,0.9,35.4,2.1c32.8,3.4,65.9,6.8,98.5,2.1
				c17.3-2.5,34.2-7.2,50.7-12.9c14.7-5,28.4-11.5,43.7-13.6c33.7-4.6,69-19.4,100.2-32.5c29.9-12.6,59-27.4,89.8-37.8
				c21.4-7.2,43.7-10.5,65.6-15.5c-1.2,1-1.9,2.6-3.1,3.6c-0.5,0.4-1.2,0.7-1.6,1.2c-0.5,0.6-0.7,1.3-0.8,2
				c-0.3,1.3-0.3,2.4-0.3,3.7c0,0.9-0.3,2,0.5,2.7c0.2,0.1,0.4,0.3,0.6,0.4c0.3,0.3,0.3,0.7,0.3,1.1c0,0.7,0,1.4,0,2.1
				c0,0.2,0,0.4-0.1,0.6c-0.2,0.3-0.6,0.5-0.6,0.9c0,0.1,0,0.3,0.1,0.4c0.6,1.5,1.6,2.9,2.7,4c0.2,0.2,0.4,0.4,0.8,0.5
				c0.3,0.1,0.6,0,0.9-0.1c0.6-0.1,1.2,0.2,1.5,0.7c0,0,0.1,0.1,0.1,0.2c0,0.2-0.2,0.2-0.3,0.3c-0.6,0.2-0.9,0.9-1,1.5
				c-0.1,0.7,0.1,2.2-0.6,2.6c-0.3,0.2-0.7,0.2-1.1,0.2c-1.3,0-2.7,0-4,0c-0.1,0.5-0.2,1.1-0.3,1.6c-0.4-0.4-1.1-0.3-1.4,0.2
				c-0.2,0.4-0.3,1-0.7,1.1c-0.8,0.3-1.3-1.3-2.1-1c-0.6,0.2-0.3,1.2,0.2,1.7c0.7,0.7,1.4,1.5,2.4,1.5c0.4,0,0.8-0.2,1.2-0.1
				c0.5,0.1,0.8,0.4,1.1,0.7c0.3,0.2,0.5,0.5,0.8,0.8c0.6,0.6,1.2,1.1,2,1.2c1.3,0.1,2.5-1.2,3.7-0.7c0.4,0.1,0.7,0.5,1.1,0.6
				c0.8,0.2,1.6-0.3,2.4-0.4c1.7-0.2,3.3,1.5,5,1.1c0.1,0.7,0.1,1.5,0.2,2.2c0,0.2,0,0.5,0.2,0.6c0.2,0.1,0.4,0.1,0.6,0.1
				c0.8-0.1,1.7-0.3,2.5-0.3c1,0,1.9,0.2,2.9,0.3c0.4,0.1,0.7,0.1,1.1,0.3c0.3,0.1,0.5,0.3,0.8,0.5c1,0.7,2.2,1.2,3.4,1.6
				c0,0.3,0.1,0.6,0.1,0.9c0.6,0.4,1.5,0.3,1.9-0.3c0.3-0.6-0.4-1.6-1-1.2c-0.3,0-0.4-0.5-0.1-0.7c0.3-0.2,0.6-0.1,0.9,0
				c0.3,0.1,0.6,0.2,0.9,0c0.9-0.6-0.8-2.3,0-2.9c0.3-0.2,0.8-0.1,1-0.4c0.2-0.3-0.1-0.7-0.1-1.1c0-0.6,0.6-0.9,1.2-1.2
				c0.5-0.2,1.1-0.7,0.9-1.3c-1,0-2-0.5-2.6-1.2c-0.2-0.2-0.4-0.5-0.6-0.7c-0.3-0.2-0.6-0.3-1-0.3c-2.1-0.3-4.3-0.3-6.4,0.2
				c-0.2,0-0.5,0.1-0.7,0.1c-0.5,0-0.8-0.3-1.2-0.6c-0.8-0.6-1.7-1.1-2.6-1.3c-0.8-0.1-1.6,0.1-2.4,0c-0.8-0.1-1.7-0.7-1.6-1.5
				c-0.6,0.1-1.1,0.5-1.5,0.9c0-0.6-0.5-1.1-1.1-1.2c-0.6-0.1-1.2,0.2-1.5,0.8c-0.5-0.9-2-1-2.6-0.2c-0.6-0.9-0.2-2.1,0.1-3.1
				c0.1-0.2,0.1-0.4,0.3-0.5c0.2-0.1,0.4-0.2,0.6-0.2c0.8-0.2,1.5-0.9,1.7-1.7c1.8,0.5,3.8-0.1,5.1-1.5c0.2-0.2,0.4-0.6,0.2-0.9
				c-0.1-0.2-0.4-0.2-0.7-0.1c-1.2,0.2-2.3,0.6-3.4,1.2c-0.4,0.2-0.8,0.4-1.2,0.5c-0.1,0-0.1,0-0.1,0c-0.5,0-0.9-0.2-1.4-0.3
				c-1.3-0.6-2.8-1.3-3.4-2.6c-0.5-1-0.4-2.1-0.7-3.1c-0.7-2.5-3.4-4.3-3.1-6.9c0.2-1.5,1.4-2.7,1.7-4.2c0-0.3,0.1-0.6,0.3-0.8
				c0.3-0.3,0.9-0.1,1.4-0.1c0.8-0.1,1.2-0.9,1.6-1.6c0.7-1,1.9-1.6,3.1-1.6c0.3,0,0.6,0,0.8-0.2c0.3-0.2,0.2-0.7,0.3-1.1
				c0-0.5,0.2-0.9,0.6-1.2c7.3-1.7,14.5-3.7,21.6-6.2c25.8-8.8,53.8-22.7,78.8-11.8h0.1c0,1.8,0,3.7,0,5.5v154.8v155.2l-0.1-0.1
				v118.2v0C1109.8,618.4,1101.6,624.3,1091.4,627.1z M998.3,316.7c0.4-0.2,0.5-0.9,0.1-1.1c-0.2-0.1-0.5-0.1-0.7-0.2
				c-0.4-0.2-0.4-0.7-0.7-1c-0.2-0.2-0.5-0.4-0.8-0.6c-0.2-0.2-0.3-0.5-0.4-0.8c-0.8-1.9-1.6-3.8-2.3-5.7c-0.1-0.3-0.2-0.5-0.3-0.8
				c0-0.4,0-0.8,0-1.1c0.1-0.9,0.1-1.8-0.3-2.6c-0.5-1-1.6-1.5-2.1-2.5c-0.4-0.8-0.5-1.8-1.2-2.4c-0.3-0.2-0.7-0.4-0.9-0.6
				c-0.2-0.2-0.3-0.5-0.5-0.7c-0.6-0.7-1.7-0.6-2.6-1c-0.3-0.1-0.7-0.3-1-0.5c-0.6-0.2-1.3-0.2-1.9-0.2c-0.9,0-1.8,0-2.7,0
				c-0.4,0-1,0.1-1.2,0.5c-0.1,0.2-0.1,0.4-0.1,0.6c-0.4,0.6-0.9,1.2-1.4,1.7c-0.2,0.2-0.5,0.5-0.7,0.8c-0.2,0.3-0.2,0.7-0.2,1
				c-0.1,1.1-0.2,2.4,0.5,3.3c0.2,0.3,0.5,0.5,0.7,0.7c0.4,0.6,0.3,1.4,0.3,2c-0.1,1.5-0.1,3.1,0.1,4.6c0,0.2,0,0.5,0.2,0.6
				c0.1,0.2,0.4,0.3,0.6,0.4c1.2,0.3,2.5-0.1,3.6,0.2c0.7,0.2,1.3,0.7,1.9,1.1c0.3,0.3,0.7,0.5,1,0.8c0.2,0.2,0.4,0.3,0.5,0.6
				c0.1,0.3,0.1,0.7,0.3,1c0.2,0.4,0.8,0.5,1.3,0.7c0.5,0.1,1,0.5,0.9,1c0.4-0.5,1-0.6,1.5-0.8c1.3-0.4,2.7-0.6,4.1-0.8
				c0.4,0,0.8-0.1,1.1,0.1c0.3,0.2,0.5,0.5,0.7,0.8c0.3,0.4,0.8,0.7,1.2,0.9C997.5,316.9,998,317,998.3,316.7z"/>
		</g>
		<g>
			<path class="st2" d="M1116.5,0.2C1116.5,0.3,1116.5,0.3,1116.5,0.2c0,0.1,0,0.1,0,0.1H861H592.2H324.6H58.2c-7,0-14,0-21,0
				c-10.6,0-21.2,0-31.8,0C3.6,0.4,1.8,0.5,0,0.5v140.4v157.1v154.7v149.4v156.6v153.1c0,8.6,0,17.1,0,25.7c0,1.8,0,3.6,0,5.4h67
				c-0.2-0.5-0.2-1.4-0.2-1.9c0-0.1,0-0.3,0.1-0.4c0.1-0.1,0.2-0.1,0.3-0.1c0.8,0,1.6,0.2,2.4,0.5c0.3-0.5,0.4-1.1,0.4-1.7
				c0-0.1,0-0.3-0.1-0.4"/>
			<path class="st2" d="M1116.7,176.8c0-0.9,0-1.7,0-2.6c0-7,0-13.9,0-20.9c0-9.6,0-19.2,0-28.8c0-10.6,0-21.2,0-31.9
				c0-10,0-20,0-30c0-7.8,0-15.5,0-23.3c0-4.5-0.2-9.1-0.2-13.6c-0.1-8.5,0-17,0-25.5"/>
			<path class="st3" d="M1116.6,610.3V492.2l0.1,0.1V337.1V182.3c0-1.8,0-3.7,0-5.5"/>
			<path class="st2" d="M70,939.3c-0.9-1.3-1.8-2.6-2.7-3.8c-0.2-0.4-0.5-0.9-0.1-1.2c0.4-0.3,0.9,0.1,1.4,0
				c0.4-0.1,0.6-0.7,0.4-1.1c-0.2-0.4-0.7-0.6-1.1-0.7c-0.9-0.2-1.9,0-2.5-0.7c-0.3-0.3-0.5-0.8-0.9-0.6c0.4-0.1,0.8-0.4,1-0.8
				c-1.7-0.8-2.3-3.2-1.2-4.6c0.2,0,0.4,0,0.7,0c-0.4-1.5-1.1-2.8-2-4c-0.2-0.3-0.4-0.5-0.6-0.8c-0.1-0.3-0.1-0.6-0.2-0.9
				c0-1.1,0-1.8,0.3-2.8c0.3-0.9,0.5-1.9,0.4-2.8c0-0.4-0.1-0.8-0.4-1c-0.8-0.7-2.3-0.3-2.4-1.8c-0.1-0.9,0.6-2.2,0-3
				c-0.2-0.2-0.5-0.3-0.6-0.1c-0.2-0.5,0.4-1,0.9-1.3c0.5-0.4,0.9-1,1-1.7c0-0.6-0.4-1.3-1.1-1.5c-0.5-0.1-1.2,0-1.3-0.5
				c0-0.2,0.1-0.4,0.1-0.6c0.2-0.9-0.7-1.8-0.5-2.7c0.1-0.3,0.2-0.5,0.2-0.8c0-0.6-0.7-0.8-1.1-1.2c-1.1-0.8-1.3-2.2-1.5-3.6
				c-0.1-0.9-0.2-1.9-0.4-2.8c0.2,0,0.3,0,0.5-0.1c-0.2-0.6-0.2-1.2,0-1.8c0.1-0.3,0.2-0.6,0.1-0.9c-0.1-0.3-0.3-0.5-0.4-0.8
				c-0.4-0.7-0.4-1.6,0-2.3c0.1-0.2,0.2-0.3,0.2-0.5c0-0.1-0.1-0.2-0.2-0.4c-0.5-0.8,0.5-1.6,0.5-2.4c0-0.4-0.2-0.9-0.6-1
				c-0.6-0.2-1.3,0.2-1.9-0.1c-0.5-0.3-0.5-1.1-0.3-1.8c-0.6-0.2-1.3,0.1-1.8,0.4c-1,0.6-2,1.2-3.2,1.1c-0.2,0-0.4-0.1-0.5-0.2
				c-0.3-0.4,0-0.9,0-1.4c0-0.8-1.1-1.3-2-1c-0.3,0.1-0.6,0.3-1,0.2c-0.3,0-0.7-0.4-0.5-0.7c0.8-0.1,1.6-0.5,2.2-1.1
				c0.1-0.2,0.3-0.4,0.5-0.4c0.2-0.1,0.5,0,0.7,0c0.5,0,0.9-0.5,1.3-0.9c0.9-0.9,2.3-1.2,3.5-0.9c-0.1-0.4,0.1-0.8,0.5-1
				c0.3-0.2,0.8-0.2,1.1-0.2c0.6,0,1.2,0,1.8,0c0.2,0,0.4,0,0.5,0.1c0.1,0.2,0,0.4,0.1,0.7c0,0.2,0.3,0.4,0.5,0.5
				c0.7,0.4,1.5,0.6,2.3,0.8c0.2,0,0.3,0.1,0.5,0c0.2-0.1,0.3-0.3,0.4-0.5c0.3-1.4-1.3-2.5-1.7-3.8c-0.2-0.9,0-1.8-0.3-2.7
				c-0.1-0.3-0.2-0.6-0.4-0.8c-1-1.7-2.2-3.4-1.9-5.3c0.1-0.8,0.5-1.6,0.6-2.5c0.1-0.9-0.1-1.7-0.2-2.6c-0.1-0.9,0.1-1.8,0.7-2.4
				c0,0.7-0.2,1.4,0,2.1c0.4,1,1.7,1.1,2.7,0.9c1-0.1,2.2-0.3,2.9,0.4c0.2,0.2,0.4,0.5,0.7,0.6c0.2,0.1,0.5,0.1,0.7,0.1
				c0.9,0.1,1.8,0.9,1.9,1.8c2.4,0.3,4.1,3.3,6.6,3.2c0.5,0,1.1-0.2,1.6-0.3c1.2-0.2,2.5,0.1,3.7,0.4c0.2-0.2,0.5-0.8,0.5-1.1
				c0-0.3-0.2-0.5-0.3-0.8c-0.2-0.5-0.2-1.2-0.1-1.8c0.2-0.1,0.5,0.2,0.6,0.4c0.3,0.4,0.6,0.7,1,0.8c1.4,0.5,2.9,0,4.3,0.6
				c0.2,0.1,0.5,0.2,0.7,0.3c0.2,0,0.4,0,0.7,0c0.6,0,1.2-0.1,1.6-0.5c0.4-0.4,0.5-1,0.6-1.5c0.2-1.1,0.4-2.2,0.5-3.2
				c0.2-0.9,0.3-2-0.4-2.6c-0.2-0.2-0.5-0.3-0.6-0.6c-0.7-0.8-0.2-2,0.4-2.8c0.2-0.3,0.4-0.7,0.8-0.8c0.6-0.2,1.2,0.1,1.6,0.5
				c0.4,0.4,0.7,0.8,0.8,1.3c0.1,0.8-0.2,1.7,0.3,2.3c0.5,0.5,1.4,0.4,2,0.8c0.7,0.4,0.9,1.3,1,2c0.9,0.2,2,0.3,2.7-0.3
				c0,1,0,1.9,0.1,2.8c0,0.2,0,0.4,0.1,0.5c0.1,0.2,0.4,0.2,0.6,0.3c1.6,0.2,3.2,0.3,4.9,0.4c0.7,0,1.5,0.1,2,0.6
				c0.5,0.6,0.3,1.5,0,2.2c-0.6,1.3,0.3,2.6,1.1,3.9c0.5,0.2,1-0.3,1.4-0.7c0.8-0.7,2-0.9,3-0.4c-0.2-0.5,0.3-1,0.9-1.2
				c0.5-0.1,1.1,0,1.6-0.2c1.2-0.3,1.9-1.6,3.1-1.6c0.3,0,0.7,0.1,1,0c0.4-0.1,0.6-0.6,1-0.8c0.3-0.2,0.7-0.2,1.1-0.2
				c0.7,0,1.5,0,2.2,0.1c0.3,0,0.6,0,0.8,0.1c0.5,0.2,0.8,0.6,1,1.1c1,2,1,4.2,1,6.4c0,0.4,0,0.8-0.1,1.2c-0.1,0.4-0.3,0.7-0.4,1.1
				c-0.1,0.4,0,0.8,0.3,1c0.8,0.5,0.7,1.3,1.3,2c0.3,0.3,0.8,0.4,1.1,0.7c0.3,0.3,0.5,0.8,0.6,1.2c0.4,1.4,0.9,2.8,1.3,4.3
				c0.3,0,0.6,0,0.9,0c0,0.7,0,1.3,0,1.9c0,0.2,0,0.4,0.1,0.6c0.2,0.4,0.8,0.3,1.3,0.4c1,0.2,1.5,1.2,1.7,2.2c0.2,1,0.3,2,1.1,2.7
				c0.7,0.6,1.8,0.7,2.3,1.5c0.2,0.3,0.2,0.7,0.3,1.1c0.1,1.1,0.3,2.2,0.4,3.2c-0.4-0.2-0.8,0.5-0.8,1c0,0.5-0.1,0.9,0,1.4
				c0.2,0.5,0.6,1,1.1,0.8c0,0.5-0.4,0.7-0.8,0.9c-1.6,1-2.4,3.1-1.8,4.9c0,0.1,0.1,0.3,0.2,0.4c0.2,0.1,0.4,0.1,0.6,0.1
				c1.7-0.1,3.4-0.2,5.2-0.4c0.5,1.2,1.2,2.4,2,3.5c0.2,0.2,0.4,0.5,0.4,0.8c0.2,1.1-1.6,1.7-1.5,2.8c-0.5-0.1-0.5-0.9-0.7-1.4
				c-0.3-0.6-1.1-0.9-1.7-0.6c-0.8,0.4-0.9,1.6-0.7,2.5c0.2,1.4,0.8,2.9,1.9,3.8c0.4,0.3,1,0.5,1.4,0.8c0.3,0.3,0.3,0.7,0.8,0.8
				c0.3,0,0.5-0.1,0.8-0.1c0.9-0.1,1.8,0.7,2.1,1.6c0.3,0.9,0.1,1.9,0,2.8c-0.2,1.3-0.4,2.7-0.6,4c-0.1,0.5-0.2,1.1-0.2,1.6
				c-0.1,1.6,0.4,3.3,0.9,4.8c0.4,1.4,0.9,2.8,2,3.7c0.4,0.4,0.9,0.7,1.2,1.1c0.6,0.8,0.7,2,0.3,2.9c-0.3,0.8-1.4,1.7-1,2.6h33.8
				h227.8h269.2h266.4h172.8V803.2v-157v-35.9"/>
			<path class="st2" d="M51.8,582.1c-0.5,0.3-0.9-0.7-1.5-0.7c-0.1,0-0.2,0-0.3,0.1c-0.2,0.2-0.3,0.5-0.3,0.8c0.1,1.6,2.1,2.5,2.3,4
				c0.1,0.5-0.1,1,0,1.5c0.2,1.3,1.9,2.3,1.5,3.6c0,0.1-0.1,0.2-0.2,0.3c-0.1,0.1-0.3,0.1-0.5,0c-1.4-0.1-2.9,0.4-3.8,1.5
				c-0.1,0.1-0.3,0.3-0.5,0.3c-0.1,0-0.2-0.1-0.2-0.1c-0.9-0.8-2.4-0.9-3.4-0.2c0.4,1.3-0.5,2.8-1.8,3.1c-0.2,0.5,0.2,1.2-0.3,1.4
				c-0.1,0-0.3,0-0.4-0.1c-0.7-0.3-2.8-0.2-3-0.9c-0.1-0.3,0-0.6-0.3-0.8c-0.1-0.1-0.4-0.1-0.5-0.2c-0.2-0.2-0.2-0.6-0.2-0.9
				c0-1-1-1.7-1.3-2.6c-0.1-0.4-0.1-0.8-0.3-1.1c-0.3-0.8-0.7-1-0.4-1.9c0.2-0.5,0.4-1.2,0.7-1.7c0.6-0.9,0.7-2.1,0.4-3.1
				c-0.2-0.6-0.5-1.2-0.3-1.8c0.1-0.3,0.3-0.5,0.5-0.8c1-1.6-0.5-3.8,0-5.6c0.4,0.1,0.7-0.4,0.9-0.8c0.7-2.2-0.8-4.8-3-5.3
				c-0.3-0.1-0.6-0.1-0.8-0.3c-0.7-0.7-0.1-3.2-0.3-4.2c0-0.1,0-0.2,0-0.2c0-0.1,0.1-0.1,0.2-0.1c0.3-0.1,0.7-0.2,1-0.2
				s0.5-0.7,0.8-1c0.5-0.3,1.2-0.5,1.8-0.4c0,0.2,0,0.4,0,0.5c0.4,0.2,0.9,0,1.2-0.3c0.3-0.4,0.3-0.9,0.3-1.3c0-0.5,0-1.1,0-1.6
				c0-0.2,0-0.5-0.2-0.7c-0.1-0.2-0.4-0.3-0.6-0.1c0,0.2-0.1,0.3-0.2,0.5c-0.1,0.1-0.3,0.2-0.5,0c-0.1-0.1-0.1-0.2-0.1-0.3
				c-0.1-0.6-0.9-1.1-1.4-0.7c-0.2,0.2-0.4,0.4-0.6,0.5c-0.3,0.1-0.7-0.2-0.9-0.5c-0.4-0.7-0.1-1.9,0.7-2c0.2,0,0.4,0,0.5-0.1
				c0.1-0.1,0.1-0.2,0.1-0.3c0.1-0.4,0.1-0.8,0.2-1.1c0.7-0.8,1.5-0.8,2.4-0.5c0.9,0.2,1.7,0.8,2.6,0.8c0.4,0,0.8,0,1.1,0.2
				c0.1,0.1,0.2,0.3,0.3,0.4c0.3,0.2,0.6,0,1,0c0.5,0,1,0.4,1.3,0.7c0.9,0.9,1.8,1.7,2.2,2.9c0.8,2-0.2,4.3-1.1,6.3
				c-0.2,0.5-0.5,1.1-0.9,1.5c-0.6,0.7-1.4,1.1-1.9,1.8c-0.4,0.6-0.4,1.3-0.5,2c-0.1,0.9-0.1,1.9,0.3,2.6c0.2,0.3,0.5,0.6,0.8,0.9
				c0.3,0.3,0.7,0.6,1,0.5c0.2,0,0.4-0.2,0.6-0.3c0.7-0.4,1.5-0.1,2.2,0.1c0.5,0.2,0.8,0.3,1.2,0.7c0.3,0.5,0.6,1,1,1.4
				c0.4,0.4,0.8,0.7,1.2,1.1c0.4,0.4,0.7,0.9,0.6,1.4c0,0.5-0.5,1.1-1,1c-0.3,0-0.6-0.3-0.9-0.4c-0.3-0.2-0.7-0.2-0.9,0"/>
			<path class="st2" d="M142.1,340.3c0,0,0,0.1,0,0.1c-0.2,1.1-0.3,2.3-0.5,3.5c-0.1,0.5-0.2,1.1-0.6,1.3c-0.6,0.3-1.2-0.2-1.4-0.8
				c-0.2-0.6-0.1-1.2-0.1-1.9c0-0.6-0.2-1.3-0.7-1.6c0,0.9,0,1.8,0,2.8c0,0.3,0,0.6-0.1,0.8c-0.2,0.3-0.5,0.5-0.8,0.6
				c-1.5,0.7-3.1,1.4-4.7,1.9c-0.3,0.1-0.7,0.2-0.9,0.4c-0.2,0.2-0.3,0.5-0.5,0.7c-0.3,0.2-0.8,0.2-1.1,0.5
				c-0.2,0.3-0.1,0.9-0.4,1.2c-0.2,0.2-0.4,0.2-0.6,0.3c-0.3,0.3-0.1,0.8-0.1,1.2c0,0.7-0.5,1.2-0.8,1.8c-0.3,0.6-0.6,1.3-0.2,1.8
				c0.4-0.2,0.9,0.2,1.1,0.7c0.1,0.5,0,1,0,1.5c0,0.1,0,0.3,0.1,0.4c0.2,0.3,0.7,0.2,1.1,0.1c1.4-0.4,3,0.4,3.6,1.8
				c0.6,0,1.3,0,1.9-0.1c0.3,1.2,0,2.6,0.2,3.8c0.1,1.3,0.9,2.7,2.2,2.8c0.4,0,0.8-0.1,1.1,0.1c0.5,0.2,0.7,0.7,0.7,1.2
				c0,0.5-0.1,1-0.2,1.5c-0.2,2.3,1.7,4.5,1.5,6.8c-0.1,1.1,0.5,1.9,0.9,3c0.3,0.9,0.3,1.9,0.2,2.9c0,0.4,0,0.9-0.3,1.3
				c-0.2,0.4-0.7,0.6-1.1,0.4c0,0.6-0.1,1.2-0.1,1.7c0,0.2,0,0.3-0.1,0.5c-0.3,0.4-1,0.2-1.4,0.5c0,0.4,0,0.9-0.1,1.2
				c-0.2,0.4-0.6,0.7-1,0.6c0,1.1,0.3,2.2,0.6,3.3c0,0.1,0,0.1,0.1,0.2c0,0,0.1,0,0.1,0.1c0.5,0.1,1-0.3,1.1-0.8
				c0.2-0.5,0.2-1,0.3-1.5c0.2-0.7,0.8-1.4,0.4-2c0.6-0.4,0.9-1.2,0.9-1.9c0.4,0,0.8-0.5,0.8-0.9s0.1-0.9,0.3-1.3
				c0.5,0,0.8-0.6,1-1.1c0.4-1.1,1-2.1,1.6-3.1c0.3,0,0.7,0,0.7,0.3c0,0.1,0,0.2,0,0.3c0,0.4,0.5,0.5,0.9,0.5c0.4,0,0.8,0,1,0.3
				c0,0.1,0.1,0.3,0.1,0.4c0,0.7-0.9,1.2-1.6,1.4c-0.2,0-0.4,0.1-0.5,0.1c-0.5,0.2-0.6,0.9-0.5,1.5c-0.3-0.2-0.7,0.1-0.8,0.4
				c-0.1,0.3-0.1,0.7-0.2,1c-0.2,0.4-0.7,0.7-0.9,1.1c-0.2,0.4-0.1,0.8-0.2,1.2c-0.1,0.4-0.5,0.8-0.9,0.6c-0.2,0.5-0.4,1.1-0.7,1.6
				c0,0.1-0.1,0.2-0.1,0.2c-0.3,0.8-0.7,1.7-1.1,2.5c-0.1,0.3-0.2,0.6-0.4,0.8c-0.1,0.2-0.2,0.4-0.3,0.5c-0.5,0.5-0.7,0.4-0.7,1.2
				c-0.1,1.3,0.1,2.6-0.2,3.8c0.2,0.2,0.5,0.2,0.8,0c0.2-0.2,0.4-0.4,0.6-0.6c0.4-0.3,1.1-0.1,1.3,0.3c0.3,0.4,0.1,1.1-0.3,1.3
				c-0.2,0.1-0.4,0.2-0.5,0.3c-0.2,0.2-0.2,0.6-0.5,0.8c-0.3,0.2-0.8-0.1-1.1,0c-0.5,0-0.7,0.6-0.9,1c-0.4,1-0.7,2-1.1,3.1
				c-1.2,0-1.5,2-1.4,2.9c0.1,1.3,0.9,2.5,2.1,3c0.3,0.1,0.7,0.3,0.9,0.6c0.3,0.6-0.2,1.3,0.3,1.8c0.2,0.2,0.4,0.2,0.6,0.3
				c0.7,0.3,1.2,0.9,1.3,1.6c0.1,0.4,0,0.8,0,1.2c-0.2,1.4-0.4,2.9-0.5,4.3c-0.1,0.4-0.1,0.9,0,1.3c0.3,1.2,1.6,1.8,2.4,2.7
				c1.2,1.4,1.1,3.6,1.6,5.4c0.4,1.3,1.1,2.5,2,3.5c0.2,0.2,0.5,0.4,0.7,0.8c0.1,0.3,0.2,0.6,0.2,0.9c0.1,0.7,0.6,1.3,0.8,2
				c0.1,0.7,0,1.2,0.4,1.9c0.3,0.5,0.7,0.9,0.8,1.5c0.2,0.6,0.1,1.2,0.4,1.7c0.2,0.3,0.5,0.4,0.7,0.7c0.5,0.5,0.6,1.2,0.7,1.9
				c0.2,1.5,0.5,2.9,0.8,4.4c0.1,0.6,0.2,1.2,0.6,1.7c0.5,0.7,1.4,1,2.2,1.2c1.3,0.4,1.2,2,2.2,3c0.3,0.3,0.7,0.5,0.9,0.8
				c0.5,0.6,0.6,1.4,0.7,2.2c0.1,0.8,0.5,1.6,1.2,1.9c0.2,0,0.3,0.1,0.4,0.2c0.1,0.1,0.1,0.2,0.1,0.4c0.2,1.1,0.2,2.2,0.1,3.2
				c0.9,0.1,1.6,0.9,1.6,1.8c0,0.5-0.2,1.1,0.1,1.4c0.2,0.3,0.7,0.3,0.9,0.6c0.2,0.3,0.2,0.7,0.3,1.1c0.2,0.8,1,1.2,1.4,1.8
				c0.3,0.5,0.4,1,0.6,1.6c0.6,2.8,1.2,5.6,1.2,8.4c0,1.1-0.1,2.3,0.2,3.4c0.1,0.5,0.3,1,0.6,1.5c0.4,0.9,0.8,1.7,1.1,2.6
				c0.4,0.9,0.8,1.8,1.4,2.4c0.6,0.6,1.3,1,1.3,1.9c0.6,0.5,1.4,0.8,2,1.2c0.6,0.5,1,1.4,0.5,2c-0.1,0.2-0.3,0.3-0.4,0.4
				c-0.2,0.3-0.3,0.6-0.3,0.9c-0.1,0.6-0.2,1.3-0.1,1.9c0.1,0.6,0.4,1.3,1,1.6c0.6,0.4,1.5,0.3,2.1,0.8c0.7,0.5,1,1.4,1.7,1.9
				c0.7,0.6,1.5,0.5,2.3,0.5c0.3,0,0.4-0.1,0.8,0c0.4,0.1,0.6,0.5,1,0.6c0.4,0.1,0.8-0.2,1.1-0.3c1-0.4,2.4-0.1,3.1,0.7
				c0.2,0.2,0.3,0.4,0.4,0.6c0.5,0.7,0.9,1.3,1.4,2c1.2,0.2,2.6,0.6,3.1,1.8c0.3,0.6,0.2,1.3,0.6,1.9c0.2,0.3,0.6,0.6,0.8,0.9
				c0.4,0.5,0.4,1.2,0.5,1.9c0,0.9,0.1,1.8,0.1,2.8c-0.6,0.2-1.3-0.3-1.7-0.8c-0.4-0.5-0.7-1.2-1.2-1.6c-0.8-0.6-1.9-0.6-2.8-0.5
				c0.4-0.4-0.1-1.1-0.7-1.1c-0.6,0-1,0.3-1.6,0.5c-0.5,0.2-1,0.2-1.6,0.2c-0.3,0-0.6-0.2-0.8-0.4c-0.1-0.2-0.1-0.3-0.2-0.5
				c-0.1-0.1-0.3-0.2-0.5-0.2c-0.6-0.2-1.2-0.3-1.9-0.5c-0.1,0-0.3-0.1-0.4,0c-0.1,0.1-0.1,0.2-0.2,0.4c-0.3,1-1.2,1.8-2.2,2.1
				c-1,0.3-2.1,0.3-3.1,0.4c-1.4,0.1-2.7,0.4-4,0.8c-0.1,0-0.3,0.1-0.4,0.2c-0.1,0.2,0,0.4-0.1,0.6c-0.1,0.2-0.4,0.2-0.6,0.4
				c-0.4,0.3-0.1,1-0.1,1.5c-0.1,0.5-0.7,0.8-1.2,1.1c-0.5,0.2-1.1,0.6-1,1.2c0.8,0.4,1.4,1.1,1.7,2c-0.7,0.3-1.4,0.6-1.9,1.1
				c-0.6,0.5-1,1.2-1,1.9c0,0.5,0.2,1-0.1,1.4c-0.1,0.2-0.3,0.3-0.4,0.4c-0.2,0.3-0.2,0.8-0.2,1.1c-0.1,0.4-0.5,0.8-0.8,0.5
				c0.1,1.1,0.1,2.1,0.2,3.2c0,0.1,0,0.2,0,0.3c-0.2,0.5-1.1-0.1-1.6,0.2c-0.1,0.3-0.2,0.7-0.3,1c-0.3,0.1-0.7,0.1-1,0
				c-0.2,0.7-0.4,1.3-0.3,2c-0.4,0-0.8,0-1,0.2c-0.1,0.1-0.1,0.3-0.1,0.4c-0.1,0.5-0.1,0.9-0.2,1.4c-0.1,0.4-0.1,0.8,0,1.1
				c0.2,0.7,1,1,1.5,1.5c0.3,0.4,0.5,0.8,0.6,1.3c0.1,0.4,0.3,0.8,0.3,1.3c0,0.4-0.2,0.9-0.6,1.1c-0.3,0.1-0.6,0.2-0.7,0.5
				c-0.7,0.3-1.3-0.6-1.9-0.8c-0.8-0.3-1.6,0.4-1.9,1.2c-0.3,0.8-0.2,1.6-0.3,2.4c-0.1,1.2-0.5,2.4-0.9,3.6c-0.2,0.5-0.4,1-0.7,1.5
				c-0.2,0.2-0.3,0.4-0.5,0.6c-0.1,0.2-0.2,0.4-0.3,0.7c-0.5,1.1-1.5,2-2.8,2c-0.6,0-1.1-0.2-1.5-0.6c-0.1-0.1-0.2-0.2-0.2-0.3
				c0-0.2,0.1-0.3,0.2-0.4c0.1-0.1,0.2-0.1,0.2-0.1c0.2-0.1,0.5,0,0.8,0c0.7,0,1.2-0.5,1.6-1c0.3-0.6,0.4-1.2,0.3-1.9
				c0-0.1,0-0.2-0.1-0.3c-0.1-0.1-0.2-0.1-0.3-0.1c-0.6,0-1.5,0.1-1.7-0.5c-0.3-0.6,0.6-1.2,0.6-1.9c0.1-0.7-0.7-1.2-1.4-1.1
				c-0.7,0.1-1.2,0.6-1.6,1.2c-0.7,0.9-1.2,2-1,3c0.1,0.6,0.3,1.8-0.3,2.3c-0.1,0.1-0.3,0.1-0.4,0.3c-0.3,0.3-0.1,0.9-0.2,1.3
				c-0.1,0.4-0.5,0.6-0.8,0.8c-0.4,0.4-0.7,0.8-1.1,1.2c-0.4,0.3-1.1,0.5-1.5,0.1c-0.9,2.4,0.4,5.2-0.1,7.7c-0.3,1.7-1.4,3.3-1.6,5
				c-0.1,0.7-0.1,1.4-0.1,2.1c0,2.3-0.2,4.5-0.6,6.8c-0.2,0.9-0.4,1.9-0.4,2.8c-0.1,1.3,0.1,2.6-0.1,3.8c-0.1,0.6-0.3,1.2-0.1,1.8
				c0.1,0.5,0.5,0.8,0.3,1.3c-0.1,0.3-0.3,0.5-0.4,0.9c-0.3,1,0.6,2,0.8,3c0.2,1.2-0.6,2.4-0.2,3.5c0.2,0.4,0.5,0.7,0.6,1
				c0.1,0.2,0.1,0.5,0.2,0.8c0.1,0.6,0.5,1.1,0.8,1.7c0.4,0.6,0.7,1.1,1.1,1.7c0.3,0.5,0.7,1,1.2,1.4c0.4,0.2,0.9,0.3,1.2,0.7
				c0.4,0.4,0.4,1,0.8,1.4c0.5,0.6,1.4,0.7,2,1.2c0.3,0.3,0.5,0.7,0.8,0.9c0.5,0.3,1.1,0.2,1.7,0.3c0.8,0.1,1.5,0.5,2,1.2
				c0.6,0.7,1.8,0.7,2.7,0.7c0.4,0,0.8,0,1.2,0.1c0.4,0.1,0.8,0.5,1.2,0.7c0.4,0.3,0.9,0.4,1.4,0.5c1,0.2,2,0.5,3,0.7
				c-0.2-0.4,0.3-0.9,0.7-0.8c0.4,0,0.8,0.4,1,0.8c0.2,0.4,0.4,0.8,0.7,1.1c0.6,0.6,1.6,0.6,2.4,0.6c0.4,0.3,0.5,0.5,0.7,0.9
				c0.1,0.1,0.1,0.2,0.2,0.3c0.1,0.1,0.2,0,0.4,0.1c0.9,0,1.7,0.7,2.3,1.3c0.1,0.1,0.3,0.3,0.3,0.4c0.1,0.2,0.1,0.4,0,0.6
				c-0.1,1,0,2,0.3,3c0.7,0.5,0.6,1.4,0.9,2.2c0.7,2.1,1.5,4.3,3,5.9c0.7,0.8,1.5,1.4,2.3,2c0.8,0.7,1.5,1.3,2.3,2
				c1.7,1.6,3.3,3.1,5,4.7c0.2,0.2,0.5,0.4,0.7,0.6c0.2,0.2,0.5,0.3,0.8,0.4c1.2,0.7,2.3,1.7,3.1,2.8c0.5,0.8,1.2,1.1,2.1,1.2
				c0.4,0,0.8,0,1.1,0.3c0.2,0.2,0.3,0.6,0.6,0.8c0.5,0.3,1.1-0.1,1.6,0.1c0.3,0.2,0.5,0.6,0.9,0.7c0.3,0.1,0.6,0,0.9,0
				c0.4,0.1,0.6,0.4,0.9,0.7c0.4,0.4,1.1,0.4,1.6,0.5c1.6,0.4,3.1,1.3,4.5,2.2c0.5,0.3,1,0.6,1.5,0.7c0.5,0.1,1,0,1.5,0.1
				c0.9,0.1,1.6,0.8,2.3,1.4c0.7,0.6,1.6,1.1,2.5,0.9c1.3-0.2,2.3,0.6,3.7,0.6c1.5,0,3,0.1,4.6-0.1c2-0.2,4-0.6,6-1
				c2.5-0.5,5.1-0.3,7.6,0.2c1,0.2,2.1,0.5,3,0c0.3-0.2,0.6-0.5,0.9-0.7c0.3-0.2,0.7-0.3,1.1-0.2c0.2,0.1,0.3,0.3,0.5,0.3
				c0.2,0.1,0.4,0.1,0.6,0.1c2-0.1,4.1-0.5,6-1.2c2.1-0.7,4.8-0.3,6.9-0.7c1.4-0.2,2.8-0.5,4.1-0.5c1.4,0.1,2.8,0.6,4.2,0.5
				c0.3,0,0.7-0.1,1,0c0.5,0.2,0.7,0.7,0.9,1.1c0.3,0.7,0.7,1.3,1.1,1.9c0.1,0.2,0.3,0.4,0.5,0.5c0.2,0.1,0.4,0.1,0.6,0.1
				c0.4,0,0.9-0.1,1.3-0.2c0.3-0.1,0.6-0.2,1-0.1c0.9,0.1,1.8,1.1,2.6,0.7c0,0,0,0,0,0c0.2,0.1,0.3,0.1,0.4-0.1c0,0,0,0,0-0.1"/>
			<path class="st2" d="M255.9,530.6c0,0-0.1,0-0.2,0c-0.1-0.1-0.1-0.2-0.1-0.3c0.1-0.6,0.2-1.2-0.1-1.7c-0.2-0.3-0.5-0.4-0.7-0.6
				c-0.5-0.5-0.6-1.4-0.5-2.2c0.2-1.6,0.7-3.2,1.6-4.5c0.1-0.2,0.2-0.3,0.2-0.5c0-0.1,0-0.3-0.1-0.4c-0.1-0.8,0.6-1.6,1.2-2.2
				c1.1-1.1,2.1-2.3,2.9-3.7c0.3-0.4,0.5-0.9,0.5-1.4c0-0.5-0.3-1-0.8-1.1c0.2-0.3,0.3-0.5,0.5-0.8c0.8-1.2,1.3-2.6,1.6-4
				c0.1-0.4,0.2-0.8,0.5-1.1c0.1-0.1,0.4-0.3,0.5-0.4c0.1-0.2,0.1-0.5,0.1-0.8c0-0.2,0-0.3,0.1-0.5c0.2-0.3,0.7-0.5,0.8-0.8
				c0.1-0.3,0-0.6-0.1-1c-0.2-0.8-0.2-1.8,0.2-2.5c0.1-0.1,0.2-0.3,0.2-0.4c0.4,0.1,0.8,0.2,1.1,0.4c0.3,0.3,0.5,0.8,0.2,1.1
				c-0.1,0.1-0.3,0.2-0.4,0.4c-0.3,0.4,0,1.1,0.3,1.5c0.2-0.1,0.5,0,0.7,0.1c-0.1,0.7-0.2,1.5-0.1,2.2c0.1,0.6,0.4,1.1,0.9,1.4
				c0.2,0.1,0.3,0.2,0.5,0.3c0.2,0.3,0.1,0.7-0.1,0.9c-0.2,0.3-0.5,0.4-0.8,0.6c0.8,0.6,1.4,1.6,1.5,2.6c1,0.5,2.4-1,3.3-0.4
				c0.3,0.2,0.4,0.5,0.7,0.7c0.4,0.3,1,0.3,1.4,0.1c0.4-0.3,0.6-0.8,0.4-1.3c0.5,0,0.9,0.5,1.2,1c0.5,0.8,1.1,1.6,1.6,2.4
				c1,0.2,2-0.6,2.4-1.5c0.5-0.9,0.5-2,0.5-3c0.2-0.3,0.5-0.4,0.9-0.4c0.6,0,1.2,0.4,1.5,0.9c0.5,0.8,0.4,1.9,0.3,2.8
				c-0.1,1,0,2,0.7,2.7c0.2,0.2,0.4,0.3,0.5,0.5c0.3,0.5-0.1,1.3-0.7,1.2c-0.1,0.4,0,0.8,0.1,1.1c0.3-0.4,1-0.3,1.4-0.1
				c0.4,0.2,0.8,0.6,1.3,0.8c0.5,0.2,1.2,0,1.6-0.4c0.2-0.2,0.4-0.5,0.6-0.8c0.7-0.6,1.2,0,1.8,0.4c0.7,0.3,1.4,0.2,2-0.2
				c0.5-0.3,0.9-0.7,1.4-1c1-0.5,2.1-0.5,3.1-0.5c0.2,0,0.5,0,0.6,0.3c0.1,0.1,0,0.3,0,0.5c0,0.5,0.6,0.5,1.1,0.7
				c0.5,0.1,0.8,0.5,1.2,0.8c0.4,0.2,1,0.4,1.3,0.1c0.3-0.2,0.4-0.5,0.5-0.8c0.2-0.3,0.5-0.6,0.8-0.4c0-0.5-0.6-0.7-1.1-0.6
				c-0.5,0-1,0.2-1.4,0c-0.4-0.2-0.6-0.6-0.6-1.1c-0.1-0.4,0-0.9-0.1-1.3c-0.1-0.8-0.6-1.7-0.2-2.4c0.1-0.2,0.3-0.4,0.3-0.6
				c0.1-0.2,0.1-0.5,0.1-0.7c0.1-0.5,0.8-0.8,1.4-0.8s1,0.4,1.5,0.7c0.5,0.4,0.9,0.7,1.4,1.1c0.4,0.3,0.7,0.7,0.7,1.2
				c-0.1,0.6-0.7,1.2-0.3,1.6c1-0.2,2-0.3,3.1-0.2c0.5,0,1.1,0.1,1.6-0.1c0.5-0.3,0.7-1,1.3-1c0.2,0,0.3,0,0.5-0.1
				c0.1-0.1,0.2-0.2,0.2-0.3c0.3-0.7,0.9-1.2,1.2-1.9c0.5-1.2,0-2.6-0.8-3.7c-0.2-0.2-0.3-0.5-0.2-0.7c0.2-0.2,0.6-0.1,0.8-0.2
				c0.5-0.1,0.5-0.7,0.5-1.2c0-0.1,0-0.3-0.1-0.4c-0.7,0.2-1.4-1-2-0.6c-0.2,0.1-0.4,0.4-0.6,0.3c0.4-1.2-0.1-2.6-1.2-3.3
				c-0.8-0.5-1.2-0.8-1.8-1.5c-0.7-0.9-1.5-1.7-2.4-2.4c-1.9-1.7-4-3.5-5.8-5.3c-0.6-0.6-1.1-1.2-1.6-1.9c-0.6-0.7-1.1-1.5-1.2-2.5
				c0-0.3,0-0.5,0.1-0.8c0.1-0.2,0.2-0.3,0.3-0.4c0.1-0.2,0.1-0.4,0.1-0.7c0.1-1.9,0.1-3.9,0.1-5.8c0-0.3,0-0.7-0.2-1
				c-0.2-0.4-0.6-0.7-0.7-1.2c-0.1-0.4,0.1-0.9-0.1-1.2c-0.2-0.3-0.5-0.4-0.8-0.5c-0.3-0.1-0.6-0.5-0.5-0.8c0.1-0.2,0.2-0.2,0.3-0.4
				c0.3-0.5-0.4-1.2-0.1-1.8c0.1-0.2,0.2-0.3,0.3-0.4c0.6-0.8,0.1-1.9,0.5-2.7c0.1-0.1,0.1-0.2,0.1-0.4c0-0.1-0.1-0.2-0.1-0.3
				c-0.6-1-1.4-2.1-2.5-2.4c-0.8-0.2-1.5,0.1-2.2,0c-0.7-0.1-0.8-0.7-1.5-0.8c-0.5-0.1-1,0.1-1.4,0.3c-0.9,0.3-1.9,0.4-2.8,0.3
				c-0.4-0.1-0.9-0.2-1.3-0.2c-0.8,0-1.5,0.3-2.3,0.4c-1.2,0.3-2.6,0.1-3.7-0.5c-0.6-0.3-1.2-0.7-1.8-0.6c-0.4,0.1-0.7,0.3-0.9,0.5
				c-0.4,0.3-0.7,0.6-1.1,0.9c-0.6,0.5-1.3,1.1-2.1,1.2c-0.2,0-0.5,0.1-0.7,0.2c-0.2,0.2-0.2,0.7-0.4,1c-0.2,0.3-0.6,0.3-0.8,0.6
				c-0.2,0.2-0.2,0.6-0.3,0.9c-0.2,0.5-0.8,0.8-1.2,1.2c-0.5,0.5-0.6,1.3-0.8,1.9c-0.3,0.8-0.7,1.3-1.1,1.9
				c-0.3,0.4-2.4,2.8-1.4,3.2c0.4,0.1,0.8-0.1,0.9-0.5c0-0.2,0-0.4,0.1-0.5c0.1-0.1,0.2-0.1,0.3-0.1c0.8,0,1.5,0.4,1.9,1
				c0.2,0.3,0.3,0.7,0.1,1.1c-0.1,0.2-0.2,0.4-0.3,0.5c-0.5,0.9-0.3,2.1-0.7,3c-0.2,0.6-0.7,1-0.9,1.6c-0.1,0.3-0.2,0.7-0.3,1
				c-0.1,0.3-0.4,0.6-0.8,0.5c0.1,0.6-0.1,1.3-0.5,1.8c-0.2,0.3-0.6,0.6-0.6,0.9c0,0.5,0.6,0.8,0.8,1.3c0.1,0.5,0,1.1-0.1,1.6
				c0,1.3,0.1,2.5,0.5,3.8c0.2,0.7,0.5,1.4,0.5,2.1c0,0.8-0.6,1.6-1.3,2c-0.1,0.1-0.2,0.1-0.3,0.1c-0.1,0-0.3,0.1-0.4,0
				c-0.1-0.1-0.1-0.2-0.1-0.3c-0.2-0.8-0.3-1.6,0.2-2.2c0.1-0.1,0.2-0.2,0.2-0.3c0.3-0.5,0-1.1-0.3-1.5c-0.4-0.4-0.8-0.8-0.9-1.3
				c-0.1-0.5,0.1-1,0.1-1.5c0.2-1.4-0.3-2.7-0.7-4c-0.3-1.2-0.6-2.3-1.5-3.2c-0.2-0.2-0.4-0.4-0.6-0.6c-0.3-0.4-0.4-1-0.8-1.2
				c-0.2-0.2-0.6-0.2-0.8-0.3c-0.7-0.3-1-1.2-0.7-1.8c0.3-0.6,0.9-0.9,1.2-1.4c0.2-0.4,0.3-0.9,0.3-1.4c0-0.6,0.1-1.1,0.1-1.7
				c-0.3,0.3-0.8,0.1-1.1-0.2c-0.3-0.3-0.5-0.7-0.8-0.9c-0.2-0.2-0.5-0.2-0.8-0.4c-0.4-0.2-0.9-1.6-0.7-2c0.2-0.4,0.7-0.6,0.9-1
				c0.2-0.4,0.1-1,0.3-1.4c0.3-0.6,0.7-0.9,0.8-1.6c0.1-0.5,0-1.1,0.1-1.6c0.2-0.9,0.2-1-0.5-1.8c-0.2-0.3-0.4-0.6-0.2-0.9
				c0.2-0.3,0.6-0.4,0.5-0.8c0-0.2-0.2-0.2-0.3-0.3c-0.7-0.5-0.9-1.6-0.5-2.3c0.2-0.4,0.6-0.7,0.8-1.1c0.2-0.4,0-1.1-0.5-1.1
				c0-0.2,0.3-0.4,0.5-0.4c0.2,0,0.4,0,0.7,0c0.8,0,1.3-0.8,1.7-1.5c0.6-1,1.4-2,2.4-2.7c0.2-0.1,0.4-0.3,0.4-0.5
				c0.1-0.2,0.1-0.4,0.1-0.6c0-0.8,0-1.5,0.5-2.1c1-0.1,1.4-1.2,1.6-2.2c0-0.3,0.1-0.6,0.3-0.7c0.1-0.1,0.2-0.1,0.3-0.2
				c0.1-0.1,0.1-0.2,0.1-0.4c0.1-0.9,0.2-1.9,0.4-2.8c0.1-0.7,0.2-1.5,0-2.2c0.2,0,0.3,0,0.5,0c0.3,0.6,0.5,1.3,0.4,1.9
				c0.4-0.1,0.8-0.2,1.2-0.4c-0.1-1.5-0.3-3.2-1.5-4.1c-0.3-0.2-0.7-0.4-1-0.7c-0.3-0.2-0.5-0.5-0.7-0.7c-0.8-0.9-1.8-1.6-2.9-2
				c-0.5-0.2-1.1-0.3-1.6-0.4c-1-0.2-2.2-0.3-2.7,0.5c-0.1,0.1-0.1,0.2-0.2,0.3c-0.1,0-0.2,0.1-0.3,0.1c-0.8,0.1-1.7-0.3-1.4-1
				c0.3-0.7,0.3-1.6,0.1-2.4c0-0.1-0.1-0.3-0.2-0.4c-0.1-0.1-0.3-0.1-0.5-0.1c-0.9,0-1.9-0.1-2.8-0.1c-0.7,0-1.4,0-2,0.4
				c-0.3,0.2-0.5,0.7-0.9,0.8c-0.6,0.2-1.2-0.4-1.6-1c-0.4-0.6-0.7-1.2-1.1-1.8c-0.6-1-1.1-2-1.5-3.1c-0.1-0.4-0.2-0.8-0.3-1.1
				c0-0.3,0-0.5-0.1-0.8c-0.2-1-0.8-1.9-1.7-2.4c0.1-0.6,0.4-0.8,0.5-1.4c-0.2-0.3-0.1-0.7-0.1-1.1c0-0.4-0.3-0.8-0.7-0.7
				c-0.2,0-0.4,0.3-0.6,0.4c-0.6,0.2-1.1-0.6-1.7-0.5c-0.3,0-0.6,0.3-0.9,0.4c-0.7,0.2-1.3-0.3-2-0.4c-0.9-0.1-1.7,0.4-2.6,0.2
				c-0.6-0.1-1.1-0.6-1.5-1.1c-0.1-0.1-0.2-0.2-0.2-0.3c-0.1-0.5,0.6-0.7,0.9-1.1c0.2-0.2,0.2-0.5,0.2-0.7c0.4-2.3,2.2-4.4,1.8-6.7
				c-0.1-0.6-0.3-1.1-0.4-1.7c-0.2-1.2-0.1-2.7-1-3.5c-0.1-0.1-0.3-0.2-0.4-0.4c-0.1-0.2-0.2-0.4-0.3-0.6c-0.2-0.6-0.6-1.2-1-1.6
				c-0.3-0.3-0.6-0.6-0.8-1c-0.2-0.5-0.1-1.1-0.2-1.6c-0.1-0.9-0.4-1.8-1.2-2.2c-0.1-1.7-0.2-3.4-0.3-5.1c0-0.4-0.1-0.9-0.4-1.1
				c-0.1-0.1-0.4-0.2-0.5-0.4c-0.4-0.5,0.1-1.2,0-1.8c0-0.5-0.4-0.9-0.8-1.1c-0.4-0.2-0.9-0.2-1.4-0.2c-0.2-0.5,0-1,0.3-1.4
				c0.1-0.1,0.3-0.2,0.4-0.4c0.1-0.2,0-0.5-0.1-0.7c-0.1-0.6,0.4-1.2,0.6-1.8c0.3-0.9,0-2-0.8-2.6c-0.3-0.2-0.6-0.4-0.9-0.6
				c-0.4-0.3-0.7-0.6-0.9-1c-0.7,0-1.3,0-2,0.1c0.5-1.6-1.5-1.5-2.4-1.8c-0.6-0.2-1.1-0.8-1.7-1.1c-0.5-0.2-1.1-0.2-1.7-0.3
				c-1-0.2-1.9-0.7-2.7-1.3c-0.4-0.3-0.9-0.6-1.2-1c-0.4-0.7-0.3-1.5-0.2-2.3c0-0.2,0.1-0.4,0.2-0.5c0.1-0.1,0.2-0.2,0.3-0.3
				c0.4-0.4,0.5-1.1,0.4-1.6c0-0.9-0.1-1.9,0.6-2.5c0.3-0.3,0.7-0.4,0.9-0.7c0.4-0.4,0.4-1.1,0.9-1.3c0.2-0.1,0.3-0.1,0.5-0.1
				c0.5,0,1.1,0,1.6,0c0.5,0,1.1,0,1.3,0.4c0.1,0.1,0.1,0.3,0.3,0.4c0.1,0.1,0.3,0.2,0.4,0.2c1.2,0.2,2.5,0.3,3.7,0.2
				c0.2,0,0.4,0,0.5,0.1c0.1,0.1,0.1,0.2,0.2,0.4c0.2,0.4,0.9,0,1.2,0.2c0.2,0.1,0.4,0.4,0.5,0.6c0.1,0.2,0.4,0.5,0.7,0.4
				c0.1-0.1,0.2-0.2,0.3-0.3c0.4-0.5,1-0.8,1.6-0.7c0.5,0.1,0.9,0.4,1.3,0.8c0.9,0.7,1.8,1.5,2.3,2.5c0.4,0.8,0.6,1.7,1.3,2.2
				c0.5,0.4,1.1,0.4,1.7,0.6c0.6,0.2,1.2,0.6,1.2,1.2c0.6-0.2,1.2-0.6,1.7-1.1c0.3-0.3,0.6-0.7,0.9-0.9c0.3-0.2,0.7-0.3,1-0.4
				c0.5-0.1,1-0.1,1.4,0.1c0.4,0.2,0.7,0.8,0.4,1.2c0.6-0.2,1.3,0,1.9,0.4c0.6,0.3,1.1,0.8,1.8,0.8c0.7,0,1.3-0.7,1-1.3
				c-0.4-0.8-1.8-0.3-2.3-1c-0.2-0.3-0.1-0.7,0-1.1c-0.4-0.6-1.2-0.8-1.9-0.5c-0.3,0.1-0.6,0.3-0.9,0.4c-0.8,0.2-1.6-0.6-1.7-1.4
				c-0.2-0.8,0-1.7-0.2-2.5c-0.3-1.7-1.8-2.9-3.3-3.7c-0.2-0.1-0.4-0.2-0.5-0.4c-0.1-0.2-0.1-0.4-0.2-0.7c-0.2-0.7-1-1.2-1.8-1
				c-0.1-0.9-0.2-1.9,0.2-2.7c0.2-0.4,0.6-0.8,0.6-1.2c0-0.2-0.2-0.5-0.2-0.7c-0.1-0.7,0.7-1.2,1.4-1.2c0.7-0.1,1.4,0.1,2-0.2
				c0.5-0.2,0.8-0.6,1.3-1c0.4-0.3,1-0.6,1.5-0.4c0.6,0.2,0.8,0.9,0.9,1.5c0.3,0.2,0.7,0,0.8-0.4c0.1-0.3,0-0.7-0.1-1
				c-0.2-0.6-0.5-1.1-0.6-1.7c-0.1-0.6,0-1.2,0.4-1.7c0.4-0.5,1.1-0.7,1.3-1.2c0.1-0.2,0.1-0.5,0.3-0.7c0.1-0.2,0.4-0.3,0.6-0.4
				c0.2-0.2,0.3-0.4,0.5-0.6c0.9-1.2,2.1-2.2,3.5-2.8c0.1,0.5,0.4,0.9,0.8,1.2c0.5-0.4,1.2-0.4,1.8-0.1c0.2,0.1,0.5,0.3,0.8,0.3
				c0.2-0.1,0.4-0.3,0.5-0.5c0.7-0.8,2.1-0.7,2.7-1.6c0.3-0.5,0.3-1.1,0.8-1.4c0.4-0.3,1.1,0,1.4,0.4c0.3,0.4,0.4,1,0.4,1.5
				c0.7,0.1,1.4,0.4,1.9,1c0.4,0.5,1,1.5,1.6,1.2c0.4-0.2,0.4-1.1,0.9-1c0.1,0,0.2,0.1,0.3,0.2c0.5,0.5,1.2,0.7,1.9,0.6
				c0.3,0,0.6-0.1,0.9,0c0.2,0.1,0.4,0.2,0.6,0.3c0.5,0.2,1.1-0.1,1.7-0.3c2.1-0.7,4.4,0.7,6.6,0.5c0.4,0,1,0,1,0.4
				c1,0,1.9,0.3,2.7,0.9c0.1-0.4-0.2-1-0.6-1.1c-0.2,0-0.3,0-0.5-0.1c-0.1-0.1-0.1-0.3-0.2-0.4c-0.1-0.5-0.4-1-0.9-1.3
				c-0.1,0-0.2-0.1-0.2-0.2c0-0.1,0-0.2,0.1-0.3c0.7-0.9,1.9-1.4,3-1.4c0,0,0,0,0,0c0.6,1.3,0.8,2.9,0.6,4.3c0,0.2-0.1,0.4-0.2,0.5
				c-0.2,0.2-0.4,0.2-0.6,0.4c-0.3,0.3-0.1,0.8,0.1,1.1c0,0.1,0.1,0.2,0.2,0.2c0.1,0.1,0.2,0,0.4,0c1.3-0.2,2.6,0.3,3.5,1.2
				c0.1,0.1,0.2,0.2,0.4,0.3c0.3,0.1,0.6-0.1,0.9-0.1c0.7-0.2,1.4,0.2,2,0.5c0.7,0.3,1.4,0.6,2.2,0.8c0.4,0.1,0.8,0.3,1.2,0.4
				c0.8,0.1,1.5-0.1,2.3-0.3c0.4-0.1,0.8-0.3,1-0.6c0.3-0.5,0-1.1-0.5-1.4c-0.5-0.3-1-0.3-1.6-0.3c-0.5,0-1.1,0-1.6-0.2
				c0.5-1.8-1.7-1.1-2.4-1.6c-0.6-0.4-1-1.3-1.5-1.8c-0.5-0.5-1.1-1-1.9-1.2c-0.3-0.1-0.6-0.2-0.9-0.4c-0.2-0.1-0.3-0.3-0.4-0.5
				c-0.3-0.5-0.7-1-1-1.5c-0.1-0.2-0.3-0.4-0.3-0.6c0-0.2,0-0.4,0.1-0.5c0.1-0.2,0.4-0.4,0.6-0.6c0.5-0.6-0.4-1.6-0.1-2.3
				c0.4-0.1,0.9-0.1,1.3-0.2c0.8-0.6,1.4-1.5,1.8-2.5c0.1-0.3,0.2-0.6,0.4-0.8c0.6-0.6,1.7-0.2,2.3-0.7c0.2-0.2,0.4-0.5,0.5-0.8
				c0.7-1.4,1.4-2.9,2-4.3c0.3,0.6,1.3,0.3,1.6-0.4c0.3-0.6,0.1-1.4,0.2-2.1c0.3-1.7,2.2-3.1,1.8-4.7c-0.1-0.2-0.2-0.5-0.2-0.8
				c0-0.2,0.2-0.5,0.4-0.6c0.9-1.1,1.2-2.5,1-3.9c0.2-0.1,0.5-0.1,0.7-0.1c-0.9-2-1.6-4.1-1.3-6.3c-0.6,0.3-1.4,0.4-2.1,0.4
				c0-1,0.5-1.9,1.3-2.5c0.1-0.1,0.2-0.1,0.4-0.1c0.2,0,0.2,0.4,0.4,0.6c0.2,0.2,0.6,0.1,0.8-0.1c0.2-0.2,0.3-0.6,0.4-0.9
				c0.4-0.8,1.3-1.1,2-1.6c0.7-0.5,1.2-1.6,0.6-2.2c-0.4-0.4-1-0.4-1.5-0.7c-0.8-0.5-0.8-1.7-0.7-2.6c0.2-1.4,0.2-3-1-3.7
				c-0.3-0.2-0.7-0.3-1.1-0.5c-0.7-0.4-1.1-1.1-1-1.9c-0.8-0.1-1.7-0.2-2.5-0.1c-1.6,0-3.4,0.1-4.8-0.7c-0.9-0.5-1.5-1.2-2.2-1.8
				c-0.3-0.3-0.7-0.6-1.1-0.5c-0.2,0.1-0.4,0.3-0.6,0.5c-0.6,0.9-1.1,1.8-1.7,2.6c-0.1,0.2-0.3,0.5-0.5,0.6c-0.3,0.2-0.7,0.2-1,0.1
				c-1.1-0.1-2.2-0.1-3.3-0.2c0.6,0.5,1,1.5,0.8,2.3c-1.2-0.4-2.3-0.7-3.5-1.1c-0.2-0.1-0.4-0.1-0.5-0.3c-0.1-0.1-0.1-0.3-0.1-0.4
				c-0.1-0.2-0.3-0.4-0.4-0.6c-0.7-0.9-0.7-2.1-0.6-3.3c-0.4,0.6-0.8,1.2-1.1,1.7c-0.3,0.4-1,1.2-1.4,0.8c0.2-0.3-0.3-0.5-0.6-0.8
				c-0.4-0.5,0.2-1.4-0.3-1.8c-0.2,0.3-0.6,0.5-0.9,0.4c-0.4,0-0.7-0.2-1-0.4c-0.3-0.2-0.6-0.4-0.8-0.7c-1.1-1.2-1-3.1-0.9-4.7
				c-0.6-0.1-1.3,0.4-1.4,1c-0.1,0.3,0,0.7,0,1c0,0.4-0.2,0.7-0.5,0.8c-0.4,0.1-0.8-0.3-0.9-0.8c-0.1-0.4-0.1-0.9-0.3-1.3
				c-0.3-0.6-0.9-0.9-1.5-1.1c0.2-0.5-0.2-1-0.7-1.2c-0.5-0.2-1-0.2-1.5-0.4c-0.3-0.1-0.5-0.4-0.8-0.5c-0.9-0.5-2.2-0.3-3-1.1
				c-0.1-0.2-0.3-0.4-0.5-0.4c-0.4-0.1-0.6,0.3-0.9,0.6c-0.2,0.3-0.5,0.7-0.8,0.5c-0.4,0.5-1.2,0.5-1.9,0.4c-0.7-0.1-1.4-0.3-2,0
				c-0.3,0.1-0.6,0.4-0.9,0.5c-0.5,0.2-1,0.1-1.5,0.2c-0.5,0.1-1,0.4-1,0.9c0,0.2,0.1,0.4,0.1,0.6c0,0.5-0.6,0.9-1.2,0.8
				c-0.5-0.1-1-0.4-1.4-0.8c0,0.6-0.6,1-1.2,1c-0.6,0-1.1-0.3-1.6-0.6c0,0.7-0.5,1.2-1.2,1.5c-0.6,0.2-1.3,0.1-2,0
				c-0.5-0.1-1.2-0.3-1.2-0.8c-0.7,0.4-1.4,0.8-2.2,1.2c0.1,0.4-0.2,0.8-0.6,1c-0.4,0.2-0.8,0.4-1.1,0.7c-0.2,0.2-0.4,0.5-0.6,0.7
				c-0.5,0.4-0.9,0-1.4,0c-0.4,0-0.9,0.1-1.3,0.2c-1,0.3-1.9,0.8-2.6,1.6c-0.4,0.5-0.8,1.2-1.4,1.5c-0.7,0.4-1.7,0.3-2.3,0.9
				c-0.2,0.2-0.3,0.5-0.6,0.6c-0.7,0.4-1.6-0.4-2.3-0.1c0,0.3-0.1,0.6-0.1,0.9c-0.8,0.1-1.6-0.1-2.2-0.7c-0.3-0.2-0.6-0.5-0.9-0.3
				c-0.1,0.1-0.2,0.2-0.3,0.3c-0.6,0.5-1.7-0.8-2.2-0.2c0.3,0.3-0.2,0.8-0.6,0.8c-0.4-0.1-0.7-0.4-1.1-0.7c-0.9-0.7-2.1-0.7-3.2-0.5
				c-0.6-0.4-1.6,0.1-1.6,0.9c-0.3-0.1-0.6-0.2-0.9-0.3c0.5,1,0.6,2.3,0.1,3.4c-0.5,0-1.1,0.1-1.5,0.5c0.1-0.4-0.3-0.7-0.6-0.8
				c-0.4-0.1-0.7,0.1-1.1,0.2c-0.1,1.2,0.3,2.5,1,3.5c0.1,0.2,0.3,0.4,0.3,0.6c0.1,0.3-0.1,0.7-0.4,0.8c-0.3,0.2-0.7,0.1-0.9-0.1
				c-0.1-0.1-0.2-0.3-0.4-0.4c-0.1,0-0.3,0-0.4,0c-0.5,0-0.9-0.4-1.1-0.8s-0.2-0.9-0.2-1.4c-0.5-0.2-0.9,0.4-1.1,0.8
				c-0.2,0.5-0.5,1-1,1.1c0,0.2,0,0.4,0,0.5c0.7-0.1,1.1,0.7,1.2,1.4c0.1,0.7-0.1,1.4-0.6,1.9c-0.5,0.4-1.5,0.3-1.7-0.4
				c-0.1-0.2,0-0.5-0.2-0.7c-0.3-0.4-0.9-0.1-1.3,0.1c-0.5,0.3-0.9,0.7-1.4,1c-0.8-0.1-1.5-0.2-2.3-0.2c-0.1,0.4-0.5,0.8-0.9,0.9
				c-0.4,0.1-0.9-0.1-1.2-0.5c-0.2-0.2-0.2-0.6-0.5-0.8c-0.4-0.3-1-0.1-1.5,0.2c-0.1,0.1-0.3,0.2-0.2,0.3c0,0.1,0.1,0.2,0.2,0.2
				c0.7,0.6,0.6,1.7,0.4,2.7c0,0.2-0.1,0.4-0.2,0.6c-0.3,0.4-1.2,0.3-1.3,0.8c0.6,0,1.4,0.1,1.6,0.6c0.3,0.7-0.4,1.5-0.1,2.2
				c-0.2,0.3,0.1,0.6,0.1,1c0.1,0.4-0.3,0.8-0.7,0.9c-0.4,0.1-0.8,0-1.2-0.1c0.2-0.7-0.2-1.5-0.6-2.1c-0.5-0.8-0.9-1.6-1.4-2.3
				c-0.2-0.3-0.7-0.7-1-0.5c-0.1,0.1-0.1,0.3-0.2,0.5c-0.2,0.4-0.7,0.4-1.1,0.4s-0.8-0.2-1.2-0.1c-0.8,0.2-0.9,1.3-1.7,1.6
				c-0.4,0.2-0.9,0.1-1.3,0.2c-0.8,0.1-1.6,0.8-1.8,1.6c0,0.2-0.1,0.4-0.2,0.5c-0.3,0.4-0.9,0.1-1.3-0.2c-0.2,0.4,0,1-0.2,1.4
				c-0.3,0.5-1.1,0.5-1.6,0.2c-0.5-0.3-1-0.8-1.6-0.9c-1-0.2-2.1,0.7-2.8,0.1c-0.2-0.1-0.3-0.4-0.5-0.4c-0.4,0-0.6,0.4-0.9,0.6
				c-0.6,0.2-1.2-0.6-1.8-0.5c-0.4,0.1-0.5,0.7-0.6,1.1c-0.1,0.9-0.4,1.7-0.8,2.4c-0.1,0.2-0.2,0.4-0.5,0.4c-0.3,0-0.4-0.4-0.4-0.6
				c0-1.1,0.2-2.3-0.4-3.1c-0.4-0.5-1.1-0.7-1.6-1.1c-0.4-0.4-0.7-0.9-1-1.3c-0.3-0.5-0.8-0.9-1.4-0.8c-0.4,0.4,0,1,0.2,1.6
				c0.2,0.4,0.2,0.8,0.2,1.2c0.1,1.1,0.1,2.2,0.2,3.3c0,0.3,0,0.6-0.1,0.9s-0.6,0.4-0.8,0.2c-0.1-0.1-0.1-0.3-0.1-0.4
				c-0.1-1-0.2-1.9-0.4-2.9c0-0.3-0.1-0.6-0.3-0.8c-0.5-0.4-1.3,0-1.8-0.3c-0.1,0.4,0.4,0.7,0.7,1c0.2,0.2,0.3,0.5,0.4,0.8
				c0.2,0.6,0.5,1.2,0.4,1.8c0,0.6-0.5,1.3-1.1,1.4c-0.1-0.5-0.3-0.9-0.5-1.4c-0.2,0.5,0.1,1,0.3,1.5c0.2,0.5,0.4,1.1,0,1.5
				c-0.3-0.2-0.8-0.3-1.1-0.1c-0.4,0.4,0.1,1.2-0.3,1.5c-0.2,0.1-0.4,0.1-0.6,0c-0.4-0.1-0.7-0.1-1.1,0c-0.3,0.1-0.6,0.4-0.6,0.8
				c0,0.3,0.3,0.6,0.3,1c0,0.5-0.4,0.8-0.8,1.1c-0.4,0.3-0.7,0.8-0.4,1.2c-0.4,0-0.6,0.5-0.7,0.9c-0.2,0.7-0.3,1.3-0.5,2
				c0,0.1-0.1,0.2-0.2,0.3c-0.4,0.3-0.9-0.5-1.3-0.3c-0.1,0.2-0.1,0.3-0.2,0.5c-0.2-0.2-0.3-0.4-0.5-0.2c-0.2,0.3-0.2,0.6-0.3,0.9
				c-0.3,1.2-0.9,2.3-1.6,3.4c-0.3,0.4-0.7,1-1.2,0.8c0.2,1.2-1,2.4-2.2,2c0.3,0.3,0.1,0.9-0.4,0.9c-0.4,0-0.7-0.3-0.7-0.7"/>
			<path class="st2" d="M255.9,530.6c0,0,0-0.1,0-0.1C256,530.5,256,530.6,255.9,530.6z"/>
			<path class="st2" d="M270.3,651.4c0-0.1,0.1-0.2,0.1-0.2c0,0,0-0.1,0-0.1c0.1,0,0.2,0,0.4,0c1-0.1,2.1,0.3,2.9-0.3
				c0.6-0.4,0.8-1.2,0.9-1.8c0.2-1,0.5-2.3-0.3-3.1c-0.1-0.1-0.3-0.2-0.4-0.4c-0.3-0.5,0.3-1.1,0.4-1.7c0.1-0.6-0.4-1.1-0.5-1.7
				c-0.2-1,0.6-2.1,0.2-3.2c-0.2-0.7-0.9-1.1-1.2-1.8c-0.3-0.9,0.3-1.8,0.4-2.8c0-0.6-0.2-1.1-0.3-1.7c-0.1-0.9,0.1-1.9,0.2-2.8
				c0.1-1,0-2.1,0-3.1c-0.1-2.7-0.4-5.4-0.2-8.1c0.1-2.8,0.3-5.7,0.4-8.5c0-0.8,0.1-1.6,0.2-2.4c0.2-1.1,0.6-2.1,1-3.1
				c0.2-0.4,0.4-0.9,0.7-1.2c0.2-0.2,0.4-0.4,0.5-0.6c0-0.2,0-0.3,0-0.5c-0.2-1-0.6-2.1,0-2.9c0.2-0.2,0.5-0.4,0.6-0.7
				c0.3-0.5,0.3-1.1,0.3-1.7c-0.1-1.5-0.1-2.9-0.2-4.4c-0.1-1-0.1-2-0.6-2.9c0.5-0.1,0.6-0.7,0.8-1.2c0.3-1.1,1.2-1.9,1.9-2.8
				c1.3-1.7,2.1-3.7,2.3-5.8c1.2-0.1,1.9-1.7,1.2-2.6c-0.5-0.7-1.6-1-1.7-1.8c-0.1-0.3,0-0.6-0.1-0.9c-0.2-0.5-0.8-0.8-0.6-1.4
				c-0.4-0.2-1.3,0.1-1.8,0.1c-0.5,0-1-0.2-1.2-0.6c-0.2-0.4,0.1-0.9,0-1.4c-0.1-0.5-0.6-0.9-0.9-1.3c-0.2-0.2-0.3-0.5-0.3-0.8
				c0-0.3,0.1-0.5,0.3-0.6c0.2-0.1,0.4-0.1,0.5-0.2c0.2-0.1,0.2-0.4,0.2-0.6c0-0.4,0-0.7,0-1.1c0-0.2,0-0.4-0.1-0.5
				c-0.2-0.3-0.7-0.2-1,0.1c-0.2,0.3-0.3,0.7-0.3,1.1c0,0.6-0.1,1.2-0.1,1.8c0,0.4-0.1,0.9-0.1,1.3c0,0.2,0,0.4-0.1,0.5
				c-0.1,0.1-0.3,0.2-0.5,0.1c-0.5-0.4-0.8-1.1-0.8-1.8c0-0.7,0.3-1.4,0.3-2.1c0-0.7-0.4-1.6-1.2-1.6c0.3-0.5,0.6-1.1,0.6-1.7
				c0.1-0.6-0.1-1.3-0.6-1.7c-0.5-0.4-1.1-0.4-1.8-0.3c-0.4,0-0.9,0.1-1.3,0.2c-0.2,0.1-0.4,0.1-0.6,0.1c-0.4,0-0.8-0.5-0.7-1
				c-0.5-0.4-1.2-0.4-1.6-0.1c-0.1,0.1-0.2,0.2-0.4,0.2c-0.1,0-0.3,0-0.4-0.1c-0.7-0.4-1.4-0.8-2-1.3c-0.2-0.2-0.5-0.4-0.8-0.3
				c-0.6,0-0.7,0.8-0.7,1.3s0.2,1.2-0.2,1.6c-0.4,0-0.7-0.4-0.8-0.7c-0.1-0.4-0.1-0.8-0.3-1.1c-0.2-0.5-0.7-0.8-1-1.2
				c-0.7-1,0.5-1.9,1.2-2.6c0.7-0.8,1.5-1.6,1.6-2.7c0-0.4,0.1-0.8,0.4-1c0.4-0.2,0.8,0.2,1,0.5c0.2,0.3,0.4,0.8,0.8,0.9
				c0.5,0.2,1-0.4,1.5-0.6c0.9-0.3,1.8,0.3,2.8,0.4c0.3,0,0.7,0,1,0.2c0.3,0.1,0.5,0.5,0.4,0.8c0.4,0.1,0.7-0.3,0.8-0.7
				c0.1-0.4,0-0.8,0-1.1c0-0.4,0.3-0.8,0.7-0.8c0.4,0,0.6,0.5,0.7,0.9c0.1,0.4,0.1,0.9-0.1,1.3s-0.7,0.6-1.1,0.4
				c-0.3,0.2-0.1,0.7,0.2,0.8s0.6,0.2,1,0.3c0.3,0.1,0.6,0.4,0.7,0.8c0.8-0.3,1.6-0.7,2.4-1c0-0.5,0.7-0.8,1.2-0.7
				c0.5,0.2,0.8,0.6,1,1.1c0.1,0,0.3-0.1,0.4-0.1c0.3-0.4-0.1-1-0.6-1.3c-0.5-0.2-1.1-0.3-1.4-0.8c-0.2-0.4-0.1-0.9-0.2-1.3
				c-0.1-0.5-0.4-1-0.8-0.9c-0.3,0-0.6,0.3-0.8,0.1c0-0.1,0-0.1-0.1-0.2c-0.1-0.5-0.1-1-0.2-1.5c-0.6-0.1-0.8,0.3-1.2-0.2
				c-0.3-0.3-0.1-0.9-0.4-1.2c-0.6-0.5-1.5,0.1-2.2-0.2c0.2-0.6,0.5-1.3,0.2-1.9c-0.1-0.3-0.3-0.5-0.3-0.8c0-0.8,1.2-0.9,1.6-1.5
				c0.2-0.3,0.2-0.7,0.6-0.8c0.1,0,0.3,0,0.4-0.1c0.2-0.1,0.2-0.5,0.3-0.7c0.1-0.5,0.7-0.7,1.2-0.5c0.1-0.8,0.5-1.5,1.1-2
				c0.2-0.3,0-0.7-0.4-0.9c-0.3-0.1-0.7-0.1-1.1-0.1c-0.4,0-0.8-0.1-0.9-0.4c-0.1-0.2-0.1-0.4-0.2-0.6c-0.1-0.6-0.8-1.1-1.4-0.9
				c-0.5,0.2-0.7,0.7-1,1c-0.3,0.4-0.9,0.7-1.2,0.3c-0.1,0.4-0.3,0.9-0.5,1.3c-0.1,0.3-0.5,0.3-0.7,0.1c-0.2-0.2-0.3-0.5-0.4-0.8
				c-0.1-0.3-0.2-0.6-0.5-0.7c-0.3-0.1-0.6-0.1-0.8-0.2c-0.2-0.1-0.2-0.4-0.4-0.6c-0.4-0.5-1.2-0.3-1.8-0.1
				c-0.6,0.2-1.5,0.2-1.6-0.4c-1,0.9-2.6,0-3.8,0.5c0.2,1,0.5,2,0.7,2.9c0.1,0.2,0.1,0.4,0,0.6c-0.1,0.1-0.2,0.2-0.4,0.2
				c-0.5,0.1-1.1-0.3-1.3-0.8c-0.2-0.5-0.2-1.1-0.2-1.7c-0.1-0.6-0.2-1.2-0.6-1.6c-0.2-0.2-0.5-0.4-0.7-0.6
				c-0.1-0.2-0.2-0.5-0.2-0.8c-0.3-1.1-1.4-1.8-1.9-2.8c-0.2-0.3-0.2-0.7-0.1-1c0.1-0.3,0.4-0.5,0.7-0.8c0.4-0.5,0.9-1.1,0.9-1.8"/>
			<path class="st2" d="M55.5,475.2c-0.1,0.1-0.2,0.1-0.2,0.3"/>
			<path class="st2" d="M55.5,475.2c0-0.1-0.1-0.1-0.2-0.1c-0.3,0.5-0.4,1-0.2,1.6c0,0.1,0.1,0.3,0.1,0.4c0,0.2-0.2,0.3-0.3,0.4
				c-0.5,0.4-1,1-0.6,1.5c0.3,0.5,1.2,0.4,1.6,0.8c0.3,0.3,0.3,0.8,0.6,1c0.2,0.1,0.5,0.2,0.6,0.4c0.1,0.2,0.2,0.4,0.2,0.6
				c0,0.6,0.1,1.1,0.1,1.7c0.9-0.1,2,0.5,2.1,1.5c0.1,0.9-0.6,1.7-0.9,2.5c-0.6,1.5,0,3.3,0.6,4.8c0.1,0.2,0.2,0.4,0.3,0.5
				c0.1,0.1,0.3,0.1,0.4,0.2c0.6,0.1,1.2,0.2,1.8,0.4c1.2,0.2,2.4,0.5,3.7,0.5c1.3,0,2.6-0.4,3.9-0.3c0.5-1.5-0.1-3.1-0.7-4.6
				c-0.3-0.7-0.5-1.4-1-1.9c-0.6-0.7-1.6-1.2-1.8-2.1c-0.1-0.4-0.1-0.8-0.4-1.1c-0.1-0.1-0.4-0.2-0.4-0.4c-0.1-0.2,0-0.5,0-0.7
				c-0.1-0.4-0.7-0.4-1.1-0.2c-0.4,0.2-0.8,0.5-1.2,0.4c-0.4-0.1-0.5-0.5-0.7-0.9c-0.7-1.7-1.6-3.2-2.7-4.7c-0.8-1-1.8-2-3-2.3
				C56,475.1,55.7,475.1,55.5,475.2z"/>
			<path class="st2" d="M55.5,475.4c0,0,0-0.1,0-0.1"/>
			<path class="st2" d="M2,524.1c0-0.1,0-0.2,0-0.4c0-0.3,0.2-0.5,0.5-0.5c0.2,0,0.5,0,0.8,0.1c0.5,0.1,0.9,0,1.4,0
				c0.3,0,0.7-0.1,1-0.2c0.3-0.2,0.5-0.6,0.4-0.9c-0.1-0.3-0.4-0.4-0.7-0.5c-0.5-0.2-0.9-0.4-1.4-0.6c-0.6-0.3-1.6-0.3-2.2-0.7
				c-0.3-0.2-0.5-0.4-0.7-0.6c-0.3-0.2-0.6-0.2-0.9-0.2c0,0.9,0,1.8,0,2.7c0,0.4-0.2,1.4,0.1,1.8C0.5,524.3,1.8,524.5,2,524.1z"/>
			<path class="st2" d="M93,473.5c1-0.2,2-0.3,3-0.2c0.4,0,0.9,0.1,1.1-0.3c0.1-0.1,0.1-0.3,0.1-0.4c0-1.1-0.6-2.1-1.1-3.1
				c0.9,0.1,1.8,0.4,2.5,0.9c0.3,0.2,0.7,0.4,0.9,0.2c0.1-0.1,0.1-0.2,0.1-0.3c0.2-0.4,0.7-0.6,1.1-0.4c0.2,0.7,0.4,1.3,0.8,1.9
				c0.2,0.3,0.4,0.6,0.6,0.9c0.8,1,1.8,1.9,2.9,2.5c0.3,0.1,0.5,0.3,0.7,0.5c0.2,0.2,0.2,0.4,0.4,0.5c0.2,0.3,0.5,0.4,0.8,0.7
				c0.3,0.3,0.5,0.8,0.7,1.1c0.2,0.3,0.6,0.6,0.9,0.8c0.8,0.6,1.6,1.2,2.6,1.5c0.4,0.1,1,0.2,1.3,0.5c0.3,0.3,0.3,1.1-0.2,1.1
				c-0.2,0-0.5-0.1-0.7-0.3c-0.3-0.3-0.6-0.6-1-0.8c-0.4-0.2-1-0.1-1.2,0.3c-0.2,0.3-0.1,0.9-0.5,0.9c-0.1,0-0.2-0.1-0.3-0.2
				c-0.4-0.5-0.3-1.3-0.7-1.8c-0.5-0.6-1.5-0.6-1.7-1.3c0-0.2,0-0.4-0.1-0.5c-0.1-0.1-0.4-0.1-0.6-0.1c-1.3,0-2.4-1.2-3.6-1.6
				c-0.3-0.1-0.7-0.2-0.9-0.3c-0.4-0.3-0.6-0.8-1-1c-0.5-0.2-1,0-1.5-0.2c-0.2-0.1-0.4-0.3-0.7-0.4c-0.4-0.2-0.8-0.2-1.2-0.2
				c-0.8,0-1.6,0.1-2.3,0.1c-0.4,0-0.9,0-1.2-0.3C92.7,474.1,92.7,473.6,93,473.5c0-0.1,0.1-0.2,0.2-0.1"/>
			<path class="st2" d="M53.1,224C53.1,224,53.1,224,53.1,224c0-0.4-0.3-0.7-0.6-0.9c-0.3-0.2-0.7-0.3-1.1-0.5
				c-0.3-0.2-0.5-0.4-0.8-0.4c-0.5,0-0.7,0.5-1,0.9c-0.3,0.5-1.2,1-1.6,0.5c-0.1-0.1-0.2-0.3-0.2-0.5c-0.3-1.2-0.2-2.6,0.1-3.8
				c0.2-0.5,0.4-1.1,1-1.2c0.6-0.1,1,0,1.5-0.3c0.5-0.3,0.8-1.1,0.4-1.5c-0.2-0.2-0.5-0.6-0.2-0.7c0.4,0,0.8,0.3,1.1,0.5
				c0.4,0.2,0.9,0.2,1.1-0.2c0.2-0.3,0-0.7-0.2-1c-0.2-0.3-0.5-0.5-0.7-0.8c0.4-0.2,0.9,0.1,1.3,0.3c0.4,0.2,0.8,0.4,1.2,0.2
				c0.4-0.1,0.6-0.7,0.3-1c0.5-0.5,0.9-1.2,1.1-1.9c-0.8-0.3-1.5-1.1-1.6-2c-0.1-0.4,0-1-0.4-1.2c0.6,0.1,0.9,0.8,1.2,1.4
				c0.3,0.6,0.9,1.2,1.4,0.9c0.4-0.2,0.7-0.7,1-0.5c0.2,0.1,0.2,0.3,0.3,0.5c0.2,0.9,0.4,1.9,0,2.8c-0.1,0.2-0.3,0.5-0.4,0.7
				c-0.3,0.6-0.2,1.3,0.2,1.8c0.4,0.5,0.9,0.8,1.6,0.8c0.4,0,0.8,0,1.2-0.1c1.6-0.3,3.2-0.6,4.8-0.8c0.2,0,0.4-0.1,0.6-0.2
				c0.6-0.3,0.6-1.2,0.5-1.9c0.4-0.2,0.7-0.5,0.9-0.8c0.7-1.1,0.5-2.6,1.4-3.5c0.1-0.1,0.2-0.2,0.3-0.3c0.1-0.2,0.2-0.4,0.2-0.6
				c0-1-1.1-1.7-2-2.2c0.2-0.3,0.7-0.4,1.1-0.2c0.4,0.1,0.7,0.4,1.1,0.4c1.3,0.3,2.6-1,3.8-0.5c0.3,0.1,0.5-0.1,0.8-0.2
				c0.3-0.1,0.6-0.4,0.8-0.6c0.5-0.5,1-1,1.1-1.7c0-0.2,0-0.5,0.1-0.7c0.1-0.2,0.2-0.4,0.4-0.5c0.5-0.8,0.4-1.9,0.3-2.8
				c-0.1-0.4-0.1-0.9-0.2-1.4c-0.1-1-0.3-2.1-1.2-2.5c-0.2-0.1-0.5-0.2-0.6-0.3c-0.2-0.2-0.3-0.5-0.1-0.7c0.2-0.1,0.6,0,0.8,0.2
				c0.2,0.2,0.3,0.4,0.5,0.7c0.7,1,2.2,1.4,3.3,0.8c0.2,0.4-0.2,0.9-0.6,1.2c-0.3,0.3-0.7,0.9-0.3,1.2c0.1,0.1,0.3,0.1,0.4,0.2
				c0.6,0.1,1.3,0,1.9,0c0.7,0,1.3,0.1,1.8,0.5c0.2,0.2,0.3,0.4,0.5,0.4c0.4,0.1,0.6-0.2,0.9-0.5c1.2-1.5,2.7-2.8,4.3-3.9
				c0.3-0.2,0.5-0.4,0.9-0.4c0.4,0,0.7,0.1,1.1,0.3c1.1,0.4,2.3,0.4,3.4,0c-0.1,0.5-0.4,0.9-0.9,1.1c-0.5,0.2-1,0.2-1.5,0.3
				c-0.8,0.1-1.5,0.1-2.2,0.4c-0.7,0.3-1.3,0.8-1.5,1.5c0,0.1-0.1,0.2,0,0.4c0.1,0.2,0.3,0.2,0.5,0.3c0.5,0.1,1,0.1,1.4,0
				c0,0.3,0,0.5,0,0.8c-1.6-0.4-3.4-0.2-4.9,0.6c-0.3,0.2-0.7,0.4-0.9,0.7c-0.3,0.5-0.2,1.2-0.7,1.4c-0.5,0.2-1.2-0.2-1.5,0.2
				c-0.1,0.1,0,0.3,0,0.4c0.1,0.8,0.2,1.7,0.3,2.5c-0.1,0.2-0.4,0.2-0.6,0c-0.2-0.1-0.3-0.4-0.4-0.5c-0.6-0.7-1.6-0.7-2.4-0.4
				c-0.8,0.4-1.4,1.1-1.9,1.8c-0.2,0.2-0.3,0.4-0.2,0.7c0.1,0.1,0.2,0.2,0.2,0.4c0.1,0.3-0.1,0.6-0.4,0.8c-0.3,0.2-0.6,0.2-0.9,0.4
				c-0.8,0.5-0.7,1.7-0.4,2.6c0.2,0.6,0.4,1.2,1,1.5c0.2,0.1,0.5,0.2,0.7,0.4c0.3,0.3,0.3,0.8,0,1c-0.2,0.3-0.7,0.4-1.1,0.2
				c-0.4-0.1-0.7-0.5-1.1-0.7c-0.4-0.2-0.9-0.2-1.1,0.1"/>
			<path class="st2" d="M72.9,213.8C72.9,213.9,72.9,213.9,72.9,213.8c-0.6,0.7-1.5,0.9-1.7,1.7c-0.1,0.2-0.1,0.4,0,0.6
				c0.1,1.1,0.1,2.1,0.2,3.2c0,0.3,0,0.6-0.1,0.8c-0.1,0.2-0.4,0.3-0.6,0.5c-0.3,0.3-0.4,0.9-0.5,1.3c-0.1,0.6,0,1.3-0.2,1.9
				c-0.2,0.6-1.1,0.9-1.5,0.4c0-0.9,0.6-1.7,0.9-2.5c0.3-0.9,0.4-1.9,0.1-2.8c-0.9-0.3-2,0.4-2.1,1.3c0,0.1,0,0.1-0.1,0.2
				c-0.2,0.2-0.5-0.1-0.8-0.3c-0.3-0.3-0.8-0.4-1.3-0.4c-1.3-0.1-2.6-0.1-3.9,0.1c-0.3,0-0.6,0.1-0.7,0.3c0,0.1-0.1,0.2-0.1,0.4
				c-0.1,0.3-0.5,0.5-0.9,0.6c-0.4,0.1-0.8,0-1.1,0.2c-0.6,0.2-0.9,0.9-1.2,1.4c-0.4,0.5-1.1,1-1.6,0.6c0.3-0.5,0.2-1.2-0.2-1.6
				c-0.4-0.4-1.1-0.4-1.6-0.1c-0.7,0.4-0.8,1.4-0.9,2.2"/>
			<path class="st2" d="M252.7,0.8c0,0.1-0.1,0.1-0.1,0.2c-0.7,1.2-1,2.7-0.9,4.1c0,0.7,0.2,1.5-0.1,2.2c-0.5,1.1-2.2,1.6-2.4,2.8
				c-0.1,0.7,0.3,1.3,0.5,2c0.2,0.7,0.1,1.6-0.6,1.8c-0.9,0.3-1.8-1.2-2.7-0.8c0-0.5-0.6-0.7-1.1-0.7c-1.4-0.1-2.9,0-3.8,1
				c-0.4,0.4-0.6,1-0.8,1.6c-0.6,1.7-1.2,3.4-1.8,5.2c-0.2,0.5-0.4,1.1-0.3,1.7c0,0.3,0.1,0.6,0.2,0.9c0,0.2,0.1,0.4,0,0.7
				c-0.1,0.3-0.3,0.5-0.4,0.7c-1,1.4-1.6,3.2-1.3,4.9s1.8,3.2,3.5,3.3c0.3,0,0.6,0,0.9,0.1c0.8,0.3,1.1,1.2,1.4,1.9
				c0.5,1.2,1.4,2.3,2.1,3.4c0.1,0.2,0.2,0.3,0.3,0.5c0.8,1.3,1.2,3,0.6,4.4c-0.4,0.8-1.1,1.4-1.6,2.1c-1.9,2.6-1.4,6.7,1.1,8.7
				c0.9,0.7,0.9,2.3,0.2,3.1c-0.4-0.1-0.8-0.1-1.2,0c-0.4,0.2-0.6,0.6-0.4,1c0.7-0.3,1.6,0.2,1.9,0.9c0.1,0.3,0.1,0.6,0.4,0.7
				c0.2,0.1,0.4,0,0.6-0.2c0.5-0.3,1.1-0.5,1.7-0.5c0.6,0.1,1.1,0.5,1.1,1.1c0,0.3-0.2,0.6-0.4,0.9c-0.6,0.8-1.3,1.5-2.2,1.8
				c-1.5,0.3-3.2-0.8-4.6-0.1c0.3,0.4,0.9,0.5,1.4,0.5c1.7,0.1,3.4,0.3,5.1,0.4c0.2,0,0.4,0,0.6-0.1c0.6-0.3,0.3-1.1,0.2-1.8
				c-0.1-1,0.9-1.9,1.8-2.2c1-0.3,2.1-0.1,3.1,0.1c1.6,0.3,3.1,0.6,4.7,0.9c2.1,0.4,4.4,0.7,6.2-0.5c-5.4-1.8-11.2-2.4-16.4-4.5
				c-0.7-0.3-1.5-0.6-1.8-1.3c-0.2-0.4-0.2-0.9-0.1-1.3c0.1-1.3,0.1-2.6,0.6-3.7c0.2-0.4,0.4-0.8,0.6-1.2c0.5-1.1,0.7-2.3,0.6-3.5
				c0.5-0.1,0.9-0.2,1.4-0.3c0.7,1.1,1.4,2.2,2.1,3.3c0.1,0.2,0.3,0.5,0.5,0.7c0.3,0.2,0.6,0.4,0.8,0.7c0.1,0.2,0.1,0.5,0.2,0.7
				s0.3,0.5,0.5,0.4c0.2-0.1,0.2-0.3,0.2-0.5c0-0.8-0.4-1.6-0.8-2.4c-0.7-1.4-1.1-2.9-1.4-4.4c-0.1-0.5-0.1-1,0.2-1.4
				c0.5-0.7,1.5-0.5,2.3-0.7c0.9-0.2,1.7-0.9,1.9-1.8c1.1-0.1,2.1-0.7,2.8-1.6c0.6,0.1,1.1-0.5,1.1-1c0.1-0.6-0.1-1.1-0.3-1.6
				c-0.2-0.2-0.5,0.3-0.9,0.3c-0.3,0-0.4-0.3-0.6-0.5c-0.4-0.3-0.9,0-1.2,0.4c-0.3,0.3-0.5,0.8-1,0.9c-0.4,0.1-0.7,0-1.1-0.1
				c-0.9-0.1-1.8,0.5-2.6,1c-1.3,0.8-2.5,1.7-3.8,2.5c-0.4,0.2-0.8,0.5-1.2,0.4c-0.4-0.1-0.8-0.4-1-0.8c-0.1-0.2-0.2-0.3-0.3-0.5
				c-0.3-0.5-0.6-1.1-0.8-1.6c-0.2-0.6-0.4-1.2-0.9-1.5c-0.1-0.1-0.2-0.1-0.2-0.2c-0.1-0.2,0.2-0.4,0.5-0.5c0.6-0.4,0.6-1.4,0.1-2
				c-0.5-0.6-1.2-0.9-1.9-1.2c-1.6-0.8-3.2-2.4-2.9-4.2c0.1-0.4,0.3-0.8,0.3-1.2c0.1-0.8-0.3-1.6-0.7-2.4c0.7-0.3,1.2-1,1.8-1.4
				c0.9-0.6,2.1-0.8,3.3-0.9c0.6,0,1.3-0.1,1.8,0.2c0.4,0.2,0.6,0.7,1,1c0.3,0.4,0.8,0.6,1.2,0.5c0-0.5,0-0.9-0.1-1.4
				c-0.4-0.6-0.5-1.3-0.3-2c0.3,0.3,0.9,0.2,1.2-0.2c0.3-0.4,0.3-0.9,0.2-1.4c-0.1-0.5-0.2-0.9,0-1.4c0.2-0.8,0.9-1.3,1.5-1.7
				c0.2,1.3,1.5,2.4,2.8,2.3c0.6-0.1,1.2-0.5,1.1-1c-0.1-0.4-0.7-0.6-1.1-0.5c-0.4,0-0.9,0.1-1.3-0.1c-0.5-0.3-0.6-0.9-0.5-1.4
				c0.2-1.2,1.3-2.3,2.5-2.4c0.1,0,0.2,0,0.3,0c0.1,0.1,0.2,0.2,0.3,0.3c0.2,0.2,0.6,0.1,0.8-0.2c0.2-0.3,0.1-0.6,0-0.9
				c-0.3-0.7-1.1-1.2-1.8-1.1c-0.2,0-0.4,0.1-0.6,0.1c-0.8-0.1-1-1.1-0.9-1.8c0-1.2,0.3-2.6,1.3-3.4c0.6-0.4,1.3-0.6,2-0.5
				c0.7,0.1,1.5,0.6,2.1,0.2c0.2-0.1,0.3-0.2,0.5-0.4c0.8-0.6,1.9-0.2,2.8,0.1c0.5,0.2,1.1,0.4,1.6,0.2c0.2-0.1,0.4-0.2,0.6-0.4
				c0.6-0.6,1.1-1.3,1.4-2h-12.7h-0.3"/>
			<path class="st2" d="M382.8,470.2c-0.1,0-0.2,0.1-0.3,0.1c-0.3,0.2-0.5,0.7-0.6,1c-0.6,1.2-2.1,1.9-2.4,3.2
				c-0.1,0.3,0,0.6-0.2,0.9c-0.1,0.2-0.3,0.3-0.5,0.4c-1.2,0.9-0.6,2.9-1.5,4.1c-0.2,0.3-0.6,0.6-0.8,0.9c-0.2,0.4-0.3,0.8-0.4,1.2
				c0,0.1,0,0.1,0,0.2c-0.2,1-0.3,2.1-0.3,3.2c0,0.5,0,1-0.2,1.5c-0.2,0.7-0.7,1.2-0.9,1.9c-0.4,1-0.3,2.2,0.3,3.1
				c0.4-0.1,0.4-0.6,0.4-1c0-0.4-0.1-0.9,0.3-1.1c0.2-0.1,0.5-0.1,0.6-0.3c0.1-0.1,0.1-0.3,0.1-0.5c0-0.3,0.2-0.7,0.5-0.9
				c0.3-0.2,0.7-0.1,0.9,0.1c0.2,0.3,0.1,0.7,0.2,1c0.2,0.5,0.7,0.7,1.1,1c0.9,0.7,0.8,2,0.7,3.1c0,0.3-0.1,0.6,0,0.8
				c0.1,0.2,0.2,0.4,0.4,0.5c0.7,0.8,1.5,1.6,2.2,2.4c0.1,0.1,0.3,0.3,0.5,0.3c0.4,0,0.5-0.4,0.8-0.7c0.5-0.7,1.7-0.7,2.2-0.1
				c0.8-0.8,2.1-1.3,3.2-1c0.3,0.1,0.6,0.2,0.9,0.3c0.3,0,0.7-0.1,0.8-0.4c0.1-0.2,0-0.4,0.1-0.6c0.1-0.5,0.5-0.8,0.9-1
				c0.4-0.2,0.9-0.1,1.4-0.1c0.6,0,1.2,0,1.8,0c0.4,0,1-0.1,1.1-0.5c0-0.1,0-0.3,0-0.5c-0.1-0.7-0.2-1.3-0.3-2
				c0-0.2-0.1-0.4,0.1-0.6c0.2-0.2,0.5-0.2,0.7-0.4c0.3-0.3,0.1-0.8-0.1-1.1c-0.5-0.7-1-1.5-1.4-2.2c-0.2-0.3-0.3-0.5-0.6-0.7
				c-0.2-0.1-0.5-0.1-0.7-0.1c-0.5,0-1.1,0-1.6,0c0-0.9,0.1-1.9,0.1-2.8c0.6,0.2,1.2-0.3,1.2-0.9c0-0.6-0.4-1.1-0.9-1.5
				c-0.5-0.3-1-0.6-1.5-0.9c-0.5-0.4-0.9-0.9-0.8-1.5c0.6-0.1,1.3-0.2,1.6-0.7c0.2-0.2,0.2-0.6,0.2-0.9c0-0.1,0-0.3,0-0.5
				c0-0.6,0-1.1-0.2-1.7c-0.3-0.7-0.8-1.2-1.6-1.4c-0.1-0.8-0.8-1.4-1.6-1.4c-0.5,0-1,0.1-1.3-0.1c-0.6-0.5-0.2-1.6-0.7-2.1
				c-0.2-0.2-0.5-0.2-0.7-0.2c-1.2-0.1-2.4,0.3-3.3,1c0,0-0.1,0.1-0.1,0.1"/>
			<path class="st2" d="M441,356c-0.1-0.3-0.4-0.5-0.6-0.7c-0.4-0.4-0.6-1.1-0.9-1.6c-0.3-0.5-1-1-1.5-0.7c-0.2,1.4-0.6,2.8-1.3,4
				c-0.8,0-0.9-1.1-0.9-1.8c0-0.8-0.3-1.8-1-1.7c-0.3,1.4,0.3,2.9-0.3,4.2c-0.6,1.5-2.4,2-3.7,3.1c-0.7,0.6-1.2,1.4-1.7,2.2
				c-1.1,1.7-2.2,3.7-1.8,5.7c0.2,0.7,0.5,1.5,0.2,2.1c-0.1,0.1-0.2,0.2-0.2,0.4c-0.1,0.5,0.5,0.9,0.9,1c0.5,0.2,1.1,0.5,1.1,1
				c0,0.2-0.2,0.4-0.4,0.6c-1,1-2,1.9-3,2.9c-0.8,0.8-1.6,1.9-1.1,2.8c0.4,0.6,1.4,0.4,1.9-0.1c0.6-0.4,1.1-1,1.9-1
				c0.3,1,0.3,2.1-0.1,3c-0.3-0.1-0.6-0.1-1,0s-0.6,0.4-0.5,0.7c0,0.2,0.2,0.4,0.3,0.6c0.3,0.6,0,1.2-0.2,1.8
				c-0.4,1.3-0.3,2.8,0.2,4c-0.4,0.4-1.1,0-1.5-0.3c-0.4-0.4-0.9-0.8-1.5-0.7c-0.9,0.3-0.7,1.6-1.1,2.4c0.4,0.2,0.9,0.1,1.2-0.2
				c0.6,0.1,0.9,0.7,0.9,1.3c0,0.6-0.3,1.1-0.7,1.6c-1.6,2.3-3.8,4.1-6.3,5.3c-0.9,0.4-2.4,1.3-3.2,0.4c-0.9-1-1.3-2.9-1.5-4.2
				c0-0.3,0-0.6,0.1-0.8c0.2-0.3,0.6-0.3,0.9-0.5c1-0.5,1.3-1.8,1.1-2.9c-0.2-1.1-0.9-2.1-1.2-3.1c-0.9-2.5-0.1-5.4,0.9-7.8
				c0.8-1.8,1.7-3.5,2.7-5.2c0.4-0.7,0.8-1.4,1.2-2.1c0.2-0.3,0.3-0.6,0.4-0.9c0.1-0.4,0.2-0.7,0.2-1.1c0.4-1.7,1.5-3.2,3-4
				c0.2-0.1,0.5-0.2,0.6-0.5c0.1-0.2,0.2-0.5,0.2-0.8c0.1-1.5,0.3-3,0.7-4.4c0.1-0.2,0.1-0.5,0.4-0.6c0.2-0.2,0.5-0.1,0.8-0.2
				c0.6-0.2,0.7-1.1,0.7-1.8c0.1-2.1,0.6-4.1,1.6-6c0.4-0.7,0.8-1.4,1.4-1.8c0.3-0.2,0.7-0.3,1-0.6c0.4-0.3,0.7-0.9,1-1.3
				c0.3-0.4,0.9-0.8,1.4-0.6c0.3,0.1,0.5,0.4,0.7,0.5c0.8,0.4,1.9-0.6,1.4-1.4c1.6,0.1,3.2,0.3,4.8,0.4c0.5,0,1,0.1,1.4-0.1
				c0.3-0.2,0.6-0.5,0.9-0.7c0.5-0.3,1.2-0.4,1.7-0.2c0.5,0.3,0.8,1,0.6,1.5c-0.1,0.3-0.4,0.5-0.6,0.7c-1.7,1.5-2.7,3.8-2.8,6
				c0,0.2,0,0.4,0.1,0.5c0.1,0.2,0.2,0.3,0.4,0.5c0,0,0,0,0,0.1c0.6,0.6,1.3,1.3,1.9,1.9c0.3-0.9,0.5-1.7,0.8-2.6
				c0.8-0.4,1.7,0.5,2.2,1.3c0.4-0.4,1-0.8,1.4-1.2c0.4-0.4,1-0.9,1.6-0.9c0.4,0,0.7,0.2,1.1,0.4c0.4,0.1,0.8,0.1,1-0.2
				c0.3-0.6-0.5-1.2-0.4-1.8c0-0.2,0.1-0.3,0.1-0.5c0.3-0.7,0.6-1.5,0.8-2.2c0.3-0.9,0.7-1.8,1.2-2.7c0.2-0.4,0.5-0.8,0.7-1.2
				c0.2-0.6,0.2-1.1,0.2-1.8c-0.1-0.6-0.2-1.1-0.4-1.7c-0.2-1-0.5-2-1.4-2.6c-0.2-0.2-0.5-0.3-0.7-0.5c-0.2-0.2-0.4-0.5-0.6-0.8
				c-0.3-0.6-0.7-1.2-1-1.7c-0.2-0.4-0.5-0.8-0.4-1.3s0.5-0.9,0.9-0.8c0.3,0.1,0.4,0.3,0.7,0.5c0.6,0.4,1.3,0,2-0.1
				c1.8-0.4,3.7,1,3.9,2.8c0,0.3,0,0.6-0.2,0.8c-0.1,0.1-0.3,0.2-0.4,0.4c-0.2,0.3-0.2,0.7,0,1.1c0.2,0.4,0.4,0.7,0.5,1
				c0,0.5-0.2,0.9-0.4,1.3c-0.2,0.4-0.5,0.8-0.6,1.2c0,0,0,0.1,0,0.1c0,0.4,0.2,0.9,0.6,0.9c0.5,0.1,0.8-0.3,1.3-0.5
				c0.8-0.2,1.8,0.4,2.4-0.1c0.2-0.1,0.3-0.3,0.4-0.5c0.6-0.8,1.8-1.2,2.8-0.9c0.9,0.3,1.7,1,2.7,1.1c3.3,0.1,6.2,0.9,9.5,1.5
				c0.5,0.1,1.1,0.2,1.6,0c0.5-0.1,0.9-0.5,1.3-0.9c0.2-0.2,0.4-0.4,0.6-0.6c0.4-0.4,0.8-0.8,1.2-1.2c0.7-0.6,1.4-1.4,1.2-2.3
				c-0.1-0.5-0.5-0.9-0.8-1.3c-0.9-1.1-1.4-2.5-1.5-4c0-0.2,0-0.5-0.2-0.6c-0.2-0.2-0.4-0.2-0.7-0.1c-1.2,0.3-1.9,1.7-3.1,2
				c-1.6,0.4-2.9-1.1-4-2.4c-0.4-0.5-0.9-1-1.5-1c-0.4,0-0.8,0.2-1.1,0.3c-1.2,0.5-2.5,0.8-3.8,0.8c-0.2,0-0.5,0-0.7-0.1
				c-0.3-0.1-0.5-0.4-0.7-0.7c-0.4-0.5-0.9-1-1.3-1.5c-0.8-1.1-0.9-2.6-0.3-3.9c0.6-1.3,1.8-2.1,3-2.9c0.2-0.2,0.5-0.3,0.8-0.4
				c0.3-0.1,0.6,0,1-0.1c0.7-0.3,0.7-1.3,1.3-1.7c0.5-0.4,1.4-0.2,1.8,0.3c0.5,0.5,0.6,1.2,0.8,1.9c0.4,1.7,1,3.3,1.8,4.9
				c0.6-1.2,0.9-2.5,0.9-3.8c0.9,1.1,2.4,1.8,3.8,1.6c1.4-0.1,2.8-1,3.5-2.2c0.1-0.1,0.2-0.3,0.2-0.5c0,0,0-0.1,0-0.2
				c0-0.8-1-1.2-1.8-1.5c-1.3-0.4-2.9-1.2-3-2.6c1.3,0.2,2.7,0.5,4,0.7c0.5,0.1,0.9,0.2,1.3,0.5c0.8,0.8,0.2,2.1-0.1,3.2
				c0,0,0,0,0,0.1c-0.7,2.1,0.4,4.7,2.3,5.7c0.9,0.5,1.9,0.7,2.9,0.9c0.4,0.1,0.8,0.2,1.2,0.2c1.6,0.3,3.2,0.6,4.8,0.5
				c0.1,1.5,0.2,3.1-0.3,4.6c-0.4,1.5-1.5,2.9-3,3.2c-0.7,0.1-1.4,0.1-2,0.4c-0.4,0.2-0.8,0.5-1.1,0.8c-1.4,1.1-3.1,1.8-4.9,1.9
				c-0.5,0-0.9,0-1.3,0.3c-0.1,0-0.1,0.1-0.2,0.2c-0.4,0.5-0.4,1.2-0.7,1.8c-0.9,2.1-4,2.2-5.4,4c-1,1.3-1.3,3.5-2.9,3.5
				c-0.5,0-0.9-0.2-1.4-0.4c-1.6-0.8-3.2-1.8-5-1.8c-1.1,0-2.2,0.3-3.2-0.1c-0.4-0.2-0.8-0.6-1.2-0.9c-0.9-0.7-2-0.9-3.1-0.7
				c-0.3,0.5,0.4,1.1,0.4,1.7c0,0.2-0.2,0.5-0.3,0.7c-1.5,2.3-2.7,4.9-3.5,7.5c-0.1,0.4-0.2,0.8-0.1,1.2c0.2,0.9,1.4,1.2,2.3,1.1
				c0.9-0.1,1.8-0.5,2.8-0.5c1.4,0.1,2.4,1.3,2.8,2.6c0.4,1.3,0.3,2.7,0.2,4c-0.2,2.1-0.3,4.1-0.5,6.2c-0.1,1,0,2.2-0.2,3.2
				c-0.2,0.8-0.8,1.6-1.1,2.4c0.6,0.1,0.7,0.9,0.7,1.5c0,1.3,0,2.6,0,3.8c0,0.2,0,0.3-0.1,0.5c-0.1,0.1-0.3,0.2-0.4,0.4
				c-0.1,0.2-0.1,0.4-0.1,0.6c0.1,1.4,0.2,2.9,0.3,4.3c0,0.2,0,0.4,0,0.6c-0.1,0.2-0.2,0.3-0.4,0.4c-0.6,0.5-1.1,1-1.6,1.6
				c-0.2,0.2-0.4,0.5-0.5,0.8c-0.1,0.3-0.1,0.6,0,1c0.1,1,0.3,1.9,0.7,2.8c0.3,0.8,0.7,1.6,0.7,2.5c0,0.9-0.5,1.8-0.5,2.7
				c0,0.5,0.2,1.1-0.1,1.5c-0.4,0.6-1.4,0.4-2.2,0.4c-0.5,0-1,0.1-1.4,0.4c-0.4,0.3-0.5,0.9-0.3,1.3c0.2,0.4,0.6,0.5,0.9,0.8
				c0.3,0.2,0.5,0.7,0.3,1c-0.8,0.5-1.6,1-2.4,1.5c-0.4,0.3-0.9,0.6-1.4,0.6c-0.6,0.1-1.3-0.2-1.9-0.1c-0.3,0.1-0.6,0.2-1,0.4
				c-0.9,0.3-1.8,0.1-2.7-0.2c-0.2,0-0.5-0.1-0.6-0.3c-0.2-0.2-0.1-0.5-0.1-0.8c0.1-0.7,0.4-1.5,0.7-2.2c0.1-0.3,0.3-0.6,0.6-0.8
				c0.2-0.1,0.5-0.1,0.7-0.2c0.7-0.2,1.2-0.9,1.2-1.6c0-0.8-0.5-1.4-1.1-1.9c-0.6-0.5-1.3-0.8-1.8-1.3c-1.6-1.4-2.1-3.7-3.8-5
				c-0.5-0.4-1-0.7-1.5-1.1c-0.3-0.3-0.5-0.6-0.8-0.9c-0.4-0.3-0.7-0.5-1-1c-1.2-2.4-0.3-5.5,1.6-7.5c0.4-0.4,0.9-0.9,1-1.5
				c0-0.4-0.1-0.8-0.1-1.2c0.1-1.3,1.9-1.9,2.2-3.2c0.1-0.5,0.1-1,0.2-1.4c0.2-0.6,0.9-0.9,1.3-1.5c0.8-1,0.4-2.4,0.8-3.6
				c0.1-0.5,0.4-0.9,0.5-1.4c0.1-1-0.7-2-1.1-3c-0.9-2.4,0.7-5.2,0-7.8c-0.1-0.3-0.2-0.5-0.5-0.6c-0.2-0.1-0.4,0-0.6-0.1
				c-0.6-0.2-0.4-1.1-0.6-1.7c-0.3-1-1.9-1.2-2-2.2C441,356.6,441.1,356.3,441,356z"/>
			<path class="st2" d="M636.6,531.8c0.3,0.5,1.1,0.3,1.7,0c0.5-0.3,1.2-0.7,1.7-0.3c0.3,0.2,0.4,0.5,0.6,0.7c0.5,0.4,1.2,0,1.8,0.2
				c1.1,0.3,1.1,1.8,1.4,3c0.4,1.8,2.1,2.9,3.6,3.9c1.3,0.9,2.6,1.7,3.8,2.6c0.2-1.4,0.3-2.8,0-4.1c-0.3-1.3-1.2-2.6-2.4-3.1
				c-0.3-0.1-0.6-0.2-0.7-0.5c-0.3-0.6,0.5-1,1.2-1.1c1-0.2,2-0.3,3.1-0.5c0-1.2,1.4-2.2,2.6-1.8c0.7,0.2,1.5,0.8,1.9,0.3
				c0.2-0.2,0.2-0.5,0.4-0.7c0.5-0.7,1.6-0.4,2.4-0.7c0.7-0.2,1.1-0.9,1.5-1.6c0.8-1.5,1.4-3.1,1.8-4.8c0.1-0.4,0.2-0.9,0.4-1.2
				c0.1-0.1,0.2-0.2,0.3-0.3c0.6-0.5,1.5-0.3,2.1,0c0.7,0.3,1.3,0.8,2.1,0.9c0.7,0.1,1.7-0.3,1.7-1c1.6,0.5,3.5-1.2,3.2-2.8
				c-1.7,0.5-3.7-0.1-4.9-1.4c-0.2-0.3-0.4-0.5-0.7-0.7c-0.7-0.4-1.5,0-2.2,0.3c-0.7,0.3-1.6,0.5-2.1,0c-0.2-0.3-0.3-0.6-0.5-0.9
				c-0.6-1-2.1-1-3.3-0.8c0,0.6,0.6,1.2,1.2,1.2c-0.7,1.7,2,3.4,1.5,5.1c0,0.1-0.1,0.2-0.1,0.2c-0.1,0.2-0.3,0.5-0.5,0.7
				c-1.5,1.9-3.2,3.6-5.3,4.9c-3,1.8-6.6,2.5-10.1,3c0.2-0.8,0.3-1.7-0.3-2.2c-0.8-0.7-2.3,0.1-3.1-0.6c-0.3-0.3-0.4-0.8-0.7-1.2
				c-0.9-1.3-3.2,0-4.4-1c-0.3-0.2-0.6-0.7-0.9-0.8s-0.8-0.1-1.2-0.1c-3.6,0.4-7.3,0.2-11,0c-3.5-0.2-6.9-0.4-10.3-0.6
				c-0.3-0.3-0.9-0.1-1,0.3c-0.1,0.4,0.1,0.8,0.4,1.1c0.3,0.3,0.8,0.4,1.2,0.4c1,0.1,1.9,0,2.9,0c1,0,1.9,0.2,2.8,0.4
				c2.5,0.5,5,0.9,7.6,1.4c1.7,0.3,3.4,0.6,5.1,1.3C634.1,529.5,635.6,530.5,636.6,531.8c-0.1,0.1,0,0.1,0,0.1"/>
			<path class="st2" d="M807.4,362.9C807.4,362.9,807.4,362.9,807.4,362.9c-0.3-0.1-0.5-0.4-0.3-0.7c-0.4,0.2-0.9,0.3-1.1,0
				c-0.3-0.4,0.2-0.9,0.5-1.3c0.3-0.4,0.3-1.3-0.2-1.2c-0.2,0.4-1,0.3-1.2-0.1c-0.2-0.4-0.1-1,0-1.4c0.1-0.5,0.2-1,0-1.4
				c-0.2-0.3-0.5-0.5-0.7-0.9c-0.5-0.9,0.5-1.9,1.4-2.3c0.9-0.4,2-0.6,2.5-1.5c0.3-0.5,0.3-1.1,0.5-1.6s0.9-0.9,1.4-0.6
				c0.1-1.4-1.3-2.7-2.7-2.5c0-0.7,1-0.7,1.5-1.2c0.4-0.5,0.1-1.2-0.1-1.7c-0.6-1.3-1.2-2.6-1.8-3.9c-0.3-0.7-0.6-1.4-0.3-2.1
				c0.2-0.3,0.5-0.6,0.8-0.8c0.9-0.6,1.8-1.1,2.9-1.1c1,0,2.2,0.5,2.5,1.5c0.4-0.6,1-1.1,1.7-1.2c0.3-0.1,0.6-0.1,0.8-0.3
				c0.6-0.6-0.2-2,0.6-2.2c0.2,0,0.4,0,0.6,0c1.5,0.3,3-1.1,2.9-2.6c-0.1-0.8-0.5-1.6-0.4-2.4c0.1-1,1-1.6,1.2-2.5
				c0.4-1.3-0.4-2.8,0.1-4c0.1-0.2,0.2-0.3,0.4-0.4c0.8-0.4,1.4,1.1,2.2,1c0.3-1,0.9-1.9,1.5-2.7c0.2-0.2,0.4-0.5,0.7-0.4
				c0.3,0,0.5,0.4,0.7,0.6c0.5,0.6,1.6,0.7,2.3,0.2c0.7-0.5,1-1.4,1-2.2c0-0.5-0.2-1.2,0.1-1.6c0.4-0.6,1.4-0.4,1.9,0.1
				c0.5,0.5,0.5,1.3,0.6,2c1,0,1.7-1.1,1.6-2.1c0-1-0.6-1.9-1.1-2.7c-0.1-0.3-0.3-0.5-0.3-0.8c0-0.3,0.2-0.6,0.4-0.9
				c0.3-0.4,0.6-0.9,0.9-1.2c0.1-0.1,0.3-0.2,0.4-0.3c0.6-0.4,1.4-0.4,1.9,0c0.5,0.5,0.3,1.5-0.3,1.6c-0.3,0.1-0.7-0.1-0.9,0
				c-0.5,0.2-0.5,0.9-0.1,1.3c0.3,0.4,0.9,0.5,1.4,0.7c0.5,0.2,1,0.5,1.1,1.1c0.1,0.8-0.9,1.6-0.5,2.4c1.1-0.3,2.4-0.9,3.3-1.5
				c-0.3,0.1-0.5-0.5-0.2-0.8c0.6-0.8,2-0.3,2.7,0.4c0.3-0.6,0.7-1.2,1.2-1.6c0.5-0.4,1.3-0.5,1.9-0.3c0.4,0.2,0.7,0.5,1,0.8
				c0.3,0.3,0.7,0.5,1.1,0.5c0.4-0.1,0.8-0.6,0.5-0.9c-0.1-0.2-0.3-0.3-0.3-0.5c0-0.1,0.2-0.2,0.4-0.2c1.1-0.1,2.3,0,3.3,0.4
				c0.7-1.2,1.7-2.6,3.1-2.4c0.5,0.1,1,0.4,1.5,0.5c0.9,0.3,1.8,0.2,2.7,0.2c1.8-0.1,3.5-0.3,5.3-0.5c0.4-0.1,0.9-0.1,1.3-0.1
				c0.3,0,0.6,0,1,0.1c0.8,0.2,1.4,0.8,1.9,1.3c0.1,0.1,0.2,0.2,0.4,0.2c0.2,0,0.3-0.1,0.5-0.2c1-0.4,2.1,0.6,3.2,0.4
				c0.6-0.1,1-0.6,1.3-1c0.4-0.4,0.8-0.9,1.4-1c0,0,0.1,0,0.1,0c0.5,0,1.1,0.5,0.9,1c0.9,0,1.8-0.2,2.5-0.7c0.9-0.7,1.5-2,2.7-1.9
				c1.2,0.1,1.6,1.7,2.7,2.2c0.8,0.3,1.7-0.1,2.5-0.1c1,0,2,0.5,2.5,1.4c0.7-0.6,1.3-1.1,2.1-1.5s1.7-0.5,2.5-0.2
				c0.7,0.3,1.2,0.8,1.8,1.3c1.4,0.9,3.1,1.1,4.8,1c-0.3-0.3,0-0.8,0.3-1c0.4-0.2,0.8-0.1,1.2-0.1c0.4,0,0.8,0,1.2-0.3
				c0.1-0.1,0.2-0.3,0.4-0.4c0.2-0.1,0.3-0.1,0.5-0.1c0.5,0,1.1,0.1,1.6,0.3c0.5,0.2,0.9,0.8,0.8,1.3c0.4,0.3,1,0.2,1.3-0.2
				c0.2-0.4,0-1-0.4-1.2c-0.2-0.1-0.4-0.1-0.6-0.2c-0.5-0.3-0.5-1.1-0.2-1.6c0.7-1.1,2.4-1.5,3.5-0.8c0.5,0.3,1,0.7,1.5,0.5
				c0.2-0.1,0.3-0.2,0.4-0.3c0.2-0.1,0.5-0.2,0.8-0.2c1.3-0.1,2.6-0.1,4-0.2c0.3,0,0.7,0,1-0.2c0.3-0.1,0.5-0.4,0.6-0.6
				c0.5-0.6,1-1.2,1.5-1.8c0.5-0.5,0.9-1.1,1.1-1.8c0.2-0.8-0.1-1.6-0.3-2.3c-0.1-0.8-0.1-1.7,0.6-2.2c0.7-0.5,1.7-0.1,2.5-0.3
				c0.2-0.1,0.4-0.2,0.5-0.4c0.2-0.3,0.1-0.7-0.1-1.1c-0.3-0.8-0.6-1.5-0.9-2.3c-0.2-0.5-0.4-1.1-0.9-1.4c-0.5-0.4-0.9-0.6-1.4-1
				c-0.9-0.8-2.5-1.7-2.9,0c-0.1,0.5,0.3,1,0.3,1.6c0,0.6-0.6,1.2-1.2,0.6c-0.1-0.1-0.2-0.2-0.2-0.4c-0.2-0.3-0.4-0.5-0.6-0.7
				c-0.1-0.1-0.3-0.3-0.5-0.3c-0.2,0-0.4,0-0.5,0c-0.6,0.1-1.2,0.3-1.7,0.5c-0.2,0-0.3,0.1-0.5,0.2c-0.4,0.4-0.1,1.3-0.6,1.6
				c-1.2,0.6-2.5,1.3-3.7,0.5c-0.3,1.5-2.6,2.2-2.5,3.8c0,0.4,0.2,1-0.2,1.2c-0.3,0.2-0.7,0-1-0.2c-0.3-0.2-0.8-0.2-1,0.1
				c0-0.3,0-0.7-0.1-1c-0.1-0.3-0.5-0.5-0.8-0.4c-0.1,0.8-0.2,1.5-0.3,2.2c0,0.2-0.1,0.5,0.1,0.7c0.2,0.3,0.7,0.3,0.8,0.6
				c0.1,0.2,0.1,0.5,0,0.7c-0.1,0.6-0.2,1.1-0.3,1.7c-0.1,0.4-0.1,0.8-0.3,1.1c-0.2,0.3-0.6,0.5-1,0.4c-0.8-0.3-0.5-1.6-1.1-2.2
				c-0.5-0.4-1.3-0.2-1.7-0.7c-0.1-0.1-0.1-0.3-0.2-0.5c-0.5-1-1.9-1.3-2.8-0.6c-0.2,0.2-0.4,0.5-0.7,0.5c-0.2,0-0.4-0.1-0.6-0.1
				c-1.6-0.8-3.5-1.3-5.3-1c-0.7,0.1-1.4,0.3-2.1,0.2c-0.6-0.1-1.3-0.3-1.6,0.2c-0.1,0.2-0.1,0.6-0.3,0.7c-0.1,0.1-0.3,0.1-0.5,0.1
				c-1.1,0-2.2,0.1-3.3,0.1c-0.2,0-0.3,0-0.5,0.1c-0.1,0.1-0.1,0.3-0.2,0.5c-0.2,0.6-1,0.8-1.7,0.7s-1.4-0.2-1.9,0.2
				c-0.8,0.5-0.7,1.7-1.4,2.3c-0.3,0.2-0.6,0.3-0.9,0.3c-0.5,0-1-0.2-1.4-0.3c-0.2,0-0.3-0.2-0.3-0.5c-0.1-0.2-0.1-0.5-0.1-0.8
				c-0.2-0.7-0.9-1.2-1.6-1.2c-0.7-0.1-1.4,0.2-2,0.5c-0.4,0.2-0.7,0.4-1.1,0.5c-0.4,0.1-0.8,0-1-0.4c-0.1-0.2-0.1-0.4-0.2-0.6
				c-0.1-0.2-0.3-0.4-0.5-0.3c-0.4,1-0.1,2.3,0.7,3c-0.4,0-0.9-0.1-1.3-0.2c-0.8-0.2-1.6-0.6-2.4-0.4c0-0.7,0-1.4,0-2
				c-0.6-0.1-0.9,1-1.6,1c-0.6,0-1-1-1.6-0.9c0,0.9-1.4,1.1-1.7,1.9c0,0.1-0.1,0.3-0.2,0.4c-0.1,0.1-0.2,0.1-0.4,0
				c-0.9-0.1-1.9-0.3-2.8-0.4c0.2-1-0.3-1.9-1.1-2.5c-0.8-0.6-1.7-0.9-2.6-1.2c-1-0.3-2-0.6-3.1-0.7c-0.5,0-1,0-1.4,0.2
				c-0.3,0.2-0.5,0.6-0.7,0.9c-0.4,0.4-1,0.6-1.5,0.4c-0.5-0.2-0.8-0.9-0.5-1.3c-0.3-0.4-0.9-0.2-1.3,0.1c-0.3,0.3-0.6,0.8-1,1
				c-0.8,0.5-1.9-0.1-2.7,0.3c-0.3,0.1-0.6,0.4-0.9,0.6c-1.2,1-2.6,1.6-4,2.3c-0.6,0.3-1.2,0.6-1.9,0.6c-0.1,0-0.2,0-0.3,0
				c-0.5,0-1-0.1-1.5-0.1c-0.9,0-1.9,0.1-2.7,0.5c-1.8-0.6-3.2-1.8-4.2-3.4c-0.4,1.2-1.4,2.2-2.6,2.6c0.4-0.3,0.1-1.1-0.5-1.2
				c-0.5-0.1-1,0.3-1.4,0.7c-0.4,0.4-0.6,0.9-1.1,1.2c-0.9,0.6-2.1,0.3-3.2,0.3c-1.1,0-2.4,0.6-2.3,1.7c-0.4,0.1-0.8,0.2-1.3,0.3
				c0.1,1.7-0.1,3.4-0.5,5.1c-0.8-0.7-2,0.4-2.3,1.4c-0.3,1-0.5,2.3-1.5,2.7c-0.5,0.2-1.1,0.1-1.6,0.4c-0.4,0.3-0.6,0.8-1,1.1
				c-0.5,0.4-1.2,0.3-1.9,0.4c-1.9,0.3-3,2.3-3.8,4c-0.3,0.7-0.7,1.5-0.3,2.2c0.3,0.5,0.9,0.8,1.3,1.2c0.5,0.4,0.8,1.1,0.3,1.5
				c-0.6,0.6-1.8-0.4-2.6,0.1c-0.3,0.2-0.4,0.5-0.7,0.8c-0.4,0.4-1.1,0.3-1.6,0c-0.5-0.3-0.8-0.9-1.1-1.4c-0.3,0.9-1.7,0.9-2.2,1.7
				c-0.1,0.3-0.1,0.6-0.1,1c0,1.1,0,2.2,0,3.3c1.4,0.1,2.7,1.2,3.1,2.5c-0.9,0-1.7-0.1-2.5-0.4c-0.4,2.4-0.8,4.7-1.2,7.1
				c-0.3,0.5-1,0.2-1.4-0.1c-0.4-0.3-0.9-0.8-1.3-0.6c-0.6,0.2-0.4,1.2,0,1.6c0.5,0.4,1.1,0.7,1.5,1.2c0.5,0.6,0.3,1.5,0.2,2.2
				c-0.8-0.2-1.6,0.5-1.8,1.3c-0.2,0.8,0.1,1.6,0.4,2.4c0.1,0.3,0.2,0.5,0.5,0.7c0.3,0.2,0.7,0.2,1.1,0.2c2.5,0.2,4.1,2.7,5.2,4.9
				c0.3,0.5,0.6,1.1,1.1,1.4c0.4,0.2,0.8,0.2,1.2,0.4c1.2,0.6,1.5,2.4,2.6,3.2c0.7,0.5,1.7,0.6,2.5,0.9c0.8,0.3,1.6,1.2,1.2,2
				c-0.2,0.1-0.5,0.3-0.7,0.4c-0.1,0.8,0.6,1.7,1.4,1.7c0.1,0.7-0.3,1.5-1,1.8c0.4,1.4,2.3,2.2,3.6,1.6c-0.5-0.8-0.6-1.9-0.2-2.8
				c0.2-0.3,0.4-0.6,0.4-1c0.2-0.7-0.3-1.4-0.6-2.1C806.6,366.6,806.6,364.6,807.4,362.9c0-0.1,0-0.2,0-0.2"/>
			<path class="st2" d="M911.4,439.9C911.4,439.9,911.4,439.9,911.4,439.9C911.4,439.9,911.4,439.9,911.4,439.9z"/>
			<path class="st2" d="M911.4,439.9c1-0.1,2.1-0.1,3.2-0.1c1.9-1.6,4.3-2.2,6.8-1.7c-0.6,0-1.1,0.3-1.4,0.8c-0.3,0.6-0.4,1.3-1,1.6
				c-0.2,0.1-0.5,0.1-0.7,0.2c-0.2,0.1-0.3,0.4-0.4,0.6c-0.2,0.6-0.4,1.3,0.1,1.7c0.5,0.5,1.3,0,2-0.3c0.7-0.4,1.6-0.5,2.4-0.3
				c0.5,0.1,1,0.4,0.8,0.9c-1.1-0.1-2.2,0-3.3,0.4c-0.2,0.1-0.5,0.2-0.6,0.3c-0.3,0.2-0.4,0.6-0.6,1c-0.8,2-2.7,3.5-4.7,3.9
				c-0.5,0.1-1,0.2-1.5,0.5c-0.4,0.3-0.6,1-0.2,1.3c0.3,0.2,0.7,0.2,1.1,0.3c0.4,0,0.8,0.3,0.7,0.7c-1.5,0.8-2.1,2.6-2.9,4.1
				c-1,2-2.7,3.6-4.8,4.6c-0.9,0.5-2,0.8-3,0.6c-0.9-0.2-1.6-0.7-2.5-0.8c-0.6-0.1-1.3,0.1-1.9,0.3c-1.1,0.4-2.2,0.7-3.4,1.1
				c-0.4,0.1-0.7,0.2-1.1,0.2c-0.6,0-1.2-0.2-1.8-0.3c-0.7-0.1-1.5-0.1-2.2-0.2c-1.1-0.1-2.2-0.4-3.2-0.9c-1-0.5-1.9-1.1-3-0.8
				c-1.2,0.4-2.1,0.3-3.4,0.1c-0.7-0.1-1.5-0.3-2.2-0.4c-0.7-0.1-1.5-0.3-2.1-0.7c-0.3-0.2-0.6-0.4-1-0.4c-0.7,0-1.1,0.8-1.8,1
				c-0.3,0.1-0.7,0.1-1,0.2c-0.3,0-0.8,0-0.9-0.3c-0.2-0.4,0.1-1.1-0.2-1.4c-0.2-0.2-0.5-0.1-0.7-0.3c-0.1-0.1-0.2-0.3-0.2-0.4
				c-0.1-0.9,0.1-1.9,0.5-2.7c0.1-0.1,0.2-0.3,0.3-0.4c0.2-0.1,0.4-0.1,0.7,0c1.7,0.3,3.5,0.1,5.1-0.5c-0.2-0.2-0.2-0.5-0.1-0.8
				c0.4-1,1.9-0.5,2.6-0.5c1-0.1,1.2-1.4,1.8-2.1c0.6-0.6,1.5-0.8,2.4-0.7c0.2,0,0.4,0,0.5-0.1c0.2-0.1,0.3-0.2,0.5-0.4
				c0.9-0.7,2.5,0,3.3-0.7c0.2-0.2,0.3-0.4,0.5-0.6c0.5-0.4,1.2-0.2,1.7-0.5c0.3-0.1,0.5-0.3,0.8-0.5c0.8-0.6,1.6-1,2.4-1.5
				c0.1-0.1,0.3-0.1,0.4-0.1c0.4,0,0.7,0.4,1.1,0.5c0.6,0.1,1-0.5,1.4-0.9c0.7-0.7,1.8-0.9,2.7-0.9c1,0,2,0.2,2.9,0.4
				c0.8,0.1,1.9,0,2.1-0.8c0.1-0.2,0.1-0.4,0.2-0.6c0.1-0.1,0.2-0.2,0.4-0.2c0.7-0.3,1.4-0.6,2-0.9c0.4-0.2,0.8-0.4,1.3-0.6
				c0.3-0.1,0.7-0.3,1-0.4c0.5-0.2,1.1-0.2,1.6-0.2c0.1,0,0.3,0,0.4-0.1C911.6,440.1,911.5,439.9,911.4,439.9z"/>
			<path class="st2" d="M1011.5,195.9c-1.2,1-1.9,2.6-3.1,3.6c-0.5,0.4-1.2,0.7-1.6,1.2c-0.5,0.6-0.7,1.3-0.8,2
				c-0.3,1.3-0.3,2.4-0.3,3.7c0,0.9-0.3,2,0.5,2.7c0.2,0.1,0.4,0.3,0.6,0.4c0.3,0.3,0.3,0.7,0.3,1.1c0,0.7,0,1.4,0,2.1
				c0,0.2,0,0.4-0.1,0.6c-0.2,0.3-0.6,0.5-0.6,0.9c0,0.1,0,0.3,0.1,0.4c0.6,1.5,1.6,2.9,2.7,4c0.2,0.2,0.4,0.4,0.8,0.5
				c0.3,0.1,0.6,0,0.9-0.1c0.6-0.1,1.2,0.2,1.5,0.7c0,0,0.1,0.1,0.1,0.2c0,0.2-0.2,0.2-0.3,0.3c-0.6,0.2-0.9,0.9-1,1.5
				c-0.1,0.7,0.1,2.2-0.6,2.6c-0.3,0.2-0.7,0.2-1.1,0.2c-1.3,0-2.7,0-4,0c-0.1,0.5-0.2,1.1-0.3,1.6c-0.4-0.4-1.1-0.3-1.4,0.2
				c-0.2,0.4-0.3,1-0.7,1.1c-0.8,0.3-1.3-1.3-2.1-1c-0.6,0.2-0.3,1.2,0.2,1.7c0.7,0.7,1.4,1.5,2.4,1.5c0.4,0,0.8-0.2,1.2-0.1
				c0.5,0.1,0.8,0.4,1.1,0.7c0.3,0.2,0.5,0.5,0.8,0.8c0.6,0.6,1.2,1.1,2,1.2c1.3,0.1,2.5-1.2,3.7-0.7c0.4,0.1,0.7,0.5,1.1,0.6
				c0.8,0.2,1.6-0.3,2.4-0.4c1.7-0.2,3.3,1.5,5,1.1c0.1,0.7,0.1,1.5,0.2,2.2c0,0.2,0,0.5,0.2,0.6c0.2,0.1,0.4,0.1,0.6,0.1
				c0.8-0.1,1.7-0.3,2.5-0.3c1,0,1.9,0.2,2.9,0.3c0.4,0.1,0.7,0.1,1.1,0.3c0.3,0.1,0.5,0.3,0.8,0.5c1,0.7,2.2,1.2,3.4,1.6
				c0,0.3,0.1,0.6,0.1,0.9c0.6,0.4,1.5,0.3,1.9-0.3c0.3-0.6-0.4-1.6-1-1.2c-0.3,0-0.4-0.5-0.1-0.7c0.3-0.2,0.6-0.1,0.9,0
				c0.3,0.1,0.6,0.2,0.9,0c0.9-0.6-0.8-2.3,0-2.9c0.3-0.2,0.8-0.1,1-0.4c0.2-0.3-0.1-0.7-0.1-1.1c0-0.6,0.6-0.9,1.2-1.2
				c0.5-0.2,1.1-0.7,0.9-1.3c-1,0-2-0.5-2.6-1.2c-0.2-0.2-0.4-0.5-0.6-0.7c-0.3-0.2-0.6-0.3-1-0.3c-2.1-0.3-4.3-0.3-6.4,0.2
				c-0.2,0-0.5,0.1-0.7,0.1c-0.5,0-0.8-0.3-1.2-0.6c-0.8-0.6-1.7-1.1-2.6-1.3c-0.8-0.1-1.6,0.1-2.4,0c-0.8-0.1-1.7-0.7-1.6-1.5
				c-0.6,0.1-1.1,0.5-1.5,0.9c0-0.6-0.5-1.1-1.1-1.2c-0.6-0.1-1.2,0.2-1.5,0.8c-0.5-0.9-2-1-2.6-0.2c-0.6-0.9-0.2-2.1,0.1-3.1
				c0.1-0.2,0.1-0.4,0.3-0.5c0.2-0.1,0.4-0.2,0.6-0.2c0.8-0.2,1.5-0.9,1.7-1.7c1.8,0.5,3.8-0.1,5.1-1.5c0.2-0.2,0.4-0.6,0.2-0.9
				c-0.1-0.2-0.4-0.2-0.7-0.1c-1.2,0.2-2.3,0.6-3.4,1.2c-0.4,0.2-0.8,0.4-1.2,0.5c-0.1,0-0.1,0-0.1,0c-0.5,0-0.9-0.2-1.4-0.3
				c-1.3-0.6-2.8-1.3-3.4-2.6c-0.5-1-0.4-2.1-0.7-3.1c-0.7-2.5-3.4-4.3-3.1-6.9c0.2-1.5,1.4-2.7,1.7-4.2c0-0.3,0.1-0.6,0.3-0.8
				c0.3-0.3,0.9-0.1,1.4-0.1c0.8-0.1,1.2-0.9,1.6-1.6c0.7-1,1.9-1.6,3.1-1.6c0.3,0,0.6,0,0.8-0.2c0.3-0.2,0.2-0.7,0.3-1.1
				c0-0.5,0.2-0.9,0.6-1.2c0.5-0.6,1.2-1,1.8-1.3c1.2-0.6,2.4-1.1,3.6-1.6c1-0.4,1.2-1.2,2-1.9c0.5-0.5,1.1-0.8,1.6-1.2
				c0.5-0.5,0.8-1.2,0.4-1.8c-0.7,0.2-1.4,0.4-2.1,0.7c-0.3,0.1-0.6,0.2-0.9,0.2c-1,0-1.7-1.3-2.6-1.6c-0.9-0.3-2,0.1-2.8-0.4
				c-0.5-0.3-0.8-0.9-1.2-1.4c-0.6-0.6-1.4-0.8-2.1-1.3c-1.2-0.7-2.1-2.1-3.5-2.3c-1.5-0.3-3.2,0.6-4.4-0.3c0.2-0.7,0.6-1.5,1.3-1.5
				c0.2,0,0.5,0.1,0.6,0c0.5-0.2,0.3-0.9,0.1-1.4c-0.3-0.9-0.1-2,0.5-2.8c0.1-0.1,0.1-0.2,0.2-0.2c0.5-0.7,1.2-1.2,2-1.4
				c0.3-0.1,0.6-0.2,0.6-0.4c0.1-0.4-0.5-0.6-0.9-0.7c-0.6-0.1-1.3-0.1-1.6,0.4c-0.2,0.2-0.2,0.5-0.3,0.8c-0.1,0.4-0.3,0.8-0.5,1.2
				c0,0,0,0,0,0c-0.4,0.6-1,1-1.4,1.6c-0.5,0.6-0.8,1.3-0.6,2c-0.7-0.3-1.4-0.6-2.1-0.5c-0.4,0-0.7,0.2-1.1,0.4
				c-1.1,0.4-2.2,0.7-3.3,0.9c0.2,0.6,0.3,1.2,0.4,1.7c0.1,0.3,0.2,0.6,0.5,0.6c0.2,0,0.3-0.2,0.5-0.3c0.9-0.8,2.2-0.3,3.3,0.2
				c0.2,0.1,0.4,0.2,0.6,0.4c0.2,0.3,0.1,0.8,0.3,1.1c0.2,0.4,0.8,0.6,1.3,0.6c0.5-0.1,1-0.3,1.4-0.5c1.2-0.5,2.6-0.6,3.7,0.2
				c0.4,0.3,0.7,0.6,1,0.9c0.8,0.6,2,0.7,2.8,1.4c0.5,0.4,0.8,1,1.3,1.4c0.6,0.6,1.4,0.8,2.1,1.2c0.7,0.4,1.3,1.1,1.3,1.9
				c0,0.6-0.4,1.1-0.8,1.6c-1.4,1.5-3.1,2.8-5,3.5c-0.7,0.3-1.4,0.5-2,0.9C1011.9,195.6,1011.7,195.7,1011.5,195.9z"/>
			<path class="st2" d="M978.8,296c0,0.3,0,0.5-0.2,0.7"/>
			<path class="st2" d="M978.8,296c-0.4,0.6-0.9,1.2-1.4,1.7c-0.2,0.2-0.5,0.5-0.7,0.8c-0.2,0.3-0.2,0.7-0.2,1
				c-0.1,1.1-0.2,2.4,0.5,3.3c0.2,0.3,0.5,0.5,0.7,0.7c0.4,0.6,0.3,1.4,0.3,2c-0.1,1.5-0.1,3.1,0.1,4.6c0,0.2,0,0.5,0.2,0.6
				c0.1,0.2,0.4,0.3,0.6,0.4c1.2,0.3,2.5-0.1,3.6,0.2c0.7,0.2,1.3,0.7,1.9,1.1c0.3,0.3,0.7,0.5,1,0.8c0.2,0.2,0.4,0.3,0.5,0.6
				c0.1,0.3,0.1,0.7,0.3,1c0.2,0.4,0.8,0.5,1.3,0.7c0.5,0.1,1,0.5,0.9,1c0.4-0.5,1-0.6,1.5-0.8c1.3-0.4,2.7-0.6,4.1-0.8
				c0.4,0,0.8-0.1,1.1,0.1c0.3,0.2,0.5,0.5,0.7,0.8c0.3,0.4,0.8,0.7,1.2,0.9c0.4,0.2,0.9,0.2,1.3,0c0.4-0.2,0.5-0.9,0.1-1.1
				c-0.2-0.1-0.5-0.1-0.7-0.2c-0.4-0.2-0.4-0.7-0.7-1c-0.2-0.2-0.5-0.4-0.8-0.6c-0.2-0.2-0.3-0.5-0.4-0.8c-0.8-1.9-1.6-3.8-2.3-5.7
				c-0.1-0.3-0.2-0.5-0.3-0.8c0-0.4,0-0.8,0-1.1c0.1-0.9,0.1-1.8-0.3-2.6c-0.5-1-1.6-1.5-2.1-2.5c-0.4-0.8-0.5-1.8-1.2-2.4
				c-0.3-0.2-0.7-0.4-0.9-0.6c-0.2-0.2-0.3-0.5-0.5-0.7c-0.6-0.7-1.7-0.6-2.6-1c-0.3-0.1-0.7-0.3-1-0.5c-0.6-0.2-1.3-0.2-1.9-0.2
				c-0.9,0-1.8,0-2.7,0c-0.4,0-1,0.1-1.2,0.5C978.8,295.5,978.8,295.8,978.8,296z"/>
			<path class="st2" d="M978.8,295.9C978.8,296,978.8,296,978.8,295.9"/>
			<path class="st2" d="M969,290C969,290,969,290,969,290c0.5,0,0.9,0.3,1.1,0.6c0.3,0.4,0.4,0.8,0.5,1.2c0.2,0.7,0.5,1.5,0.3,2.3
				c-0.2,0.8-1.2,1.3-1.8,0.9c-0.1,0.5,0,1,0.1,1.4c-0.5,0.8-2.1-0.3-2.5,0.5c-0.1,0.1-0.1,0.3-0.2,0.4c-0.2,0.2-0.5,0-0.8-0.1
				c-0.7-0.4-1.5-0.4-2.2,0c-0.2,0.1-0.5,0.3-0.7,0.2c-0.2,0-0.4-0.2-0.6-0.3c-0.9-0.6-1.8-1.3-2.6-1.9c-0.5-0.4-1-0.7-1.5-1
				c-0.6-0.3-1.3-0.4-2-0.4c0.1-0.4,0-0.8-0.2-1.1c-0.2-0.4-0.7-0.9-0.4-1.2c0.1-0.2,0.4-0.2,0.7-0.2c1.3,0,2.6-0.1,3.9-0.1
				c0.4,0,0.8,0,1.1,0.3c0.3,0.4,0.3,1,0.8,1c0.6,0,0.5-1.1,1.1-1.3c0.1,0,0.3,0,0.5,0.1c0.8,0.4,1.8,0.7,2.6,0.3
				c0.2-0.1,0.4-0.4,0.6-0.5c0.5-0.4,1-0.6,1.5-0.9C968.4,290,968.7,289.9,969,290c0.1,0.1,0.1,0.2,0.2,0.2"/>
			<path class="st3" d="M1116.6,176.8c-25-10.9-53,3-78.8,11.8c-7.1,2.4-14.3,4.4-21.6,6.2c-1.5,0.4-3.1,0.7-4.7,1.1
				c-21.9,5-44.2,8.2-65.6,15.5c-30.8,10.4-59.8,25.3-89.8,37.8c-31.2,13.1-66.5,27.9-100.2,32.5c-15.3,2.1-29,8.6-43.7,13.6
				c-16.5,5.6-33.4,10.4-50.7,12.9c-32.6,4.7-65.8,1.3-98.5-2.1c-11.7-1.2-23.6-3.6-35.4-2.1c-12.2,1.5-24.1,5.5-36.6,5.4
				c-10.4-0.1-21-3.3-31.2-1.2c-9.3,1.9-16.9,8.5-24.7,13.6c-5.5,3.6-11.1,7.2-17.6,8.3c-5.1,0.9-10.3,0.1-15.3-1.2
				c-22.2-5.5-41.1-19.9-58.5-34.9c-6.4-5.5-12.8-11.2-20.1-15.5c-22.5-13-50.5-10.6-75.9-5.1c-14.9,3.2-29.6,7.4-44.6,9.8
				c-14.2,2.3-27.6,1.5-41.4,5c-16.4,4.2-34.4,9.6-43.6,25.1c-8.7,14.6-6.1,33-3.2,49.8c1,5.6,2.6,10.7,4.4,16.1
				c1.7,5,3.9,10.7,8.9,12.5c4,1.4,8.8-0.2,12.8,1.1c0.4,0.1,0.7,0.2,1.1,0.4c2.1,1,3.5,2.9,4.9,4.7c6.6,8.6,12.4,17.8,18.2,26.9
				c4,6.2,8,12.5,11.9,18.7c5.5,8.6,11.2,17.5,18.9,24.4c8.8,7.9,19.8,13.5,29.8,19.7c11.5,7.2,23.3,14.5,36.7,17
				c0.3,0,0.5,0.1,0.8,0.1c1.1,0.2,2.1,0.4,3.2,0.5c4.8,0.6,9.6,0.7,14.4,0.8c0.1,0,0.1,0,0.2,0c10.2,0.2,20.7,0.5,30.8-1.4
				c1.3-0.2,2.6-0.5,3.9-0.8c10.2-2.5,17.8-9.3,27.3-13.3c10.4-4.5,22.1-5.4,33-8.6c0,0,0.1,0,0.1,0c5.3-1.6,10.5-3.7,15.7-5.9
				c12.3-5.1,24.6-10.4,37.5-8.1c10.1,1.8,18.8,8,27.1,14.1c5.2,3.8,10.5,7.7,14.9,12.5c3.1,3.4,5.8,7.2,8.5,11
				c7.6,11,15.3,22.1,22.9,33.1c2.8,4.1,5.6,8.2,7.5,12.7c1.4,3.4,2.3,7.1,3.9,10.4c3.3,6.7,9.3,11.5,15.2,16
				c4,3.1,8.2,6.4,13.2,7.7c4.6,1.2,10.1,0.8,14.9,0.9c9.6,0.2,19.5-0.3,27.1,6.8c2.3,2.2,4.2,4.8,6.3,7.1c2.5,2.7,5.3,5.1,7.7,7.9
				c11.7,13.9,9.7,35.4,10.5,52.2c0.2,3.8,0.3,7.7-1.6,11c-1.4,2.4-3.8,4.1-6.2,5.5c-7.5,4.5-16,7-23.6,11.2
				c-8.5,4.8-13.1,10.6-15.6,19.7c-2.8,10.2-7.9,20.1-8.7,31c-0.5,7.4-0.2,14.9,2.1,21.9c2.6,7.8,7.7,14.5,13.1,20.7
				c17.3,20.1,40.5,37.6,67,39.2c7.4,0.4,15-0.1,22.5-0.3c8.3-0.2,16.7-1.2,24.4-4.6c5-2.2,9.5-5.2,14.4-7.5
				c6.9-3.2,14.4-4.7,21.5-7.6c14.8-6.1,32.2-15.4,41.1-29.1c2.9-4.4,4.9-9.3,8.2-13.4c3.3-4,7.6-6.9,11.8-9.8
				c5.8-4,11.7-8,17.5-11.9c4.2-2.9,8.5-5.8,11.9-9.5c3.7-4,6.2-8.7,9.2-13.2c3.2-4.8,6.7-7.2,10.9-10.8c9.2-8,18.3-16.4,25.2-26.5
				c5.5-8,9.7-17.2,16.8-23.7c11.9-10.9,27.7-12.7,43-13.6c26-1.6,50.7,3.5,76.4,5.1c9.8,0.6,19.7,1.3,29.5,0.4c11.2-1,22.2-4,33-7
				c12.8-3.5,25.7-7,38.5-10.6c10.2-2.8,18.4-8.7,25.3-16.8v0c0.5-0.6,1-1.2,1.5-1.9"/>
		</g>
	</g>
	<path class="st3" d="M1065.2,634.1c0.1-0.1,0.2-0.2,0.3-0.3"/>
	<path class="st3" d="M1065.5,650.1c0,0.1,0,0.2,0,0.3"/>
</g>
<g id="cities">
	<path class="st4" d="M627.2,692.2c0-1.4-1.1-2.5-2.5-2.5s-2.5,1.1-2.5,2.5c0,1.4,1.1,2.5,2.5,2.5S627.2,693.6,627.2,692.2"/>
	<circle class="st5" cx="624.2" cy="690.3" r="3.4"/>
	<text transform="matrix(1 0 0 1 614.9493 701.8833)" class="st6 st7">Balkh</text>
	<circle class="st5" cx="633.2" cy="572.3" r="3.4"/>
	<text transform="matrix(1 0 0 1 618.9493 583.8833)" class="st6 st7">Samarkand</text>
	<text transform="matrix(1 0 0 1 550.4523 581.6333)" class="st6 st7">Bukhara</text>
	<circle class="st5" cx="565.9" cy="568.9" r="3.4"/>
	<circle class="st5" cx="694.2" cy="511.9" r="3.4"/>
	<text transform="matrix(1 0 0 1 674.7023 525.1115)" class="st6 st7">Chach</text>
	<circle class="st5" cx="762" cy="539.6" r="3.4"/>
	<text transform="matrix(1 0 0 1 738.0695 533.191)" class="st6 st7">Ferghana</text>
	<text transform="matrix(1 0 0 1 868.5998 571.5411)" class="st6 st7">Kashgar</text>
	<circle class="st5" cx="877.5" cy="559.8" r="3.4"/>
	<circle class="st5" cx="998.2" cy="624.8" r="3.4"/>
	<text transform="matrix(1 0 0 1 991.5997 620.7912)" class="st6 st7">Khotan</text>
	<text transform="matrix(1 0 0 1 1036.9796 461.9496)" class="st6 st7">Kuqa</text>
	<circle class="st5" cx="1046.4" cy="450.4" r="3.4"/>
	<circle class="st5" cx="917" cy="591" r="3.4"/>
	<text transform="matrix(1 0 0 1 894.0997 602.4712)" class="st6 st7">Yarkant</text>
	<circle class="st5" cx="773.3" cy="763.7" r="3.4"/>
	<text transform="matrix(1 0 0 1 764.087 775.2082)" class="st6 st7">Peshawar</text>
	<circle class="st5" cx="703" cy="749.9" r="3.4"/>
	<text transform="matrix(1 0 0 1 693.7969 761.4081)" class="st6 st7">Kabul</text>
	<circle class="st5" cx="174.3" cy="298.5" r="3.4"/>
	<text transform="matrix(1 0 0 1 165.0368 310.0384)" class="st6 st7">Astrakhan</text>
	<circle class="st5" cx="135.1" cy="384.4" r="3.4"/>
	<text transform="matrix(1 0 0 1 125.8269 395.9483)" class="st6 st7">Samandar</text>
	<circle class="st5" cx="498.6" cy="758.2" r="3.4"/>
	<text transform="matrix(1 0 0 1 489.3069 769.7486)" class="st6 st7">Herat</text>
	<circle class="st5" cx="682.5" cy="784.2" r="3.4"/>
	<text transform="matrix(1 0 0 1 673.267 795.7086)" class="st6 st7">Ghazna</text>
</g>
<g id="text">
	<text transform="matrix(1 0 0 1 650.5551 371.1582)"><tspan x="0" y="0" class="st8 st6 st9">Western</tspan><tspan x="16.8" y="43.2" class="st8 st6 st9">Turkic</tspan><tspan x="-18.6" y="86.4" class="st8 st6 st9">Khaganate</tspan></text>
</g>
</svg>
